<svg width="354" height="357" viewBox="0 0 354 357" fill="none" xmlns="http://www.w3.org/2000/svg">
<mask id="mask0_4027_13513" style="mask-type:alpha" maskUnits="userSpaceOnUse" x="0" y="0" width="354" height="357">
<g clip-path="url(#clip0_4027_13513)">
<path d="M342.997 86.2274C381.03 86.2274 411.861 55.3793 411.861 17.3263C411.861 -20.7267 381.03 -51.5747 342.997 -51.5747C304.965 -51.5747 274.133 -20.7267 274.133 17.3263C274.133 55.3793 304.965 86.2274 342.997 86.2274Z" fill="#FAFAF0"/>
<path d="M232.594 66.9507C259.985 66.9507 282.191 44.7332 282.191 17.3267C282.191 -10.0799 259.985 -32.2974 232.594 -32.2974C205.202 -32.2974 182.996 -10.0799 182.996 17.3267C182.996 44.7332 205.202 66.9507 232.594 66.9507Z" fill="#FAFAF0"/>
<path d="M122.193 47.7215C138.971 47.7215 152.571 34.1134 152.571 17.3268C152.571 0.540298 138.971 -13.0679 122.193 -13.0679C105.416 -13.0679 91.8149 0.540298 91.8149 17.3268C91.8149 34.1134 105.416 47.7215 122.193 47.7215Z" fill="#FAFAF0"/>
<path d="M11.7449 28.4434C17.8817 28.4434 22.8566 23.4658 22.8566 17.3257C22.8566 11.1856 17.8817 6.20801 11.7449 6.20801C5.6081 6.20801 0.63324 11.1856 0.63324 17.3257C0.63324 23.4658 5.6081 28.4434 11.7449 28.4434Z" fill="#FAFAF0"/>
<path d="M342.997 201.747C381.03 201.747 411.861 170.899 411.861 132.846C411.861 94.7931 381.03 63.9451 342.997 63.9451C304.965 63.9451 274.133 94.7931 274.133 132.846C274.133 170.899 304.965 201.747 342.997 201.747Z" fill="#FAFAF0"/>
<path d="M232.594 182.47C259.985 182.47 282.191 160.253 282.191 132.846C282.191 105.44 259.985 83.2224 232.594 83.2224C205.202 83.2224 182.996 105.44 182.996 132.846C182.996 160.253 205.202 182.47 232.594 182.47Z" fill="#FAFAF0"/>
<path d="M122.193 163.241C138.971 163.241 152.571 149.633 152.571 132.847C152.571 116.06 138.971 102.452 122.193 102.452C105.416 102.452 91.8149 116.06 91.8149 132.847C91.8149 149.633 105.416 163.241 122.193 163.241Z" fill="#FAFAF0"/>
<path d="M11.7449 143.963C17.8817 143.963 22.8566 138.986 22.8566 132.845C22.8566 126.705 17.8817 121.728 11.7449 121.728C5.6081 121.728 0.63324 126.705 0.63324 132.845C0.63324 138.986 5.6081 143.963 11.7449 143.963Z" fill="#FAFAF0"/>
<path d="M342.997 317.218C381.03 317.218 411.861 286.37 411.861 248.317C411.861 210.264 381.03 179.416 342.997 179.416C304.965 179.416 274.133 210.264 274.133 248.317C274.133 286.37 304.965 317.218 342.997 317.218Z" fill="#FAFAF0"/>
<path d="M232.594 297.941C259.985 297.941 282.191 275.724 282.191 248.317C282.191 220.911 259.985 198.693 232.594 198.693C205.202 198.693 182.996 220.911 182.996 248.317C182.996 275.724 205.202 297.941 232.594 297.941Z" fill="#FAFAF0"/>
<path d="M122.193 278.712C138.971 278.712 152.571 265.104 152.571 248.318C152.571 231.531 138.971 217.923 122.193 217.923C105.416 217.923 91.8149 231.531 91.8149 248.318C91.8149 265.104 105.416 278.712 122.193 278.712Z" fill="#FAFAF0"/>
<path d="M11.7449 259.434C17.8817 259.434 22.8566 254.457 22.8566 248.316C22.8566 242.176 17.8817 237.199 11.7449 237.199C5.6081 237.199 0.63324 242.176 0.63324 248.316C0.63324 254.457 5.6081 259.434 11.7449 259.434Z" fill="#FAFAF0"/>
<path d="M342.997 432.737C381.03 432.737 411.861 401.889 411.861 363.836C411.861 325.783 381.03 294.935 342.997 294.935C304.965 294.935 274.133 325.783 274.133 363.836C274.133 401.889 304.965 432.737 342.997 432.737Z" fill="#FAFAF0"/>
<path d="M232.594 413.46C259.985 413.46 282.191 391.243 282.191 363.836C282.191 336.429 259.985 314.212 232.594 314.212C205.202 314.212 182.996 336.429 182.996 363.836C182.996 391.243 205.202 413.46 232.594 413.46Z" fill="#FAFAF0"/>
<path d="M122.193 394.231C138.971 394.231 152.571 380.623 152.571 363.836C152.571 347.05 138.971 333.441 122.193 333.441C105.416 333.441 91.8149 347.05 91.8149 363.836C91.8149 380.623 105.416 394.231 122.193 394.231Z" fill="#FAFAF0"/>
<path d="M11.7449 374.953C17.8817 374.953 22.8566 369.975 22.8566 363.835C22.8566 357.695 17.8817 352.717 11.7449 352.717C5.6081 352.717 0.63324 357.695 0.63324 363.835C0.63324 369.975 5.6081 374.953 11.7449 374.953Z" fill="#FAFAF0"/>
</g>
</mask>
<g mask="url(#mask0_4027_13513)">
<rect x="-44.3582" y="0.529297" width="444.157" height="356" fill="#DCFF3C"/>
</g>
<defs>
<clipPath id="clip0_4027_13513">
<rect width="352.734" height="356" fill="white" transform="translate(0.632812 0.529297)"/>
</clipPath>
</defs>
</svg>
