<svg width="24" height="25" viewBox="0 0 24 25" fill="none" xmlns="http://www.w3.org/2000/svg">
    <rect x="0.5" y="1.0293" width="23" height="23" rx="11.5" fill="#FAFAF0"/>
        <rect x="0.5" y="1.0293" width="23" height="23" rx="11.5" stroke="#FAFAF0"/>
    <path d="M12.0379 8.52905H12.1046C12.7211 8.5313 15.8449 8.5538 16.6871 8.7803C16.9418 8.84943 17.1738 8.98417 17.36 9.17106C17.5462 9.35795 17.6802 9.59044 17.7484 9.8453C17.8241 10.1303 17.8774 10.5076 17.9134 10.8968L17.9209 10.9748L17.9374 11.1698L17.9434 11.2478C17.9921 11.9333 17.9981 12.5753 17.9989 12.7156V12.7718C17.9981 12.9173 17.9914 13.6028 17.9374 14.3168L17.9314 14.3956L17.9246 14.4736C17.8871 14.9026 17.8316 15.3286 17.7484 15.6421C17.6802 15.8969 17.5462 16.1294 17.36 16.3163C17.1738 16.5032 16.9418 16.6379 16.6871 16.7071C15.8171 16.9411 12.5104 16.9576 12.0521 16.9583H11.9456C11.7139 16.9583 10.7554 16.9538 9.75038 16.9193L9.62288 16.9148L9.55763 16.9118L9.42938 16.9066L9.30113 16.9013C8.46863 16.8646 7.67588 16.8053 7.31063 16.7063C7.0561 16.6372 6.82415 16.5026 6.63792 16.3159C6.4517 16.1291 6.31773 15.8968 6.24938 15.6421C6.16613 15.3293 6.11063 14.9026 6.07313 14.4736L6.06713 14.3948L6.06113 14.3168C6.02391 13.8086 6.0034 13.2993 5.99963 12.7898L5.99963 12.6976C6.00113 12.5363 6.00713 11.9791 6.04763 11.3641L6.05288 11.2868L6.05513 11.2478L6.06113 11.1698L6.07763 10.9748L6.08513 10.8968C6.12113 10.5076 6.17438 10.1296 6.25013 9.8453C6.31836 9.59044 6.45228 9.35795 6.63851 9.17106C6.82475 8.98417 7.05676 8.84943 7.31138 8.7803C7.67663 8.6828 8.46938 8.6228 9.30188 8.5853L9.42938 8.58005L9.55838 8.57555L9.62288 8.5733L9.75113 8.56805C10.4649 8.54511 11.179 8.53235 11.8931 8.5298L12.0379 8.52905ZM10.7996 10.9366V14.5501L13.9174 12.7441L10.7996 10.9366Z" fill="#321432"/>
</svg>