<?xml version="1.0" standalone="no"?>
<!DOCTYPE svg PUBLIC "-//W3C//DTD SVG 20010904//EN"
 "http://www.w3.org/TR/2001/REC-SVG-20010904/DTD/svg10.dtd">
<svg version="1.0" xmlns="http://www.w3.org/2000/svg"
 width="700.000000pt" height="700.000000pt" viewBox="0 0 700.000000 700.000000"
 preserveAspectRatio="xMidYMid meet">
<metadata>
Created by potrace 1.14, written by Peter Selinger 2001-2017
</metadata>
<g transform="translate(0.000000,700.000000) scale(0.100000,-0.100000)"
fill="#000000" stroke="none">
<path d="M3109 6580 c-1 -101 -5 -171 -13 -225 -4 -27 -10 -66 -12 -85 -9 -62
-53 -232 -82 -320 -33 -96 -115 -281 -143 -322 -11 -14 -19 -29 -19 -33 0 -4
-25 -46 -56 -93 -235 -362 -567 -637 -954 -790 -78 -31 -221 -78 -265 -87 -23
-5 -58 -12 -95 -20 -8 -2 -19 -4 -23 -4 -5 -1 33 -33 85 -73 190 -147 302
-254 475 -450 48 -54 90 -98 94 -98 4 0 43 15 87 34 713 305 1279 910 1538
1644 42 117 96 308 108 382 3 19 8 46 11 60 16 79 37 274 42 401 l5 145 -391
0 -391 -1 -1 -65z"/>
<path d="M4120 5588 c-7 -24 -18 -56 -25 -73 -7 -16 -29 -70 -48 -120 -63
-163 -186 -400 -270 -523 -27 -40 -28 -46 -16 -70 8 -14 79 -92 159 -172 149
-150 186 -184 255 -235 22 -17 42 -32 45 -35 3 -3 30 -23 60 -45 137 -101 350
-222 500 -285 41 -18 89 -38 105 -45 37 -16 174 -65 196 -70 9 -2 47 -12 85
-23 132 -38 258 -66 351 -77 26 -3 57 -8 68 -10 109 -22 559 -22 670 0 11 2
43 7 70 10 127 15 460 97 502 123 10 6 5 32 -21 108 -98 282 -126 368 -176
532 -22 73 -35 102 -45 99 -76 -30 -283 -79 -380 -91 -256 -32 -505 -21 -725
30 -36 9 -72 17 -80 19 -8 2 -53 15 -100 30 -392 125 -735 367 -991 700 -54
71 -159 232 -159 245 0 5 -4 11 -10 15 -5 3 -14 -14 -20 -37z"/>
<path d="M350 4501 c-29 -97 -82 -259 -117 -360 -66 -194 -71 -211 -51 -211 7
0 61 -18 121 -41 475 -178 869 -533 1096 -986 113 -225 181 -453 209 -698 8
-74 8 -339 0 -417 -3 -32 -5 -58 -3 -58 1 0 52 33 113 74 175 116 384 227 577
307 l90 36 0 49 c1 68 -35 333 -50 377 -3 7 -6 23 -9 37 -10 57 -48 194 -82
291 -247 716 -769 1300 -1449 1625 -129 61 -301 130 -361 144 l-32 7 -52 -176z"/>
<path d="M5000 3428 c-106 -179 -204 -398 -264 -593 -27 -84 -71 -266 -81
-325 -3 -19 -7 -46 -10 -60 -9 -48 -14 -85 -20 -155 -4 -38 -9 -83 -11 -100
-6 -45 -6 -343 0 -395 3 -25 8 -76 11 -113 4 -37 8 -76 10 -85 1 -9 6 -37 9
-62 46 -303 175 -664 338 -948 79 -137 189 -293 201 -285 11 6 119 87 142 106
40 32 226 168 339 246 75 52 136 96 136 99 0 2 -15 25 -34 51 -81 111 -184
301 -240 443 -29 74 -91 284 -100 338 -3 19 -10 59 -16 88 -28 150 -31 465 -5
617 54 309 147 556 300 795 51 79 175 241 213 276 12 12 22 24 22 27 0 2 -42
6 -92 6 -51 1 -109 4 -128 5 -19 2 -69 7 -110 10 -41 4 -91 9 -110 12 -19 3
-51 7 -70 10 -19 2 -42 6 -50 9 -8 2 -32 6 -52 9 -43 7 -199 41 -244 55 -31 9
-31 8 -84 -81z"/>
<path d="M3368 1955 c-2 -1 -46 -5 -98 -9 -52 -3 -104 -8 -115 -10 -17 -3 -55
-9 -140 -21 -11 -2 -74 -15 -140 -30 -503 -114 -976 -373 -1350 -740 -134
-132 -325 -362 -325 -391 0 -7 10 -19 22 -25 52 -28 532 -375 576 -416 7 -7
17 -13 22 -13 5 0 39 39 76 88 63 81 218 243 291 305 71 59 198 149 277 195
98 58 263 139 303 148 15 4 33 10 38 14 27 21 326 96 420 105 22 3 66 7 97 10
76 9 278 9 358 1 219 -22 509 -100 661 -177 l37 -18 -15 47 c-81 259 -128 516
-147 802 -3 40 -6 45 -32 51 -83 19 -177 39 -206 44 -18 3 -40 7 -48 10 -8 2
-46 6 -83 10 -37 3 -78 8 -90 11 -23 5 -384 13 -389 9z"/>
</g>
</svg>
