<?xml version="1.0" encoding="UTF-8"?>
<svg width="24px" height="24px" viewBox="0 0 24 24" version="1.1" xmlns="http://www.w3.org/2000/svg" xmlns:xlink="http://www.w3.org/1999/xlink">
    <title>03 Icon/04 Flag/Australia</title>
    <g id="03-Icon/04-Flag/Australia" stroke="none" stroke-width="1" fill="none" fill-rule="evenodd">
        <g id="flag-australia" transform="translate(3.000000, 3.000000)">
            <path d="M14.0625,0 L3.9375,0 C1.762875,0 0,1.762875 0,3.9375 L0,14.0625 C0,16.237125 1.762875,18 3.9375,18 L14.0625,18 C16.237125,18 18,16.237125 18,14.0625 L18,3.9375 C18,1.762875 16.237125,0 14.0625,0 Z" id="Path" fill="#41479B"></path>
            <g id="Group" transform="translate(3.000000, 3.000000)" fill="#F5F5F5">
                <path d="M2.09436198,9.07174419 L2.42587975,10.1928254 L3.48820619,9.75932732 C3.57884398,9.72233164 3.66123486,9.82823378 3.6058907,9.91051313 L2.9569648,10.8750033 L3.95015013,11.4555632 C4.0348861,11.505091 4.00545521,11.6370983 3.90813391,11.644065 L2.76744232,11.7256637 L2.94359778,12.88306 C2.95860636,12.9817952 2.8395148,13.0405719 2.77353956,12.9669409 L1.99997205,12.1042288 L1.2264827,12.9669409 C1.16050746,13.0405318 1.04137681,12.9817952 1.05642448,12.88306 L1.23257994,11.7256637 L0.0918492685,11.644025 C-0.00547202845,11.6370583 -0.0348638418,11.505051 0.0498330459,11.4555232 L1.04301838,10.8749633 L0.394092477,9.91047309 C0.338748318,9.82819374 0.421139199,9.72233164 0.511776985,9.75928728 L1.57406435,10.1927854 L1.90558211,9.07170415 C1.93387955,8.97609194 2.06606454,8.97609194 2.09436198,9.07174419 Z" id="Path"></path>
                <path d="M11.0471295,0.0358691561 L11.2128829,0.596415648 L11.74407,0.379663901 C11.7893992,0.361181194 11.8306075,0.414088455 11.8029219,0.455233994 L11.4784565,0.937464625 L11.9750766,1.22773738 C12.0174451,1.25249028 12.0027222,1.31851166 11.9540724,1.32199509 L11.3836774,1.36281278 L11.4717751,1.94151412 C11.4792966,1.99089697 11.4197246,2.0202398 11.386758,1.9834793 L11,1.55210685 L10.613242,1.9834793 C10.5802354,2.02028078 10.5207034,1.99089697 10.5282249,1.94151412 L10.6163226,1.36281278 L10.0459276,1.32199509 C9.99727782,1.31851166 9.98255485,1.25249028 10.0249234,1.22773738 L10.5215435,0.937464625 L10.1970781,0.455233994 C10.1693925,0.414088455 10.2106008,0.361181194 10.25593,0.379663901 L10.7871171,0.596415648 L10.9528705,0.0358691561 C10.9669133,-0.0119563854 11.0330067,-0.0119563854 11.0471295,0.0358691561 Z" id="Path"></path>
                <path d="M8.0471295,4.03586916 L8.21288292,4.59641565 L8.74407003,4.3796639 C8.78939917,4.36118119 8.83060747,4.41408846 8.80292189,4.45523399 L8.47845647,4.93746463 L8.9750766,5.22773738 C9.01744515,5.25249028 9.00272218,5.31851166 8.95407237,5.32199509 L8.38367736,5.36281278 L8.47177512,5.94151412 C8.47929664,5.99089697 8.41972463,6.02028078 8.38675798,5.9834793 L8,5.55210685 L7.61324202,5.9834793 C7.58023536,6.02028078 7.52070336,5.99089697 7.52822488,5.94151412 L7.61632264,5.36281278 L7.04592763,5.32199509 C6.99727782,5.31851166 6.98255485,5.25249028 7.0249234,5.22773738 L7.52154353,4.93746463 L7.19707811,4.45523399 C7.16939253,4.41408846 7.21060083,4.36114021 7.25592997,4.3796639 L7.78711708,4.59641565 L7.9528705,4.03586916 C7.96687332,3.98804361 8.03296665,3.98804361 8.0471295,4.03586916 Z" id="Path"></path>
                <path d="M14.0471295,2.03583921 L14.2128829,2.59639806 L14.74407,2.37964153 C14.7893992,2.36115842 14.8306075,2.41406684 14.8029219,2.45521329 L14.4784565,2.93745455 L14.9750766,3.22773371 C15.0174451,3.25248715 15.0027222,3.31850998 14.9540724,3.32199349 L14.3836774,3.36281208 L14.4717751,3.94152618 C14.4792966,3.99091011 14.4197246,4.02029457 14.386758,3.98345129 L14,3.55211032 L13.613242,3.98345129 C13.5802354,4.02025359 13.5207034,3.99086913 13.5282249,3.94152618 L13.6163226,3.36281208 L13.0459276,3.32199349 C12.9972778,3.31850998 12.9825549,3.25248715 13.0249234,3.22773371 L13.5215435,2.93745455 L13.1970781,2.45521329 C13.1693925,2.41406684 13.2106008,2.36111743 13.25593,2.37964153 L13.7871171,2.59639806 L13.9528705,2.03583921 C13.9668733,1.9880536 14.0329666,1.9880536 14.0471295,2.03583921 Z" id="Path"></path>
                <path d="M11.0471295,10.0358692 L11.2128829,10.5964156 L11.74407,10.3796639 C11.7893992,10.3611812 11.8306075,10.4140885 11.8029219,10.455234 L11.4784565,10.9374646 L11.9750766,11.2277374 C12.0174451,11.2524903 12.0027222,11.3185117 11.9540724,11.3219951 L11.3836774,11.3628128 L11.4717751,11.9415141 C11.4792966,11.990897 11.4197246,12.0202808 11.386758,11.9834793 L11,11.5521478 L10.613242,11.9834793 C10.5802354,12.0202808 10.5207034,11.990897 10.5282249,11.9415141 L10.6163226,11.3628128 L10.0459276,11.3219951 C9.99727782,11.3185117 9.98255485,11.2524903 10.0249234,11.2277374 L10.5215435,10.9374646 L10.1970781,10.455234 C10.1693925,10.4140885 10.2106008,10.3611402 10.25593,10.3796639 L10.7871171,10.5964156 L10.9528705,10.0358692 C10.9669133,9.98804361 11.0330067,9.98804361 11.0471295,10.0358692 Z" id="Path"></path>
                <path d="M11.459494,6.03056731 L11.3592632,6.34519921 L11.0424483,6.34775437 C11.0014338,6.34810137 10.9844073,6.40289539 11.0174057,6.42838392 L11.2722921,6.62541529 L11.1767323,6.94162445 C11.1643767,6.98257013 11.2088869,7.01641813 11.2422469,6.99146587 L11.5,6.79859848 L11.7577454,6.99146587 C11.7911055,7.01644968 11.8356458,6.98257013 11.8232601,6.94162445 L11.7277003,6.62541529 L11.9825867,6.42838392 C12.0155851,6.40286385 11.9985887,6.34806982 11.9575441,6.34775437 L11.640699,6.34519921 L11.5404682,6.03056731 C11.5275099,5.9898109 11.4724523,5.9898109 11.459494,6.03056731 Z" id="Path"></path>
            </g>
            <g id="Group" fill="#41479B">
                <path d="M3,-1.1379786e-15 C2.20708779,0.156167963 1.506425,0.656024883 1,1.37288958 L3,3 L3,-1.1379786e-15 Z" id="Path"></path>
                <path d="M0.14685771,3 C0.0802536799,3.3196993 0.0306660403,3.65419993 -8.20871149e-15,4 L1,4 L0.14685771,3 Z" id="Path"></path>
                <polygon id="Path" points="0 6 0 7 1 6"></polygon>
                <polygon id="Path" points="9 0.732921609 9 0 6 0 6 3"></polygon>
                <polygon id="Path" points="9 7 9 6 8 6"></polygon>
                <polygon id="Path" points="6 9 9 9 9 8.26707839 6 6"></polygon>
                <polygon id="Path" points="9 3 9 2 8 3"></polygon>
                <polygon id="Path" points="3 6 0 8.26707839 0 9 3 9"></polygon>
            </g>
            <g id="Group" fill="#F5F5F5">
                <polygon id="Path" points="5 9 5.50000928 9 5.50000928 5.96558122 9 8.25866964 9 7.51782169 5.89143705 5.50000928 6.80981538 5.50000928 9 6.9216996 9 6.46547917 7.52639391 5.50000928 9 5.50000928 9 5 5 5"></polygon>
                <polygon id="Path" points="3.50002319 9 4 9 4 5 0 5 0 5.50000928 1.47361976 5.50000928 0 6.46547917 0 7.16688004 2.56786871 5.50000928 3.48625555 5.50000928 0 7.76300213 0 8.25866964 3.50002319 5.96558122"></polygon>
                <path d="M4,2.16016441e-15 C3.83042255,0.00627651969 3.6634077,0.0225806152 3.49958683,0.048578034 L3.49958683,3.0336388 L1.02849503,1.41463098 C0.879752653,1.58420843 0.744640354,1.76596752 0.624717974,1.958237 L2.99921079,3.49958683 L2.08009062,3.49958683 L0.385318886,2.39945034 C0.338857785,2.49898332 0.296184879,2.60055894 0.257560142,2.70417723 L1.47160246,3.49958683 L0.048578034,3.49958683 C0.0225806152,3.6634077 0.00627651969,3.83038541 -1.91032086e-14,4 L4,4 L4,2.16016441e-15 Z" id="Path"></path>
                <polygon id="Path" points="9 4 9 3.49999072 7.52639391 3.49999072 9 2.53452083 9 1.82417664 6.41838761 3.49999072 5.50000928 3.49999072 9 1.22801744 9 0.741330365 5.50000928 3.03441878 5.50000928 0 5 0 5 4"></polygon>
            </g>
            <g id="Group" fill="#FF4B55">
                <path d="M3.78945703,9 L5.21050781,9 L5.21050781,5.21050781 L9,5.21050781 L9,3.78949219 L5.21050781,3.78949219 L5.21050781,0 L3.9375,0 C3.88789453,0 3.83860547,0.00123046875 3.78945703,0.00305859375 L3.78945703,3.78949219 L0.00305859375,3.78949219 C0.00123046875,3.83864063 0,3.88789453 0,3.9375 L0,5.21050781 L3.78945703,5.21050781 L3.78945703,9 Z" id="Path"></path>
                <polygon id="Path" points="2.20970781 6 0 7.47315601 0 8 3 6"></polygon>
                <polygon id="Path" points="6 6 9 8 9 7.40914023 6.88630503 6"></polygon>
                <path d="M2,3 L0.18320025,2 C0.115626154,2.09187509 0.0543889063,2.18741265 -5.45674617e-14,2.28625126 L1.29675201,3 L2,3 Z" id="Path"></path>
                <polygon id="Path" points="6.78718351 3 9 1.5247942 9 1 6 3"></polygon>
            </g>
        </g>
    </g>
</svg>