<?xml version="1.0" encoding="UTF-8"?>
<svg xmlns="http://www.w3.org/2000/svg" version="1.1" viewBox="0 0 65 65">
  <defs>
    <style>
      .cls-1 {
        fill: #c8d2d2;
      }
    </style>
  </defs>
  <!-- Generator: Adobe Illustrator 28.6.0, SVG Export Plug-In . SVG Version: 1.2.0 Build 709)  -->
  <g>
    <g id="Layer_2">
      <path class="cls-1" d="M32.5,57.4c13.8,0,25-11.2,25-25S46.3,7.4,32.5,7.4,7.5,18.7,7.5,32.4s11.2,25,25,25ZM32.5,52.4c-8.4,0-15.5-5.2-18.5-12.5h11v-11l-3.9-3.9,2.4-2.6h4v-9.3c1.6-.4,3.3-.7,5-.7v6.5l-5,5v7.1l4,4h1v10h15v-9l2.5-2.5v-2.5l2.2-2.2c.2,1.2.3,2.4.3,3.6,0,11-9,20-20,20ZM50.4,23.5l-5.4,5.4v2.5l-2.5,2.5v6h-5v-10h-4l-1-1v-2.9l5-5v-7.9c5.6,1.5,10.3,5.3,12.9,10.4ZM22.5,15.1v2.3h-1.2l-7.1,7.7,5.8,5.8v4h-2.5v-3.5l-4.3-4.3c1.4-5.1,4.8-9.4,9.3-12Z"/>
    </g>
  </g>
</svg>