<?xml version="1.0" encoding="UTF-8"?>
<svg width="24px" height="24px" viewBox="0 0 24 24" version="1.1" xmlns="http://www.w3.org/2000/svg" xmlns:xlink="http://www.w3.org/1999/xlink">
    <title>03 Icon/04 Flag/Hongkong</title>
    <g id="03-Icon/04-Flag/Hongkong" stroke="none" stroke-width="1" fill="none" fill-rule="evenodd">
        <g id="flag-hong-kong-copy" transform="translate(3.000000, 3.000000)">
            <path d="M14.0625,0 L3.9375,0 C1.762875,0 0,1.762875 0,3.9375 L0,14.0625 C0,16.237125 1.762875,18 3.9375,18 L14.0625,18 C16.237125,18 18,16.237125 18,14.0625 L18,3.9375 C18,1.762875 16.237125,0 14.0625,0 Z" id="Path" fill="#FF4B55"></path>
            <g id="Group" transform="translate(5.000000, 5.000000)" fill="#F5F5F5" fill-rule="nonzero">
                <path d="M3.14725138,4.59630381 C2.67408845,4.60058057 2.1428431,4.46723261 1.67727265,4.01560032 C1.64515649,3.98446018 1.64967401,3.93541112 1.68611788,3.90821362 L1.68626973,3.90807997 C1.72165065,3.88168435 1.77396279,3.88579405 1.80516786,3.91596524 C2.5147604,4.60181682 3.39431045,4.48173349 3.91974756,4.31600913 C3.72560802,4.32359369 3.48169982,4.31076342 3.32480136,4.21998256 C2.66938112,3.84082127 2.96624682,3.43740275 2.53093237,2.94975215 C2.09838917,2.4652423 1.709199,2.47710362 1.09633456,2.55882978 C0.489620032,2.63975405 0.296315665,2.2480632 0.236183278,2.03065022 C0.225401966,1.99172504 0.163713122,1.98925254 0.147920777,2.02680782 C-0.60828955,3.82505073 1.66554228,6.05010067 4,4.45025922 C3.76975825,4.52496883 3.4730444,4.59336354 3.14725138,4.59630381 Z M1.53105854,3.97081936 C1.51701628,4.01085682 1.46197062,4.00931532 1.45005476,3.96852794 L1.35801779,3.6536027 L1.04126455,3.64206225 C1.00026116,3.64056241 0.98469431,3.58573483 1.01835561,3.5613624 L1.278338,3.37313218 L1.19103527,3.05674876 C1.17972122,3.01579474 1.2251379,2.9834648 1.25787642,3.00917043 L1.51059696,3.20777456 L1.77334768,3.02375223 C1.80737007,2.9999214 1.85102143,3.03479274 1.83758098,3.07503851 L1.73378863,3.38600583 L1.98350011,3.58865119 C2.01583743,3.61489844 1.99738189,3.66876777 1.95637849,3.66793453 L1.63950489,3.66151854 L1.53105854,3.97081936 Z" id="Shape"></path>
                <path d="M4.49234019,3.03295281 C4.80967597,2.79874354 5.24545555,2.63803957 5.82003948,2.7450519 C5.85967038,2.75243953 5.88484049,2.79092317 5.87586262,2.82888133 L5.87583055,2.82903588 C5.86710919,2.86585035 5.82940212,2.88835323 5.79092552,2.88124381 C4.91660886,2.72001435 4.39127498,3.23841526 4.13149379,3.61768776 C4.25833832,3.51725937 4.43058524,3.40768146 4.58885233,3.39825374 C5.25004068,3.3589046 5.28155943,3.80253288 5.85646399,3.95093445 C6.42764916,4.0984087 6.68387126,3.89959202 7.0510663,3.53979316 C7.414574,3.18361085 7.77061083,3.37921283 7.93638086,3.51076815 C7.96607197,3.534322 8.00919783,3.50600793 7.99826406,3.4704917 C7.47446925,1.77000938 4.65705211,1.23315487 4,3.55744309 C4.11264025,3.38975333 4.27382515,3.19424408 4.49234019,3.03295281 Z M6.18321091,3.05764118 C6.17129759,3.01668376 6.21626337,2.98350784 6.24931582,3.0088186 L6.50479041,3.2043181 L6.7648378,3.01551236 C6.79853205,2.99108015 6.84265547,3.02538565 6.82977945,3.06600837 L6.73046165,3.37982 L6.98300805,3.57941941 C7.01569949,3.60523221 6.99805013,3.65961897 6.95701535,3.65945163 L6.64016909,3.6579037 L6.53619827,3.97008371 C6.52272057,4.01049726 6.46768663,4.00978605 6.45521174,3.96903782 L6.35870178,3.65426397 L6.04189564,3.64761205 C6.00090097,3.64673349 5.98453519,3.59192837 6.01782832,3.56695229 L6.27502774,3.37396296 L6.18321091,3.05764118 Z" id="Shape"></path>
                <path d="M2.68688494,3.37041506 C2.54339433,2.99238083 2.4951607,2.51605835 2.72641054,1.97310146 C2.74235066,1.93565048 2.78376546,1.92086113 2.81676741,1.93993247 L2.81691501,1.94003129 C2.84894284,1.95850974 2.86107505,2.00202139 2.84563674,2.03841834 C2.49524926,2.8650409 2.85357729,3.52575265 3.14445499,3.88520961 C3.08081257,3.73227653 3.01914792,3.53174744 3.04686602,3.37183141 C3.16272709,2.70370853 3.58018116,2.79060008 3.84977585,2.25834817 C4.11765845,1.72955479 3.99282368,1.42171233 3.74468912,0.960607402 C3.49906365,0.504113855 3.76189855,0.202134431 3.92171303,0.0723241226 C3.95031669,0.0491025373 3.93408138,-0.00135912034 3.89871792,2.80257098e-05 C2.20578845,0.0678115592 1.06066783,2.72696305 3.05846689,4 C2.92932238,3.84314725 2.78568417,3.63072739 2.68688494,3.37041506 Z M3.04459222,1.68029885 C3.0035565,1.68203893 2.9840023,1.62888372 3.01580298,1.60207824 L3.261415,1.39500906 L3.1510763,1.08817545 C3.13678205,1.04844369 3.17974508,1.01281354 3.21427612,1.03572455 L3.48100828,1.21279812 L3.72975219,1.00970626 C3.76195438,0.983397946 3.8080493,1.01455361 3.79760968,1.05552829 L3.71682312,1.37201518 L3.98086508,1.55331465 C4.01507489,1.57680569 4.00062004,1.63165955 3.95962448,1.63406252 L3.64294277,1.65262334 L3.55741823,1.96778446 C3.54633618,2.00859341 3.49132744,2.01136925 3.47643091,1.97188607 L3.36147469,1.6668754 L3.04459222,1.68029885 Z" id="Shape"></path>
                <path d="M4.61029822,4.31870206 C4.90279844,4.55679485 5.16415201,4.93928399 5.2306474,5.55351996 C5.23521861,5.59590563 5.20867156,5.63445658 5.17306728,5.63849492 L5.17289692,5.63852886 C5.13837156,5.6424654 5.10824705,5.61233051 5.10373263,5.57120045 C5.00117868,4.63708669 4.40300409,4.28795632 4,4.15774509 C4.12285464,4.25055919 4.26632227,4.38586078 4.3185646,4.54162559 C4.53676147,5.19244423 4.15868605,5.37708831 4.18915128,6.00591662 C4.21941775,6.63070659 4.46404811,6.81959263 4.87994242,7.06447256 C5.29163464,7.30690912 5.22011376,7.7321233 5.15148893,7.94405167 C5.13919495,7.98199177 5.17587814,8.0155881 5.20381643,7.99234216 C6.54104953,6.87962486 6.22563651,3.8635566 4.01595662,4.00479694 C4.19355213,4.06021392 4.40888135,4.15472481 4.61029822,4.31870206 Z M5.76184261,6.01251485 C5.79537292,5.98783653 5.8396923,6.02198395 5.82701816,6.06275137 L5.72931499,6.37757808 L5.98283788,6.57609404 C6.01564626,6.60177794 5.99827948,6.65637192 5.95724896,6.65637192 L5.64043558,6.65658141 L5.53803977,6.96981597 C5.52480411,7.0103739 5.46973578,7.00995491 5.45706164,6.96918749 L5.35895739,6.65448648 L5.04214401,6.64958433 C5.00111349,6.64895585 4.98446866,6.59415238 5.01767811,6.56892937 L5.27388824,6.37418429 L5.18047663,6.05793302 C5.16840411,6.01699801 5.21316468,5.98352096 5.24633402,6.00870207 L5.5027848,6.20307006 L5.76184261,6.01251485 Z" id="Shape"></path>
                <path d="M4.69439258,4.76901025 C4.55956348,5.17282934 4.25810702,5.58506345 3.63012023,5.84657087 C3.58681079,5.86461751 3.53483947,5.84616532 3.51603406,5.80706425 L3.51595808,5.80689528 C3.49772253,5.76894324 3.51759168,5.72565157 3.55957144,5.70807805 C4.51393661,5.30871993 4.64272519,4.5247046 4.61753733,4.0282866 C4.56856728,4.19570812 4.48270823,4.39939192 4.33784957,4.50581307 C3.73265721,4.950423 3.38181281,4.5776955 2.72362338,4.80277168 C2.06965092,5.02639465 1.96783576,5.36103493 1.87601217,5.90679395 C1.78510034,6.44704435 1.30254207,6.494797 1.04857403,6.48121132 C1.00309912,6.47877806 0.982242213,6.53055234 1.01840939,6.55515526 C2.74945708,7.73420293 5.83741973,6.46262395 4.78712796,4 C4.80038672,4.21818195 4.78724193,4.49094317 4.69439258,4.76901025 Z M3.98297878,6.57918733 C4.01570977,6.60500283 3.99806071,6.6593953 3.95702663,6.65922794 L3.64018581,6.65780537 L3.536297,6.97005999 C3.52285965,7.01047778 3.46778654,7.00980833 3.45531187,6.96905582 L3.35872335,6.65429078 L3.04192264,6.64772184 C3.00092868,6.64688504 2.98452307,6.59207416 3.01781563,6.56705363 L3.27497052,6.37396036 L3.18303494,6.05764723 C3.17112182,6.01668551 3.21604671,5.98350611 3.2491387,6.00881953 L3.50468913,6.20425585 L3.76469194,6.01530478 C3.7983455,5.99087001 3.84250827,6.02517911 3.82963248,6.0658061 L3.73043671,6.37969249 L3.98297878,6.57918733 Z" id="Shape"></path>
            </g>
        </g>
    </g>
</svg>