<svg width="65" height="65" viewBox="0 0 65 65" fill="none" xmlns="http://www.w3.org/2000/svg">
<path d="M26.5 49.2C23.5 52.2 23.5 57 26.5 59.9M15.7 38.4C12.7 41.4 7.9 41.4 5 38.4" stroke="#2E1630" stroke-width="5" stroke-miterlimit="10"/>
<path d="M52.5 12.5H39.7M15.7 49.2L19.2 45.7" stroke="#2E1630" stroke-width="5" stroke-miterlimit="10" stroke-linecap="square"/>
<path d="M22.8 27.8L38.9001 11.8" stroke="#2E1630" stroke-width="5" stroke-miterlimit="10"/>
<path d="M21.1 36.8L28.5 44.1" stroke="#2E1630" stroke-width="5" stroke-miterlimit="10" stroke-linecap="square"/>
<path d="M42.5 26C41.5 27 39.9 27 38.9 26C37.9 25 37.9 23.4 38.9 22.4C39.9 21.4 41.5 21.4 42.5 22.4C43.5 23.4 43.5 25 42.5 26Z" fill="#2E1630"/>
<path d="M40.7 26.7C42.0807 26.7 43.2 25.5807 43.2 24.2C43.2 22.8193 42.0807 21.7 40.7 21.7C39.3192 21.7 38.2 22.8193 38.2 24.2C38.2 25.5807 39.3192 26.7 40.7 26.7Z" stroke="#2E1630" stroke-miterlimit="10"/>
<path d="M52.5 12.5V26.7L37.1 42.1M19.3 27.8C16.3 24.8 11.5 24.8 8.6 27.8M26.4 20.6C23.4 17.6 18.6 17.6 15.7 20.6M8.5 27.8L15.6 20.7M37.1 45.6C40.1 48.6 40.1 53.4 37.1 56.3L44.2 49.2M44.3 38.5C47.3 41.5 47.3 46.3 44.3 49.2" stroke="#2E1630" stroke-width="5" stroke-miterlimit="10"/>
</svg>