<svg width="65" height="66" viewBox="0 0 65 66" fill="none" xmlns="http://www.w3.org/2000/svg">
<path d="M14.7 58C20.2228 58 24.7 53.5228 24.7 48C24.7 42.4772 20.2228 38 14.7 38C9.1771 38 4.69995 42.4772 4.69995 48C4.69995 53.5228 9.1771 58 14.7 58Z" stroke="#321432" stroke-width="5" stroke-miterlimit="10"/>
<path d="M42.2 58C44.9614 58 47.2 55.7614 47.2 53C47.2 50.2386 44.9614 48 42.2 48C39.4385 48 37.2 50.2386 37.2 53C37.2 55.7614 39.4385 58 42.2 58Z" stroke="#321432" stroke-width="5" stroke-miterlimit="10"/>
<path d="M4.69995 48V30.5H12.2" stroke="#321432" stroke-width="5" stroke-miterlimit="10"/>
<path d="M29.7 23V31.3" stroke="#321432" stroke-width="5" stroke-miterlimit="10"/>
<path d="M47.2 50.5H49.7V40.5L39.7 30.5H32.0999H4.69995V13H9.69995H19.7" stroke="#321432" stroke-width="5" stroke-miterlimit="10"/>
<path d="M42.2 33V25.5H52.2V15.5" stroke="#321432" stroke-width="5" stroke-miterlimit="10"/>
<path d="M19.7 13C25.2 13 29.7 17.5 29.7 23" stroke="#321432" stroke-width="5" stroke-miterlimit="10"/>
<path d="M60.2 35.7001C55.2 36.3001 51.7 32.7 52.2 27.8" stroke="#321432" stroke-width="5" stroke-miterlimit="10"/>
</svg>
