<?xml version="1.0" encoding="UTF-8"?>
<svg width="24px" height="24px" viewBox="0 0 24 24" version="1.1" xmlns="http://www.w3.org/2000/svg" xmlns:xlink="http://www.w3.org/1999/xlink">
    <title>03 Icon/04 Flag/Malaysia</title>
    <g id="03-Icon/04-Flag/Malaysia" stroke="none" stroke-width="1" fill="none" fill-rule="evenodd">
        <g id="flag-malasya" transform="translate(3.000000, 3.000000)">
            <path d="M14.0795955,0 L3.92043979,0 C2.76338956,0 1.72256995,0.385606081 1,1 L17,1 C16.2774653,0.385606081 15.2366457,0 14.0795955,0 Z" id="Path" fill="#FF4B55"></path>
            <path d="M17.19493,1 L0.805106164,1 C0.457784211,1.28833534 0.182333185,1.62706442 -5.2846616e-14,2 L18,2 C17.8177029,1.62706442 17.5422519,1.28833534 17.19493,1 Z" id="Path" fill="#F5F5F5"></path>
            <path d="M17.7574296,3 L0.242570447,3 C0.0939129823,3.31248804 0.00903617988,3.64901151 5.32993788e-15,4 L18,4 C17.9909638,3.64901151 17.906087,3.31248804 17.7574296,3 Z" id="Path" fill="#FF4B55"></path>
            <path d="M0.00101953125,4 C0.0004921875,4.02080827 0,4.04161654 0,4.06250684 L0,5 L18,5 L18,4.06250684 C18,4.04161654 17.9995078,4.02080827 17.9989805,4 L0.00101953125,4 Z" id="Path" fill="#F5F5F5"></path>
            <rect id="Rectangle" fill="#FF4B55" x="0" y="5" width="18" height="1"></rect>
            <rect id="Rectangle" fill="#F5F5F5" x="0" y="6" width="18" height="1"></rect>
            <rect id="Rectangle" fill="#FF4B55" x="0" y="7" width="18" height="1"></rect>
            <polygon id="Path" fill="#F5F5F5" points="0 9.36842393 0.473695313 9.36842393 0.473800781 10 18 10 18 9 0 9"></polygon>
            <polygon id="Path" fill="#FF4B55" points="0.473695313 9 0 9 0 9.77420436 0 11 18 11 18 9.77420436 0.473800781 9.77420436"></polygon>
            <rect id="Rectangle" fill="#F5F5F5" x="0" y="12" width="18" height="1"></rect>
            <path d="M0,13.9374932 C0,13.9583835 0.0004921875,13.9791917 0.00101953125,14 L17.9989805,14 C17.9995078,13.9791917 18,13.9584108 18,13.9374932 L18,13 L0,13 L0,13.9374932 Z" id="Path" fill="#FF4B55"></path>
            <path d="M0.242570921,15 L17.7574291,15 C17.9060868,14.687512 17.9909638,14.3509885 18,14 L5.32993788e-15,14 C0.00903619753,14.3509885 0.0939131658,14.687512 0.242570921,15 Z" id="Path" fill="#F5F5F5"></path>
            <path d="M0.805106164,16 L17.1948938,16 C17.5422158,15.7116568 17.8176668,15.3729184 18,15 L-5.2846616e-14,15 C0.182333185,15.3729184 0.457784211,15.7116568 0.805106164,16 Z" id="Path" fill="#FF4B55"></path>
            <path d="M3.92043335,18 L14.0795666,18 C15.2366143,18 16.2774316,17.6143939 17,17 L1,17 C1.72256836,17.6143939 2.76338567,18 3.92043335,18 Z" id="Path" fill="#F5F5F5"></path>
            <path d="M10,0 L3.82748119,0 C1.71356696,0.000375977113 0,1.71414802 0,3.82813061 L0,10 L10,10 L10,0 Z" id="Path" fill="#41479B"></path>
            <g id="Group" transform="translate(1.000000, 2.000000)" fill="#FFE15A">
                <path d="M1.06313879,2.99994335 C1.06313879,1.55027436 2.31412575,0.374322835 3.85396016,0.374322835 C4.24138224,0.374322835 4.6098054,0.44893668 4.94529945,0.583361622 C4.98886228,0.60079819 5.0216496,0.543787612 4.98251749,0.518749633 C4.42736611,0.163283677 3.74850904,-0.031419116 3.02034694,0.00415415119 C1.4194395,0.0824353427 0.110392389,1.29526038 0.00689078982,2.79993957 C-0.113482988,4.55013098 1.35896904,6 3.19023843,6 C3.85201064,6 4.46720713,5.80819774 4.97808677,5.48300407 C5.01743156,5.45796609 4.98482147,5.40082216 4.94108141,5.41825873 C4.60668617,5.5516168 4.23975174,5.62563054 3.85396016,5.62563054 C2.31412575,5.62563054 1.06313879,4.44967901 1.06313879,2.99994335" id="Path"></path>
                <path d="M7.66696354,3.49884833 L8.96181601,3.01050247 C9.02584675,2.98635058 9.00402339,2.8931933 8.93559686,2.89853933 L7.55208944,3.00652139 L8.50286422,2.01595277 C8.54973969,1.96711818 8.48866542,1.89246345 8.42938058,1.92616993 L7.22777336,2.60939915 L7.64249493,1.31687506 C7.66295676,1.25306402 7.57469082,1.21166079 7.53633461,1.26709259 L6.75843505,2.39025015 L6.55887388,1.04968769 C6.54903198,0.983488012 6.45100193,0.983412181 6.44104332,1.04961186 L6.31356536,1.89784738 L6.26066025,2.25678917 L6.24031513,2.39025015 L5.46241557,1.26807838 C5.42398156,1.21264658 5.33571562,1.25412565 5.35629415,1.31793668 L5.77257175,2.60939915 L4.57104234,1.92616993 C4.5117575,1.89246345 4.45068322,1.96708027 4.4975587,2.01595277 L5.44829457,3.00652139 L4.06443705,2.89853933 C3.99597162,2.8931933 3.97414826,2.9863885 4.0382179,3.01050247 L5.33423739,3.49881042 L4.038179,3.9872321 C3.97414826,4.01138399 3.99593272,4.10454127 4.06439815,4.09919525 L5.44829457,3.99121318 L4.4975198,4.9842842 C4.45068322,5.03319462 4.5119131,5.10773561 4.57112014,5.0739533 L5.77257175,4.38833543 L5.35629415,5.6797979 C5.33571562,5.74360893 5.42402046,5.78512591 5.46241557,5.72969411 L6.24027622,4.60748442 L6.26062135,4.74409235 L6.31352646,5.09988719 L6.44100442,5.9503597 C6.45092413,6.0165973 6.54899308,6.01652147 6.55883498,5.95028387 L6.75839615,4.60748442 L7.53629571,5.73064198 C7.57469082,5.78607379 7.66295676,5.74467055 7.64245603,5.68085952 L7.22773446,4.38833543 L8.42926388,5.0739533 C8.48847091,5.10773561 8.54970079,5.03319462 8.50286422,4.9842842 L7.55205054,3.99121318 L8.93559686,4.09919525 C9.00402339,4.10454127 9.02588565,4.01138399 8.96181601,3.9872321 L7.66696354,3.49884833 Z" id="Path"></path>
            </g>
        </g>
    </g>
</svg>