<?xml version="1.0" encoding="UTF-8"?>
<svg width="24px" height="24px" viewBox="0 0 24 24" version="1.1" xmlns="http://www.w3.org/2000/svg" xmlns:xlink="http://www.w3.org/1999/xlink">
    <title>03 Icon/04 Flag/New Zealand</title>
    <g id="03-Icon/04-Flag/New-Zealand" stroke="none" stroke-width="1" fill="none" fill-rule="evenodd">
        <g id="flag-new-zealand" transform="translate(3.000000, 3.000000)">
            <g id="Group" fill="#41479B">
                <path d="M14.0625,0 L3.9375,0 C1.762875,0 0,1.762875 0,3.9375 L0,14.0625 C0,16.237125 1.762875,18 3.9375,18 L14.0625,18 C16.237125,18 18,16.237125 18,14.0625 L18,3.9375 C18,1.762875 16.237125,0 14.0625,0 Z" id="Path"></path>
                <path d="M3,-1.1379786e-15 C2.20708779,0.156167963 1.506425,0.656024883 1,1.37288958 L3,3 L3,-1.1379786e-15 Z" id="Path"></path>
                <path d="M0.146835443,3 C0.0802557745,3.3196993 0.0306407412,3.65419993 2.72837308e-14,4 L1,4 L0.146835443,3 Z" id="Path"></path>
                <polygon id="Path" points="0 6 0 7 1 6"></polygon>
                <polygon id="Path" points="9 0.732921609 9 0 6 0 6 3"></polygon>
                <polygon id="Path" points="9 7 9 6 8 6"></polygon>
                <polygon id="Path" points="6 9 9 9 9 8.26707839 6 6"></polygon>
                <polygon id="Path" points="9 3 9 2 8 3"></polygon>
                <polygon id="Path" points="3 6 0 8.26707839 0 9 3 9"></polygon>
            </g>
            <g id="Group" fill="#F5F5F5">
                <polygon id="Path" points="5 9 5.50000928 9 5.50000928 5.96558122 9 8.25866964 9 7.51782169 5.89143705 5.50000928 6.80981538 5.50000928 9 6.9216996 9 6.46547917 7.52639391 5.50000928 9 5.50000928 9 5 5 5"></polygon>
                <polygon id="Path" points="3.50002319 9 4 9 4 5 0 5 0 5.50000928 1.47361976 5.50000928 0 6.46547917 0 7.16688004 2.56786871 5.50000928 3.48625555 5.50000928 0 7.76300213 0 8.25866964 3.50002319 5.96558122"></polygon>
                <path d="M4,-1.39254927e-15 C3.83038541,0.00627651969 3.66337057,0.0225806152 3.49954969,0.048578034 L3.49954969,3.0336388 L1.02845789,1.41463098 C0.879715514,1.58420843 0.744603214,1.76596752 0.624680835,1.958237 L2.99917365,3.49958683 L2.08005348,3.49958683 L0.385281747,2.39945034 C0.338820646,2.49898332 0.29614774,2.60055894 0.257523003,2.70417723 L1.47156532,3.49958683 L0.048578034,3.49958683 C0.0225806152,3.6634077 0.00627651969,3.83038541 1.63701518e-14,4 L4,4 L4,-1.39254927e-15 L4,-1.39254927e-15 Z" id="Path"></path>
                <polygon id="Path" points="9 4 9 3.49999072 7.52639391 3.49999072 9 2.53452083 9 1.82417664 6.41838761 3.49999072 5.50000928 3.49999072 9 1.22805455 9 0.741330365 5.50000928 3.03441878 5.50000928 0 5 0 5 4"></polygon>
            </g>
            <g id="Group" fill="#FF4B55">
                <path d="M3.78945703,9 L5.21050781,9 L5.21050781,5.21050781 L9,5.21050781 L9,3.78949219 L5.21050781,3.78949219 L5.21050781,0 L3.9375,0 C3.88792969,0 3.83860547,0.00123046875 3.78945703,0.00305859375 L3.78945703,3.78949219 L0.00305859375,3.78949219 C0.00123046875,3.83864063 0,3.88789453 0,3.9375 L0,5.21050781 L3.78945703,5.21050781 L3.78945703,9 Z" id="Path"></path>
                <polygon id="Path" points="2.20970781 6 0 7.47315601 0 8 3 6"></polygon>
                <polygon id="Path" points="6 6 9 8 9 7.40914023 6.88630503 6"></polygon>
                <path d="M2,3 L0.18320025,2 C0.115626154,2.09187509 0.0543889063,2.18741265 -5.45674617e-14,2.28625126 L1.29675201,3 L2,3 Z" id="Path"></path>
                <polygon id="Path" points="6.78718351 3 9 1.5247701 9 1 6 3"></polygon>
                <path d="M13.7821734,15 C13.7733691,15 13.7644665,14.9971166 13.7569411,14.9915558 L13.5,14.7993718 L13.2430486,14.9915558 C13.2355232,14.9971166 13.2266205,15 13.2178163,15 C13.2088153,15 13.1999127,14.9971166 13.1922643,14.9913498 C13.1772135,14.9798162 13.1707456,14.9594007 13.1763527,14.9407615 L13.2716501,14.6256211 L13.0176796,14.429421 C13.0026287,14.4176557 12.9963821,14.3974719 13.0020877,14.3788327 C13.0079162,14.3601936 13.0243442,14.3475272 13.0431086,14.3473213 L13.3589056,14.3446696 L13.4587526,14.0310738 C13.4646795,14.0126406 13.4813289,14 13.5,14 C13.5186608,14 13.5352856,14.0126406 13.5412371,14.0310738 L13.6410841,14.3446696 L13.9568811,14.3473213 C13.9756454,14.347553 13.9920735,14.3601936 13.997902,14.3788327 C14.0036321,14.3974719 13.9973609,14.4176814 13.9823101,14.429421 L13.728315,14.6256211 L13.8236123,14.9407615 C13.8292441,14.9594007 13.8227762,14.9798162 13.8077254,14.9913498 C13.8001016,14.9971166 13.791076,15 13.7821734,15 Z" id="Path"></path>
            </g>
            <path d="M14,14 L14.2403577,14.3788728 L15,14.3819598 L14.3888709,14.6192014 L14.6180241,15 L14,14.7677428 L13.3819759,15 L13.6111291,14.6192014 L13,14.3819598 L13.7596423,14.3788728 L14,14 L14,14 Z M13.9999643,14 C13.9311736,14 13.8701219,14.0229627 13.8483533,14.0569702 L13.6825769,14.3161919 L13.1585914,14.3183159 C13.0898007,14.3185755 13.0291111,14.3417742 13.0078403,14.3758997 C12.9865695,14.4100017 13.0095601,14.4473839 13.0649094,14.4686711 L13.4864331,14.6309914 L13.3283956,14.8915111 C13.3076679,14.9257074 13.3312016,14.9629953 13.3868224,14.98407 C13.4148365,14.9946664 13.4477836,15 13.480776,15 C13.513361,15 13.5459008,14.9948316 13.5736886,14.9844712 L14,14.8255729 L14.4263305,14.9844712 C14.4541183,14.9948316 14.4867033,15 14.5192431,15 C14.5522354,15 14.5851825,14.99469 14.6131966,14.98407 C14.6688175,14.9629953 14.6923511,14.9257074 14.6716234,14.8915111 L14.513586,14.6309914 L14.9351097,14.4686711 C14.990459,14.4473839 15.0134043,14.4100017 14.9921787,14.3758997 C14.970908,14.3417742 14.9102183,14.3185991 14.8414277,14.3183159 L14.3174421,14.3161919 L14.1516657,14.0569702 C14.1298066,14.0229627 14.0687549,14 13.9999643,14 L13.9999643,14 Z" id="Shape" fill="#F5F5F5" fill-rule="nonzero"></path>
            <path d="M13.7821734,9 C13.7732708,9 13.7644665,8.99711667 13.7569411,8.99155597 L13.5,8.7991453 L13.2430486,8.99155597 C13.2355232,8.99711667 13.2266205,9 13.2178163,9 C13.2089137,9 13.1999127,8.99711667 13.1922643,8.99135002 C13.1772135,8.9798167 13.1707456,8.95940171 13.1763527,8.94073731 L13.2716501,8.62560498 L13.0176796,8.429204 C13.0026287,8.41743899 12.9963821,8.39702399 13.0020877,8.37861703 C13.0079162,8.35997838 13.0244426,8.34733807 13.0431086,8.34710637 L13.3589056,8.34466069 L13.4587526,8.03107301 C13.4646795,8.01266605 13.4813289,8 13.5,8 C13.5186608,8 13.5352856,8.0126403 13.5412371,8.03107301 L13.6410841,8.34466069 L13.9568811,8.34710637 C13.9755471,8.34733807 13.9920735,8.35997838 13.997902,8.37861703 C14.0036321,8.39702399 13.9973609,8.41746473 13.9823101,8.429204 L13.728315,8.62560498 L13.8236123,8.94073731 C13.8292441,8.95937597 13.8227762,8.97979096 13.8077254,8.99135002 C13.8001016,8.99711667 13.791076,9 13.7821734,9 Z" id="Path" fill="#FF4B55"></path>
            <path d="M14,8 L14.2403577,8.37887284 L15,8.38195978 L14.3888709,8.61920136 L14.6180241,9 L14,8.76777117 L13.3819759,9 L13.6111291,8.61920136 L13,8.38195978 L13.7596423,8.37887284 L14,8 L14,8 Z M13.9999643,8 C13.9311736,8 13.8701219,8.02296274 13.8483533,8.05697024 L13.6825769,8.31619191 L13.1585914,8.31831591 C13.0898007,8.31857551 13.0291111,8.34177424 13.0078403,8.37589975 C12.9865695,8.41000165 13.0095601,8.44738395 13.0649094,8.46869469 L13.4864331,8.63101503 L13.3283956,8.8915347 C13.3076679,8.92573101 13.3312016,8.9630189 13.3868224,8.98409364 C13.4148365,8.99469001 13.4477836,9 13.480776,9 C13.513361,9 13.5459008,8.99483161 13.5736886,8.98447124 L14,8.82557289 L14.4263305,8.98447124 C14.4541183,8.99483161 14.4867033,9 14.5192431,9 C14.5522354,9 14.5851825,8.99469001 14.6131966,8.98409364 C14.6688175,8.9630189 14.6923511,8.92573101 14.6716234,8.8915347 L14.513586,8.63101503 L14.9351097,8.46869469 C14.990459,8.44740755 15.0134043,8.41000165 14.9921787,8.37589975 C14.970908,8.34177424 14.9102183,8.31859911 14.8414277,8.31831591 L14.3174421,8.31619191 L14.1516657,8.05697024 C14.1298066,8.02293914 14.0687549,8 13.9999643,8 L13.9999643,8 Z" id="Shape" fill="#F5F5F5" fill-rule="nonzero"></path>
            <path d="M15.7821953,11 C15.7732927,11 15.7644885,10.9971167 15.7569631,10.9915562 L15.5000177,10.7991505 L15.2430723,10.9915562 C15.235547,10.9971167 15.2266444,11 15.2178402,11 C15.2089376,11 15.199912,10.9971167 15.1922883,10.9913502 C15.1772375,10.9798172 15.1707696,10.9594028 15.1763767,10.9407388 L15.2716738,10.6256146 L15.0176795,10.4292187 C15.0026287,10.417454 14.9963822,10.3970395 15.0020877,10.3786073 C15.0079162,10.3599691 15.0244425,10.3473291 15.0431084,10.3470974 L15.3589043,10.3446518 L15.458751,10.0310722 C15.4646779,10.0126657 15.4813272,10 15.5,10 C15.5186591,10 15.5352838,10.01264 15.5412352,10.0310722 L15.6410819,10.3446518 L15.9568778,10.3470974 C15.9755438,10.3473291 15.9920701,10.3599691 15.9978986,10.3786073 C16.0036287,10.3970395 15.9973822,10.417454 15.9823068,10.4292187 L15.7283125,10.6256146 L15.8236096,10.9407388 C15.8292167,10.959377 15.8227488,10.9797915 15.807698,10.9913502 C15.8001234,10.9971167 15.7910979,11 15.7821953,11 Z" id="Path" fill="#FF4B55"></path>
            <path d="M15.9999461,11 L16.2403168,11.3788728 L17,11.3819598 L16.3888919,11.6192014 L16.6180574,12 L16,11.7677712 L15.3819426,12 L15.6111081,11.6192014 L15,11.3819598 L15.7596832,11.3788728 L15.9999461,11 L15.9999461,11 Z M15.9999674,11 C15.9311766,11 15.8701247,11.0229622 15.848356,11.0569689 L15.6825791,11.3161845 L15.1585919,11.3183084 C15.089801,11.318568 15.0291112,11.3417662 15.0078403,11.3758909 C14.9865695,11.409992 15.0095601,11.4473734 15.0649096,11.4686836 L15.4864346,11.6310001 L15.3283967,11.8915137 C15.3076689,11.9257092 15.3312026,11.9629962 15.3868236,11.9840704 C15.4148378,11.9946665 15.447785,12 15.4807775,12 C15.5133174,12 15.5459025,11.9948317 15.5736904,11.9844716 L16.0000127,11.825577 L16.426335,11.9844716 C16.4541228,11.9948317 16.486708,12 16.5192479,12 C16.5522403,12 16.5851875,11.9946901 16.6132017,11.9840704 C16.6688227,11.9629962 16.6923564,11.9257092 16.6716287,11.8915137 L16.5135907,11.6310001 L16.9351158,11.4686836 C16.99042,11.447397 17.0134106,11.4100156 16.992185,11.3758909 C16.9709142,11.3417898 16.9102243,11.3185916 16.8414335,11.3183084 L16.3174463,11.3161845 L16.1516694,11.0569689 C16.1298102,11.0229386 16.0687583,11 15.9999674,11 L15.9999674,11 Z" id="Shape" fill="#F5F5F5" fill-rule="nonzero"></path>
            <path d="M11.7822364,12 C11.7733334,12 11.7645287,11.9971167 11.7570029,11.991556 L11.500044,11.7991453 L11.2430851,11.991556 C11.2355593,11.9971167 11.2266563,12 11.2178516,12 C11.2089486,12 11.1999471,11.9971167 11.1922984,11.99135 C11.1772468,11.9798167 11.1707785,11.9594017 11.176386,11.9407373 L11.271688,11.625605 L11.0176804,11.429204 C11.0026289,11.417439 10.996382,11.397024 11.0020878,11.378617 C11.0079166,11.3599784 11.0244684,11.3473123 11.0431107,11.3471064 L11.3588986,11.3446607 L11.4587506,11.031073 C11.4646777,11.0126403 11.4813279,11 11.5,11 C11.5186617,11 11.5352873,11.0126403 11.5412391,11.031073 L11.641091,11.3446607 L11.956879,11.3471064 C11.9755459,11.3473381 11.9920731,11.3599784 11.9979019,11.378617 C12.0036323,11.397024 11.9973608,11.4174647 11.9823092,11.429204 L11.7283016,11.625605 L11.8236037,11.9407373 C11.8292111,11.959376 11.8227429,11.979791 11.8076913,11.99135 C11.8001409,11.9971167 11.7911395,12 11.7822364,12 Z" id="Path" fill="#FF4B55"></path>
            <path d="M12,11 L12.2403577,11.3788728 L13,11.3819598 L12.3888709,11.6192014 L12.6180241,12 L12,11.7677712 L11.3819759,12 L11.6111291,11.6192014 L11,11.3819598 L11.7596423,11.3788728 L12,11 L12,11 Z M11.9999869,11 C11.9311947,11 11.8701416,11.0229627 11.8483725,11.0569702 L11.6825924,11.3161919 L11.158595,11.3183159 C11.0898028,11.3185755 11.0291118,11.3417742 11.0078405,11.3758997 C10.9865692,11.4100017 11.0095603,11.4473839 11.0649109,11.4686947 L11.4864441,11.631015 L11.3283578,11.8915347 C11.3076296,11.925731 11.3311638,11.9630189 11.3867859,11.9840936 C11.4148006,11.99469 11.4477485,12 11.4807416,12 C11.5133274,12 11.5458679,11.9948316 11.5736563,11.9844712 L11.9999869,11.8255729 L12.4263175,11.9844712 C12.4541059,11.9948316 12.4866917,12 12.5192322,12 C12.5522253,12 12.5851732,11.99469 12.6131879,11.9840936 C12.66881,11.9630189 12.6923442,11.925731 12.671616,11.8915347 L12.513575,11.631015 L12.9351082,11.4686947 C12.9904588,11.4474075 13.0134046,11.4100017 12.9921786,11.3758997 C12.9709526,11.3417742 12.9102163,11.3185991 12.8414241,11.3183159 L12.3174267,11.3161919 L12.1516465,11.0569702 C12.1298322,11.0229391 12.0687791,11 11.9999869,11 L11.9999869,11 Z" id="Shape" fill="#F5F5F5" fill-rule="nonzero"></path>
        </g>
    </g>
</svg>