<?xml version="1.0" encoding="UTF-8"?>
<svg id="Layer_1" xmlns="http://www.w3.org/2000/svg" version="1.1" xmlns:xlink="http://www.w3.org/1999/xlink" viewBox="0 0 24 24">
  <!-- Generator: Adobe Illustrator 29.3.1, SVG Export Plug-In . SVG Version: 2.1.0 Build 151)  -->
  <defs>
    <style>
      .st0 {
        fill: #41479b;
      }

      .st1 {
        fill: #f5f5f5;
      }

      .st2 {
        fill: #ff4b55;
        fill-rule: evenodd;
      }
    </style>
  </defs>
  <path id="Path" class="st2" d="M17.2,3H6.9c-2.2,0-3.9,1.8-3.9,3.9v10.2c0,2.2,1.8,3.9,3.9,3.9h10.2c2.2,0,3.9-1.8,3.9-3.9V6.9c0-2.2-1.8-3.9-3.9-3.9h.1Z"/>
  <polygon class="st0" points="21 10.3 21 13.7 11.8 13.7 11.8 21 11.5 21 11.5 21 8.8 21 8.8 21 8.4 21 8.4 13.7 3 13.7 3 10.3 8.4 10.3 8.4 3 8.8 3 8.8 3 11.5 3 11.5 3 11.8 3 11.8 10.3 21 10.3"/>
  <path class="st1" d="M12.2,9.9V3h-.7v7.7h9.5v-.7h-8.8ZM11.5,13.3v7.7h.7v-6.9h8.8v-.7h-9.5ZM8.1,3v6.9H3v.7h5.8V3h-.7ZM3,13.3v.7h5.1v6.9h.7v-7.7H3Z"/>
</svg>