<?xml version="1.0" encoding="UTF-8"?>
<svg width="24px" height="24px" viewBox="0 0 24 24" version="1.1" xmlns="http://www.w3.org/2000/svg" xmlns:xlink="http://www.w3.org/1999/xlink">
    <title>03 Icon/04 Flag/Philippines</title>
    <g id="03-Icon/04-Flag/Philippines" stroke="none" stroke-width="1" fill="none" fill-rule="evenodd">
        <g id="flag-philippines" transform="translate(3.000000, 3.000000)">
            <path d="M1.15326562,1 C0.44071875,1.72646463 0,2.73006685 0,3.83861718 L0,14.1613828 C0,15.2699332 0.44071875,16.2735354 1.15326562,17 L9,9 L1.15326562,1 Z" id="Path" fill="#F5F5F5"></path>
            <path d="M1,16.8467344 C1.71902937,17.5592812 2.71235987,18 3.80956435,18 L14.026678,18 C16.221087,18 18,16.237125 18,14.0625 L18,9 L8.91812119,9 L1,16.8467344 Z" id="Path" fill="#FF4B55"></path>
            <path d="M14.026678,0 L3.80956435,0 C2.71235987,0 1.71902937,0.44071875 1,1.15326562 L8.91812119,9 L18,9 L18,3.9375 C18,1.762875 16.221087,0 14.026678,0 Z" id="Path" fill="#41479B"></path>
            <g id="Group" transform="translate(1.000000, 2.000000)" fill="#FFE15A">
                <circle id="Oval" cx="3" cy="6" r="1"></circle>
                <polygon id="Path" points="2.50002324 6 2 4.49997386 2.50002324 4 3 4.49997386"></polygon>
                <polygon id="Path" points="2.50002324 6 3 7.49999129 2.50002324 8 2 7.49999129"></polygon>
                <polygon id="Path" points="3 6.5 1.5 7 1 6.5 1.5 6"></polygon>
                <polygon id="Path" points="3 6.5 4.49999129 6 5 6.5 4.49999129 7"></polygon>
                <polygon id="Path" points="3 6 3.5624923 5.06250462 4 5 3.93749538 5.4375077"></polygon>
                <polygon id="Path" points="2 6 1.43749692 6.93752003 1 7 1.06250308 6.56251694"></polygon>
                <polygon id="Path" points="2 6 1.06250308 5.4375077 1 5 1.43749692 5.06250462"></polygon>
                <polygon id="Path" points="3 6 3.93749538 6.56251694 4 7 3.5624923 6.93752003"></polygon>
                <path d="M0.268703334,0.0489621318 L0.311380995,0.365846767 L0.0239629247,0.508615221 C-0.0132373893,0.527100158 -0.00539223105,0.582100655 0.0355167032,0.589540061 L0.35149115,0.647067684 L0.399104128,0.963270847 C0.405266143,1.00421598 0.460239307,1.01378498 0.479980578,0.977354609 L0.632604566,0.696020113 L0.949434848,0.748663851 C0.990457893,0.755478575 1.0165894,0.706412566 0.987890387,0.676427784 L0.766229007,0.445011137 L0.914431178,0.161348278 C0.93363042,0.124633956 0.894804018,0.0847110347 0.857318426,0.102628078 L0.567703711,0.240938567 L0.342447822,0.0129860715 C0.313320889,-0.0164876069 0.26319746,0.00793181838 0.268703334,0.0489621318 Z" id="Path"></path>
                <path d="M0.406117199,12.0359815 L0.352361332,12.3520453 L0.0362540814,12.4034698 C-0.00467432724,12.4101328 -0.0135767539,12.4651165 0.0231422007,12.484365 L0.306796836,12.6331998 L0.257961479,12.9500609 C0.251647298,12.9910923 0.301108384,13.0165482 0.330773659,12.9875615 L0.559819159,12.7634693 L0.845749175,12.9078906 C0.882780994,12.9265982 0.922258848,12.8873607 0.903856707,12.8501449 L0.761759188,12.5628115 L0.987334733,12.3351886 C1.01654493,12.3057178 0.991458861,12.2560018 0.950445125,12.2620099 L0.633569933,12.3085083 L0.487035422,12.0234244 C0.468064436,11.9865503 0.413085552,11.995064 0.406117199,12.0359815 Z" id="Path"></path>
                <path d="M6.56301844,6.01818968 L6.37338644,6.27735729 L6.0570112,6.18870728 C6.01604132,6.17722499 5.98347027,6.22250685 6.00907644,6.25532143 L6.2067561,6.50886046 L6.02130888,6.7708142 C5.99731224,6.80472635 6.03199031,6.84851664 6.0723749,6.83526135 L6.38418493,6.7327932 L6.58593231,6.98334908 C6.61206523,7.0157978 6.66608694,6.99758937 6.66544313,6.95655708 L6.66046822,6.63969662 L6.97061018,6.53258489 C7.01076066,6.51871046 7.00944377,6.46369117 6.96867874,6.45158974 L6.65379598,6.35821173 L6.6437291,6.04146383 C6.64241221,6.00045968 6.58760036,5.9846434 6.56301844,6.01818968 Z" id="Path"></path>
            </g>
        </g>
    </g>
</svg>