<?xml version="1.0" encoding="UTF-8"?>
<svg id="Layer_1" xmlns="http://www.w3.org/2000/svg" version="1.1" xmlns:xlink="http://www.w3.org/1999/xlink" viewBox="0 0 24 24">
  <!-- Generator: Adobe Illustrator 29.3.1, SVG Export Plug-In . SVG Version: 2.1.0 Build 151)  -->
  <defs>
    <style>
      .st0 {
        fill: #039;
      }

      .st1, .st2 {
        fill: #fff;
      }

      .st2, .st3, .st4, .st5, .st6 {
        fill-rule: evenodd;
      }

      .st3 {
        fill: #008c4c;
      }

      .st7, .st5 {
        fill: #ff0;
      }

      .st6 {
        fill: #c8414b;
      }
    </style>
  </defs>
  <g id="_x30_3-Icon_x2F_04-Flag_x2F_Indonesia">
    <g id="flag-indonesia">
      <path id="Path" class="st6" d="M21,17.1V6.9c0-2.2-1.8-3.9-3.9-3.9h-7.1v18h7.1c2.2,0,3.9-1.8,3.9-3.9Z"/>
      <path id="Path1" data-name="Path" class="st3" d="M6.9,3c-2.2,0-3.9,1.8-3.9,3.9v10.1c0,2.2,1.8,3.9,3.9,3.9h3V3h-3Z"/>
    </g>
  </g>
  <g>
    <path class="st5" d="M13,14.4c-1.2,0-6.6-3.4-6.7-4l.3-.5c.5.8,6.1,4.1,6.6,4l-.3.5"/>
    <path class="st5" d="M6.6,9.9c-.1.3,1.4,1.2,3.3,2.3,1.8,1.1,3.4,1.8,3.5,1.7,0,0,0,0,0,0,0,0,0,0-.2,0-.5-.1-1.8-.7-3.4-1.7-1.6-1-3-1.9-3.2-2.2,0,0,0,0,0-.1h0c0,0,0,0,0,0ZM13,14.4s0,0-.1,0c-.4,0-1.8-.7-3.4-1.7-1.9-1.1-3.4-2.1-3.2-2.4h0c0,0,0,0,0,0-.1.4,3,2.3,3.2,2.4,1.8,1.1,3.4,1.8,3.5,1.6h0"/>
    <path d="M12.9,14.5s0,0,0,0c-.5,0-1.8-.7-3.4-1.7-2.1-1.3-3.2-2-3.2-2.3,0,0,0,0,0,0h0c0,0,0,0,0,0h0s0,0,0,0c0,0,0,0,0,0,0,.1.3.6,3.1,2.3,0,0,.1,0,.1,0,1.7,1,3,1.7,3.4,1.7s0,0,0,0c0,0,0,0,0,0,0,0,0,0,0,0h0c0,0,0,0,0,0,0,0,0,0,0,0ZM6.3,10.4h0c0,0,0,0,0,.1,0,.3,1.1,1,3.2,2.3,1.6.9,2.9,1.6,3.4,1.7,0,0,0,0,0,0,0,0,0,0,0,0,0,0,0,0,0,0h0s0,0,0,0c-.4,0-1.8-.6-3.4-1.7,0,0,0,0-.1,0-2-1.2-3.1-2-3.1-2.3ZM13.3,14h0c-.3,0-1.8-.7-3.5-1.7-2-1.2-3.4-2.1-3.3-2.4h0s0,0,0,0c0,0,0,0,0,0h0s0,0,0,0c0,0,0,0,0,0,0,0,0,0,0,.1.2.4,1.8,1.4,3.2,2.2,1.5.9,2.8,1.5,3.4,1.7,0,0,.1,0,.1,0,0,0,0,0,0,0h0s0,0,0,0c0,0,0,0,0,.1,0,0,0,0,0,0,0,0,0,0,0,0ZM6.6,9.8h0c-.1.4,1.7,1.4,3.2,2.4,1.7,1,3.2,1.7,3.5,1.7h0s0,0,0,0c0,0,0,0,0,0,0,0,0,0-.1,0-.5-.2-1.9-.8-3.4-1.7-1.4-.8-3-1.8-3.2-2.2,0,0,0,0,0,0Z"/>
    <path class="st5" d="M9.9,10.8c1.2,0,2.6-.2,3.5-.5l-.2-.3c-.5.3-2,.5-3.3.5-1.6,0-2.7-.2-3.3-.5l-.2.3c1,.4,2.1.5,3.5.5"/>
    <path class="st5" d="M13.5,10.3s-.6.2-1.4.4c-.5,0-1.3.2-2.2.2-.8,0-1.5,0-2.1-.1-.8-.1-1.3-.3-1.4-.4,0,0,0,0,0,0,.5.2.9.3,1.4.4.5,0,1.2.1,2.1.1.9,0,1.6,0,2.1-.2.8-.1,1.3-.3,1.3-.4h0ZM13.3,10c0,0-.5.2-1.3.4-.5,0-1.2.1-2,.1-.8,0-1.5,0-2-.1-.8-.1-1.2-.3-1.4-.3,0,0,0,0,0,0,.1,0,.5.2,1.3.3.5,0,1.2.1,2,.1.9,0,1.5,0,2-.1.8-.1,1.2-.3,1.3-.4h0"/>
    <path d="M9.9,10.8c-.7,0-1.4,0-2.1-.1-.8-.1-1.3-.3-1.4-.4h0s0,0,0,0c0,0,0,0,0,0,0,0,0,0,0,0,0,0,0,0,0,0,0,0,0,0,0,0,.4.2.9.3,1.4.4.6,0,1.3.1,2,.1h0c.7,0,1.4,0,2.1-.2.8-.1,1.3-.3,1.3-.4,0,0,0,0,0,0,0,0,0,0,0,0h0c0,.1,0,.1,0,.1s0,0,0,0c0,0-.6.2-1.4.4-.7.1-1.4.2-2.2.2h0ZM6.4,10.3h0c.2,0,.6.3,1.4.4.6,0,1.3.1,2,.1h0c.8,0,1.5,0,2.2-.2.8-.1,1.3-.3,1.4-.4h0c0,0-.5.2-1.3.3-.7.1-1.4.2-2.1.2h0c-.7,0-1.4,0-2-.1-.5,0-1-.2-1.4-.4,0,0,0,0,0,0,0,0,0,0,0,0ZM9.9,10.5c-.7,0-1.4,0-2-.1-.7,0-1.1-.2-1.3-.3,0,0,0,0,0,0,0,0,0,0,0,0,0,0,0,0,0,0,0,0,0,0,0,0,0,0,0,0,0,0,0,0,.5.2,1.3.3.4,0,1.1.1,1.9.1h0c.7,0,1.4,0,2-.1.8-.1,1.2-.3,1.3-.4,0,0,0,0,0,0,0,0,0,0,0,0h0c0,.1,0,.1,0,.1,0,0-.5.2-1.3.4-.7,0-1.3.1-2.1.1h0ZM6.6,10s0,0,0,0c.2,0,.6.2,1.3.3.6,0,1.3.1,2,.1h0c.7,0,1.4,0,2-.1.8-.1,1.2-.3,1.3-.3h0c0,0-.5.2-1.3.3-.7,0-1.3.1-2,.1h0c-.9,0-1.6,0-2-.1-.8-.1-1.2-.3-1.3-.3,0,0,0,0,0,0Z"/>
    <path class="st5" d="M6,12.2c.7.4,2.3.6,3.9.6,1.4,0,3.2-.2,3.9-.6v-.4c-.2.3-2.2.7-3.9.6-1.7,0-3.3-.3-3.9-.6v.4"/>
    <path class="st5" d="M13.8,12.2h0c-.1.2-.7.4-1.5.5-.6,0-1.4.2-2.4.2s-1.7,0-2.3-.2c-.9-.1-1.5-.4-1.6-.4h0c.4.1,1.3.3,1.6.4.6,0,1.3.2,2.3.2s1.8,0,2.4-.2c.6,0,1.4-.3,1.6-.4h0ZM13.8,11.8h0c-.1.2-.7.4-1.5.5-.6,0-1.4.2-2.4.2s-1.7,0-2.3-.2c-.9-.1-1.5-.4-1.6-.4h0c.4.1,1.3.3,1.6.4.6,0,1.3.2,2.3.2s1.8,0,2.4-.2c.6,0,1.4-.3,1.6-.4"/>
    <path d="M9.9,12.9c-.8,0-1.6,0-2.3-.2-.9-.1-1.5-.4-1.6-.4,0,0,0,0,0,0h0c0-.1,0-.1,0-.1,0,0,0,0,0,0,.4.2,1.3.4,1.6.5.7.1,1.4.2,2.3.2s1.7,0,2.4-.2c.6,0,1.4-.3,1.6-.4,0,0,0,0,0,0,0,0,0,0,0,0,0,0,0,0,0,0s0,0,0,0h0c0,0,0,0,0,0-.1.1-.8.3-1.6.4-.7.1-1.5.2-2.4.2ZM6,12.3c.1,0,.7.3,1.6.4.7.1,1.4.2,2.3.2s1.7,0,2.4-.2c.8-.1,1.4-.3,1.5-.4h0c-.2,0-1,.3-1.5.4-.7.1-1.5.2-2.4.2s-1.6,0-2.3-.2c-.3,0-1.3-.2-1.6-.5h0ZM9.9,12.5c-.8,0-1.6,0-2.3-.2-.9-.1-1.5-.4-1.6-.4,0,0,0,0,0,0h0c0-.1,0-.1,0-.1,0,0,0,0,0,0,.4.2,1.3.4,1.6.5.7.1,1.4.2,2.3.2s1.7,0,2.4-.2c.6,0,1.4-.3,1.6-.4,0,0,0,0,0,0h0c0,0,0,0,0,.1-.1.1-.8.3-1.6.4-.7.1-1.5.2-2.4.2ZM6,11.9c.1,0,.7.3,1.6.4.7.1,1.4.2,2.3.2s1.7,0,2.4-.2c.8-.1,1.4-.3,1.5-.4h0c-.2,0-1,.3-1.5.4-.7.1-1.5.2-2.4.2s-1.6,0-2.3-.2c-.3,0-1.3-.2-1.6-.5h0Z"/>
    <path class="st5" d="M9.9,14.4c-1.7,0-3.1-.5-3.4-.5l.2.3c.5.2,1.9.6,3.2.5,1.3,0,2.4-.1,3.2-.5l.2-.4c-.5.3-2.4.5-3.4.5"/>
    <path class="st5" d="M13.2,14.1c0,0,0,.1-.1.2-.4.1-1,.3-1.2.3-.5.1-1.3.2-2,.2-1.5,0-2.7-.3-3.3-.6h0c0,0,0,0,0,0h0c1,.4,2.2.5,3.2.6.7,0,1.4,0,1.9-.2.9-.2,1.2-.3,1.3-.4h0s0,0,0,0ZM13.4,13.8s0,0,0,0c0,0,0,0,0,.1-.2,0-.7.2-1.5.3-.5,0-.8.1-1.9.2-1.9,0-3.2-.4-3.5-.5h0c1.1.2,2.3.4,3.5.4.9,0,1.3,0,1.8-.2.9-.1,1.4-.3,1.5-.3,0,0,0,0,0,0h0"/>
    <path d="M9.9,14.7h0c-1.5,0-2.7-.3-3.3-.6,0,0,0,0,0,0h0c0,0,0,0,0,0h0s0,0,0,0h0c.9.4,2,.5,3.2.6h0c.7,0,1.4,0,1.9-.2,1-.2,1.2-.3,1.3-.4h0s0,0,0,0c0,0,0,0,0,0,0,0,0,.1-.1.2,0,0,0,0,0,0-.4.1-.9.3-1.2.3-.5.1-1.3.2-2,.2ZM6.6,14.2c.6.3,1.9.5,3.3.6.7,0,1.4,0,2-.2.3,0,.8-.2,1.2-.3,0,0,0,0,0-.1,0,0-.4.2-1.3.4-.5,0-1.2.2-1.9.2h0c-1.2,0-2.3-.2-3.2-.5h0s0,0,0,0ZM9.9,14.4h0c-1.7,0-2.9-.3-3.5-.5,0,0,0,0,0,0h0c0,0,0,0,0,0,0,0,0,0,0,0,1.3.3,2.4.5,3.5.5.8,0,1.2,0,1.7-.1,0,0,.1,0,.2,0,.9-.1,1.3-.3,1.5-.3h0s0,0,0,0c0,0,0,0,0,0h0s0,0,0,0c0,0,0,0,0,0,0,0,0,0,0,0,0,0,0,0,0,.1,0,0,0,0,0,0-.3,0-.8.2-1.5.3,0,0-.1,0-.2,0-.4,0-.8.1-1.6.1h0ZM6.5,13.9c.6.2,1.7.5,3.5.5.9,0,1.2,0,1.6-.1,0,0,.1,0,.2,0,.7,0,1.2-.2,1.5-.3,0,0,0,0,0-.1h0s0,0,0,0c0,0,0,0,0,0h0c-.2,0-.6.2-1.5.3,0,0-.1,0-.2,0-.4,0-.8.1-1.7.1-1.1,0-2.2-.2-3.5-.5h0Z"/>
    <path class="st5" d="M13.4,11.9c0,1.1-.6,2.1-1,2.5-.6.6-1.5,1-2.5,1-1.1,0-2.2-.7-2.4-1-.6-.6-1-1.4-1-2.5,0-1.2.5-2,1.2-2.6.7-.6,1.6-.9,2.4-.8.9,0,1.9.5,2.6,1.3.5.6.7,1.2.8,2.1M9.9,8.1c2.1,0,3.9,1.7,3.9,3.9s-1.8,3.9-3.9,3.9-3.9-1.7-3.9-3.9,1.7-3.9,3.9-3.9"/>
    <path d="M9.9,15.9c-2.1,0-3.9-1.7-3.9-3.9s1.7-3.9,3.9-3.9,3.9,1.7,3.9,3.9-1.7,3.9-3.9,3.9ZM9.9,8.1c-2.1,0-3.9,1.7-3.9,3.9s1.7,3.9,3.9,3.9,3.9-1.7,3.9-3.9-1.7-3.9-3.9-3.9ZM9.9,15.8c-1,0-2-.4-2.7-1.1-.7-.7-1.1-1.7-1.1-2.7s.4-2,1.1-2.7c.7-.7,1.7-1.1,2.7-1.1s2,.4,2.7,1.1c.7.7,1.1,1.7,1.1,2.7s-.4,2-1.1,2.7c-.7.7-1.7,1.1-2.7,1.1ZM9.9,8.2c-2.1,0-3.8,1.7-3.8,3.8s1.7,3.8,3.8,3.8,3.8-1.7,3.8-3.8-1.7-3.8-3.8-3.8ZM9.9,15.6c-.9,0-1.8-.4-2.5-1-.7-.7-1.1-1.6-1.1-2.5s.4-1.8,1.1-2.5c.7-.7,1.6-1,2.5-1s1.8.4,2.5,1c.7.7,1.1,1.6,1.1,2.5s-.4,1.8-1.1,2.5c-.7.7-1.6,1-2.5,1ZM9.9,8.4c-2,0-3.5,1.6-3.5,3.5s1.6,3.5,3.5,3.5,3.5-1.6,3.5-3.5-1.6-3.5-3.5-3.5ZM9.9,15.5c-.9,0-1.8-.4-2.5-1-.7-.7-1-1.5-1-2.5s.4-1.8,1-2.5c.7-.7,1.5-1,2.5-1s1.8.4,2.5,1c.7.7,1,1.5,1,2.5s-.4,1.8-1,2.5c-.7.7-1.5,1-2.5,1ZM9.9,8.5c-1.9,0-3.5,1.6-3.5,3.5s1.6,3.5,3.5,3.5,3.5-1.6,3.5-3.5-1.6-3.5-3.5-3.5Z"/>
    <polygon class="st5" points="10 8.1 10 8.1 9.8 8.1 9.8 8.1 9.7 8.1 9.7 15.9 9.8 15.9 9.8 15.9 10 15.9 10 15.9 10.1 15.9 10.1 8.1 10 8.1"/>
    <path d="M10,15.9h-.2s0,0,0,0,0,0,0,0h.2s0,0,0,0,0,0,0,0ZM10,8.1h-.2s0,0,0,0,0,0,0,0h.2s0,0,0,0,0,0,0,0Z"/>
    <path d="M10.1,16s0,0,0,0h0s0,0,0,0v-7.9s0,0,0,0c0,0,0,0,0,0h0s0,0,0,0v7.9s0,0,0,0c0,0,0,0,0,0ZM10.1,15.9h0v-7.9h0v7.9ZM9.8,16s0,0,0,0h0s0,0,0,0v-7.9s0,0,0,0c0,0,0,0,0,0h0s0,0,0,0v7.9s0,0,0,0c0,0,0,0,0,0ZM9.7,15.9h0v-7.9h0v7.9Z"/>
    <path class="st5" d="M6,11.8c.5-.4,2.3-.7,3.9-.7,1.6,0,3.5.3,3.9.7v.3c-.3-.3-1.8-.7-3.9-.7-2.1,0-3.6.4-3.9.7v-.3"/>
    <path d="M13.8,12.2s0,0,0,0v-.3s0,0,0,0,0,0,0,0v.3s0,0,0,0ZM6,12.1s0,0,0,0v-.3s0,0,0,0,0,0,0,0v.3s0,0,0,0Z"/>
    <path class="st5" d="M9.9,11.4c.9,0,1.8,0,2.5.2.7.1,1.2.3,1.4.5h0c-.2-.2-.9-.3-1.4-.4-.7-.1-1.6-.2-2.5-.2-1,0-1.9,0-2.5.2-.6.1-1.3.3-1.4.5h0c0-.3.6-.5,1.4-.6.7-.1,1.6-.2,2.6-.2M9.9,11.1c.9,0,1.8,0,2.5.2.7.1,1.2.3,1.4.5h0c-.2-.2-.9-.3-1.4-.4-.7-.1-1.6-.2-2.5-.2-1,0-1.9,0-2.5.2-.5.1-1.3.3-1.4.5h0c0-.3.6-.5,1.4-.6.7-.1,1.6-.2,2.6-.2"/>
    <path d="M6,12.3s0,0,0,0c0,0,0,0,0,0h0c0-.1,0-.1,0-.1,0-.2.6-.4,1.4-.5.7-.1,1.7-.2,2.6-.2h0c.9,0,1.7,0,2.5.2.8.2,1.3.3,1.4.5,0,0,0,0,0,0h0c0,.1,0,.1,0,.1,0,0,0,0,0,0-.2-.3-1-.5-1.4-.5-.7-.1-1.6-.2-2.5-.2h0c-.9,0-1.8,0-2.5.2-.6.1-1.3.3-1.4.5,0,0,0,0,0,0ZM9.9,11.5c.9,0,1.7,0,2.5.2.4,0,1.2.3,1.4.5h0c-.2-.3-.7-.4-1.4-.6-.7-.1-1.6-.2-2.5-.2h0c-.9,0-1.8,0-2.6.2-.8.2-1.3.4-1.4.5h0c.2-.2.9-.4,1.4-.5.7-.1,1.6-.2,2.6-.2h0ZM6,11.9s0,0,0,0c0,0,0,0,0,0h0c0-.1,0-.1,0-.1,0-.2.6-.4,1.4-.5.7-.1,1.7-.2,2.6-.2h0c.9,0,1.7,0,2.5.2.8.2,1.3.3,1.4.5,0,0,0,0,0,0h0c0,.1,0,.1,0,.1,0,0,0,0,0,0-.2-.3-1-.5-1.4-.5-.7-.1-1.6-.2-2.5-.2h0c-.9,0-1.8,0-2.5.2-.6.1-1.3.3-1.4.5,0,0,0,0,0,0ZM9.9,11.1c.9,0,1.7,0,2.5.2.4,0,1.2.3,1.4.5h0c-.2-.3-.7-.4-1.4-.6-.7-.1-1.6-.2-2.5-.2h0c-.9,0-1.8,0-2.6.2-.8.2-1.3.4-1.4.5h0c.2-.2.9-.4,1.4-.5.7-.1,1.6-.2,2.5-.2h0Z"/>
    <path class="st5" d="M9.9,9.4c1.4,0,2.7.2,3.3.5l.2.4c-.5-.3-1.9-.6-3.5-.5-1.3,0-2.7.1-3.5.5l.3-.4c.6-.3,2-.5,3.2-.5"/>
    <path d="M13.4,10.2s0,0,0,0v-.2c-.1,0-.1,0-.1,0,0,0,0,0,0,0v.2c.1,0,.1,0,.1,0,0,0,0,0,0,0Z"/>
    <path class="st5" d="M9.9,9.7c.8,0,1.6,0,2.3.2.6.1,1.2.3,1.2.4h0c-.2,0-.7-.2-1.3-.3-.6-.1-1.4-.2-2.2-.2-.9,0-1.7,0-2.3.2-.7.1-1.1.3-1.2.4h0c.2-.2.6-.4,1.1-.5.6-.1,1.4-.2,2.3-.2M9.9,9.3c.8,0,1.6,0,2.2.2.5,0,1,.2,1.1.4h0c-.2,0-.7-.2-1.3-.3-.6-.1-1.3-.1-2.1-.2-.8,0-1.6,0-2.2.2-.6.1-.9.2-1.1.3h0c.2-.2.6-.3,1-.4.6-.1,1.4-.2,2.2-.2"/>
    <path d="M13.5,10.3s0,0,0,0c-.2-.1-.7-.3-1.3-.4-.5-.1-1.3-.2-2.2-.2h0s0,0,0,0c-.9,0-1.6,0-2.2.2-.7.1-1.1.3-1.2.4,0,0,0,0,0,0,0,0,0,0,0,0h0c0-.1,0-.1,0-.1.3-.2.7-.3,1.1-.4.6-.1,1.2-.2,2.3-.2h0c.9,0,1.6,0,2.2.2.6.1,1.2.3,1.2.4h0c0,.1,0,.1,0,.1,0,0,0,0,0,0ZM10,9.7c.9,0,1.6,0,2.2.2.6.1,1.1.2,1.3.4h0c0-.2-.6-.3-1.2-.4-.6-.1-1.3-.2-2.2-.2h0c-1,0-1.7,0-2.3.2-.5,0-.8.2-1.1.3h0c.2,0,.6-.2,1.2-.3.6-.1,1.3-.2,2.3-.2h0ZM13.3,10s0,0,0,0c-.2-.2-.8-.3-1.2-.4-.5,0-1.2-.1-2.1-.2-.9,0-1.6,0-2.2.2-.5,0-.9.2-1.1.3,0,0,0,0,0,0,0,0,0,0,0,0h0c0-.1,0-.1,0-.1.2-.1.6-.2,1-.3.6-.1,1.3-.2,2.2-.2h0c.8,0,1.6,0,2.1.2.5,0,1,.2,1.1.4,0,0,0,0,0,0h0c0,.1,0,.2,0,.2,0,0,0,0,0,0ZM9.9,9.4c.9,0,1.6,0,2.1.2.4,0,1,.2,1.2.4h0c-.2-.2-.6-.3-1.1-.4-.5,0-1.3-.2-2.1-.2h0c-.9,0-1.6,0-2.2.2-.4,0-.8.2-1,.3h0c.2,0,.6-.1,1-.2.6-.1,1.3-.2,2.2-.2Z"/>
    <path class="st5" d="M11.8,13.6c-.7-.1-1.4-.2-1.9-.1-2.4,0-3.2.5-3.3.6l-.2-.3c.6-.4,1.9-.7,3.5-.7.8,0,1.5,0,2.1.2l-.2.3"/>
    <path d="M6.6,14.1s0,0,0,0v-.2c-.1,0-.1,0-.1,0,0,0,0,0,0,0v.2c.1,0,.1,0,.1,0,0,0,0,0,0,0Z"/>
    <path class="st5" d="M9.9,13.4c.7,0,1.3,0,2,.2h0c-.6,0-1.2,0-1.9,0-.9,0-1.8,0-2.6.3-.2,0-.7.2-.7.4h0c0-.2.3-.3.7-.4.9-.3,1.7-.3,2.6-.3M9.9,13.1c.7,0,1.4,0,2.1.2h0c-.6,0-1.2,0-2.1,0-.9,0-1.8,0-2.7.3-.3,0-.8.3-.8.4h0c0-.2.4-.4.8-.5.9-.3,1.8-.3,2.7-.3"/>
    <path d="M6.6,14.2s0,0,0,0h0c0,0,0,0,0,0,0,0,.3-.2.7-.4.9-.2,1.7-.3,2.6-.3.6,0,1.3,0,2,.2,0,0,0,0,0,0s0,0,0,0h0c0,0,0,0,0,0-.5,0-1.1-.1-1.8-.1s0,0,0,0c0,0,0,0-.1,0-.9,0-1.8.1-2.5.3-.3,0-.7.2-.7.4,0,0,0,0,0,0,0,0,0,0,0,0ZM6.6,14.1h0c0,0,.5-.2.7-.3.7-.2,1.5-.3,2.5-.3s0,0,.1,0c0,0,0,0,0,0,.7,0,1.3,0,1.8.1h0c-.6-.2-1.3-.2-1.9-.2-.9,0-1.7,0-2.6.3-.5.1-.7.3-.7.4ZM6.5,13.9s0,0,0,0h0c0,0,0,0,0,0,0-.2.6-.4.8-.4.7-.2,1.6-.3,2.7-.3.7,0,1.4,0,2.1.2,0,0,0,0,0,0s0,0,0,0h0c0,0,0,0,0,0-.7-.1-1.3-.2-2.1-.2-1.1,0-2,.1-2.7.3-.4.1-.8.3-.8.4,0,0,0,0,0,0,0,0,0,0,0,0ZM6.4,13.8h0c0-.1.7-.3.8-.3.7-.2,1.6-.3,2.7-.3.7,0,1.4,0,2.1.2h0c-.7-.2-1.4-.2-2.1-.2-1.1,0-2,.1-2.7.3-.5.1-.8.3-.8.4Z"/>
    <path class="st5" d="M6.7,9.8c1.2,0,6.7,3.4,6.7,4l-.3.5c-.2-.7-5.7-4-6.7-4l.3-.6"/>
    <path d="M13.1,14.3s0,0,0,0c0,0,0,0,0,0l.3-.4s0,0,0,0c0,0,0,0,0,0l-.3.4s0,0,0,0ZM6.4,10.4s0,0,0,0c0,0,0,0,0,0l.3-.5s0,0,0,0c0,0,0,0,0,0l-.3.5s0,0,0,0Z"/>
    <path class="st5" d="M6.3,10.4c.2-.2,1.8.6,3.6,1.6,1.7,1,3.3,2.2,3.2,2.4h0c0,0,0,0,0,0,0,0,0,0,0-.1,0-.2-1.2-1.2-3.1-2.3-1.9-1.1-3.4-1.8-3.6-1.6h0c0,0,0,0,0,0h0ZM13.4,13.8c.1-.3-1.4-1.4-3.2-2.5-1.9-1.1-3.3-1.7-3.5-1.5h0c0,.1,0,0,0,0,0,0,.1,0,.2,0,.4,0,1.7.6,3.4,1.6.8.4,3.2,2,3.2,2.5,0,0,0,0,0,0h0"/>
    <path d="M13,14.5s0,0,0,0c0,0,0,0,0,0h0s0,0,0,0c0,0,0,0,0-.1,0-.2-1.3-1.2-3.1-2.3-1.6-.9-3-1.6-3.5-1.6s0,0,0,0c0,0,0,0,0,0,0,0,0,0,0,0h0c0,0,0,0,0,0,0,0,0,0,0,0,.4,0,2,.7,3.5,1.6,1.5.9,3.1,2,3.2,2.4,0,0,0,0,0,0h0c0,0,0,0,0,0h0s0,0,0,0ZM6.4,10.4c.4,0,1.9.7,3.5,1.6,1.9,1.1,3.1,2.1,3.1,2.3,0,0,0,0,0,0h0c0,0,0,0,0-.1,0-.3-1.7-1.4-3.2-2.3-1.5-.9-3-1.6-3.5-1.6s0,0,0,0h0s0,0,0,0ZM13.3,14s0,0,0,0c0,0,0,0,0,0h0s0,0,0,0h0c0-.5-2.5-2.1-3.2-2.5-1.7-1-3-1.6-3.4-1.6h0s-.1,0-.1,0c0,0,0,0,0,0,0,0,0,0,0,0s0,0,0,0c0,0,0,0,0,0,0,0,0,0,0,0h0c0-.1,0-.1,0-.1,0,0,0,0,.1,0,.5,0,2.2.9,3.4,1.6,1.7,1,3.4,2.2,3.2,2.5h0c0,0,0,0,0,0,0,0,0,0,0,0ZM6.7,9.8c.4,0,1.7.6,3.4,1.6.5.3,3.2,2,3.2,2.5h0s0,0,0,0c.1-.3-1.3-1.4-3.2-2.5-1.8-1-3-1.6-3.4-1.6s0,0-.1,0h0s0,0,.1,0h0Z"/>
    <path class="st2" d="M7.6,12.4c0,.6.3,1.2.7,1.6.4.4,1,.7,1.6.7s1.2-.3,1.6-.7c.4-.4.7-1,.7-1.6h0v-3.1h-4.7s0,3.1,0,3.1"/>
    <path d="M9.9,14.8c-.6,0-1.2-.2-1.6-.7-.4-.4-.7-1-.7-1.6v-3.1s0,0,0,0h4.7v3.1c0,.6-.2,1.2-.7,1.7-.4.4-1,.7-1.7.7ZM7.6,9.3v3.1c0,.6.2,1.2.7,1.6.4.4,1,.7,1.6.7s1.2-.2,1.6-.7c.4-.4.7-1,.7-1.6v-3.1h-4.6Z"/>
    <path class="st6" d="M7.7,12.4h0c0,.6.3,1.2.7,1.6.4.4,1,.7,1.6.7s1.2-.2,1.6-.7c.4-.4.7-1,.7-1.6v-3h-4.5s0,3,0,3M11.2,10.3v1.9s0,.2,0,.2c0,0,0,.1,0,.2,0,.3-.2.6-.4.8-.2.2-.6.4-.9.4s-.7-.2-.9-.4c-.2-.2-.4-.6-.4-.9v-2.1s2.7,0,2.7,0"/>
    <path d="M9.9,14.7c-.6,0-1.2-.2-1.6-.7-.4-.4-.7-1-.7-1.6h0s0,0,0,0c0,.6.2,1.1.7,1.6.4.4,1,.7,1.6.7s1.1-.2,1.6-.6c.4-.4.7-1,.7-1.6v-3h-4.4s0,3,0,3h0v-3s4.5,0,4.5,0v3c0,.6-.2,1.2-.7,1.6-.4.4-1,.7-1.6.7ZM9.9,13.8c-.3,0-.7-.1-.9-.4-.3-.3-.4-.6-.4-.9v-2.1s0,0,0,0h2.7s0,0,0,0h0s0,1.9,0,1.9v.2c0,0,0,.1,0,.2,0,.3-.2.6-.4.8-.3.3-.6.4-1,.4ZM8.6,10.3v2.1c0,.3.1.7.4.9.3.3.6.4.9.4s.7-.1.9-.4c.2-.2.3-.5.4-.8,0,0,0-.1,0-.2v-.2s0-1.9,0-1.9h-2.6Z"/>
    <path class="st0" d="M9.6,12.1h0c0,0,0,.2,0,.2,0,0,.1,0,.2,0s.2,0,.2,0c0,0,0-.1,0-.2v-.4h-.6s0,.4,0,.4"/>
    <path class="st0" d="M9.6,13.1h0c0,0,0,.2,0,.2,0,0,.1,0,.2,0s.2,0,.2,0c0,0,0-.1,0-.2v-.4h-.6s0,.4,0,.4"/>
    <path class="st0" d="M8.8,12.1h0c0,0,0,.2,0,.2,0,0,.1,0,.2,0s.2,0,.2,0c0,0,0-.1,0-.2v-.4h-.6s0,.4,0,.4"/>
    <path class="st0" d="M10.4,12.1h0c0,0,0,.2,0,.2,0,0,.1,0,.2,0s.2,0,.2,0c0,0,0-.1,0-.2v-.4h-.6s0,.4,0,.4"/>
    <path class="st0" d="M9.6,11.1h0c0,0,0,.2,0,.2,0,0,.1,0,.2,0s.2,0,.2,0c0,0,0-.1,0-.2v-.4h-.6s0,.4,0,.4"/>
    <polyline class="st5" points="8.4 9.7 8.4 9.8 8.3 9.8 8.3 9.7 8.4 9.7"/>
    <path class="st5" d="M8,10.2c0-.2.2-.3.2-.3,0,0,.2,0,.2.3h-.3"/>
    <path class="st5" d="M7.8,9.9v.2s.1,0,.1,0c0-.2.2-.2.2-.2,0,0,.2,0,.2.2h.2v-.3s-.6,0-.6,0"/>
    <path d="M8,10.2h-.2s0-.3,0-.3h.6s0,.3,0,.3h-.2c0-.2-.2-.2-.2-.2,0,0-.1,0-.1.2h0ZM8.3,10.2h.1v-.2s-.3,0-.3,0c0,0,.1,0,.1.2ZM7.8,10.2h.1c0-.2,0-.2.1-.2h-.3s0,.2,0,.2Z"/>
    <path class="st5" d="M7.8,10.2h.7s0,0,0,0,0,0,0,0h-.7s0,0,0,0,0,0,0,0"/>
    <path d="M8.5,10.3h-.7s0,0,0,0,0,0,0,0h.7s0,0,0,0,0,0,0,0ZM7.8,10.2s0,0,0,0,0,0,0,0h.7s0,0,0,0,0,0,0,0h-.7Z"/>
    <path class="st5" d="M8,10.2c0-.1,0-.2,0-.2,0,0,0,0,0,.2h-.2"/>
    <path d="M8.2,10.2h-.2,0c0-.1,0-.2,0-.2h0s0,0,0,.2h0ZM8,10.2h.2c0,0,0-.1,0-.1,0,0,0,0,0,.1Z"/>
    <path class="st5" d="M7.8,9.8h.6s0,0,0,0,0,0,0,0h-.6s0,0,0,0,0,0,0,0"/>
    <path d="M8.4,9.9h-.6s0,0,0,0,0,0,0,0h.6s0,0,0,0,0,0,0,0ZM7.8,9.8s0,0,0,0,0,0,0,0h.6s0,0,0,0,0,0,0,0h-.6Z"/>
    <path class="st5" d="M7.8,9.9h.6s0,0,0,0,0,0,0,0h-.6s0,0,0,0,0,0,0,0"/>
    <path d="M8.4,10h-.6s0,0,0,0,0,0,0,0h.6s0,0,0,0,0,0,0,0ZM7.8,9.9s0,0,0,0,0,0,0,0h.6s0,0,0,0,0,0,0,0h-.6Z"/>
    <path class="st5" d="M8,9.5h0s0,0,0,0h0s0,0,0,0h0s0,0,0,0h0s0,0,0,0h0c0,0,0,0,0,0h-.2s0,0,0,0h0"/>
    <path d="M8.2,9.6h-.2s0,0,0,0h0c0,0,0,0,0,0h0s0,0,0,0h0s0,0,0,0h0s0,0,0,0h0s0,0,0,0h0c0,.1,0,.1,0,.1ZM8,9.5h0c0,0,0,0,0,0h.2s0,0,0,0h0c0,0,0,0,0,0h0s0,0,0,0h0s0,0,0,0h0s0,0,0,0h0s0,0,0,0Z"/>
    <polygon class="st5" points="8.2 9.6 8.2 9.8 8 9.8 8.1 9.6 8.2 9.6"/>
    <path d="M8.2,9.8h-.2s0-.3,0-.3h.2s0,.3,0,.3ZM8.1,9.8h.1s0-.2,0-.2h-.1s0,.2,0,.2Z"/>
    <path class="st5" d="M8.2,9.6h0s0,0,0,0h0s0,0,0,0h0s0,0,0,0h0s0,0,0,0h0c0,0,0,0,0,0h-.2s0,0,0,0h0"/>
    <path d="M8.4,9.8h-.2v-.2h.2s0,0,0,0h0ZM8.3,9.8h.1,0c0-.1-.1-.1-.1-.1h0Z"/>
    <path d="M8.4,9.7h-.2s0,0,0,0h0c0,0,0,0,0,0h0s0,0,0,0h0s0,0,0,0h0s0,0,0,0h0s0,0,0,0h0c0,.1,0,.1,0,.1ZM8.2,9.6h0c0,0,0,0,0,0h.2s0,0,0,0h0c0,0,0,0,0,0h0s0,0,0,0h0s0,0,0,0h0s0,0,0,0h0s0,0,0,0Z"/>
    <path class="st5" d="M7.8,9.6h0s0,0,0,0h0s0,0,0,0h0s0,0,0,0h0s0,0,0,0h0c0,0,0,0,0,0h-.2s0,0,0,0h0"/>
    <path d="M8,9.7h-.2s0,0,0,0h0c0,0,0,0,0,0h0s0,0,0,0h0s0,0,0,0h0s0,0,0,0h0s0,0,0,0h0c0,.1,0,.1,0,.1ZM7.8,9.6h0c0,0,0,0,0,0h.2s0,0,0,0h0c0,0,0,0,0,0h0s0,0,0,0h0s0,0,0,0h0s0,0,0,0h0s0,0,0,0Z"/>
    <polyline class="st5" points="8 9.7 8 9.8 7.8 9.8 7.8 9.7 8 9.7"/>
    <path d="M8,9.8h-.2v-.2h.2s0,.2,0,.2ZM7.8,9.8h.1,0c0-.1-.1-.1-.1-.1h0Z"/>
    <path class="st4" d="M8.1,9.7s0,0,0,0h0c0,0,0,0,0,0h0"/>
    <path class="st4" d="M8.3,9.8s0,0,0,0h0s0,0,0,0h0"/>
    <path class="st4" d="M7.9,9.8s0,0,0,0h0s0,0,0,0h0"/>
    <polyline class="st5" points="10.2 9.7 10.2 9.8 10 9.8 10.1 9.7 10.2 9.7"/>
    <path class="st5" d="M9.8,10.2c0-.2.2-.3.2-.3,0,0,.2,0,.2.3h-.3"/>
    <path class="st5" d="M9.6,9.9v.2s.1,0,.1,0c0-.2.2-.2.2-.2,0,0,.2,0,.2.2h.2v-.3s-.6,0-.6,0"/>
    <path d="M9.8,10.2h-.2s0-.3,0-.3h.6s0,.3,0,.3h-.2c0-.2-.2-.2-.2-.2,0,0-.1,0-.1.2h0ZM10.1,10.2h.1v-.2s-.3,0-.3,0c0,0,.1,0,.1.2ZM9.6,10.2h.1c0-.2,0-.2.1-.2h-.3s0,.2,0,.2Z"/>
    <path class="st5" d="M9.6,10.2h.7s0,0,0,0,0,0,0,0h-.7s0,0,0,0,0,0,0,0"/>
    <path d="M10.3,10.3h-.7s0,0,0,0,0,0,0,0h.7s0,0,0,0,0,0,0,0ZM9.6,10.2s0,0,0,0,0,0,0,0h.7s0,0,0,0,0,0,0,0h-.7Z"/>
    <path class="st5" d="M9.8,10.2c0-.1,0-.2,0-.2,0,0,0,0,0,.2h-.2"/>
    <path d="M10,10.2h-.2,0c0-.1,0-.2,0-.2h0s0,0,0,.2h0ZM9.8,10.2h.2c0,0,0-.1,0-.1,0,0,0,0,0,.1Z"/>
    <path class="st5" d="M9.6,9.8h.6s0,0,0,0,0,0,0,0h-.6s0,0,0,0,0,0,0,0"/>
    <path d="M10.2,9.9h-.6s0,0,0,0,0,0,0,0h.6s0,0,0,0,0,0,0,0ZM9.6,9.8s0,0,0,0,0,0,0,0h.6s0,0,0,0,0,0,0,0h-.6Z"/>
    <path class="st5" d="M9.6,9.9h.6s0,0,0,0,0,0,0,0h-.6s0,0,0,0,0,0,0,0"/>
    <path d="M10.2,10h-.6s0,0,0,0,0,0,0,0h.6s0,0,0,0,0,0,0,0ZM9.6,9.9s0,0,0,0,0,0,0,0h.6s0,0,0,0,0,0,0,0h-.6Z"/>
    <path class="st5" d="M9.8,9.5h0s0,0,0,0h0s0,0,0,0h0s0,0,0,0h0s0,0,0,0h0c0,0,0,0,0,0h-.2s0,0,0,0h0"/>
    <path d="M10,9.6h-.2s0,0,0,0h0c0,0,0,0,0,0h0s0,0,0,0h0s0,0,0,0h0s0,0,0,0h0s0,0,0,0h0c0,.1,0,.1,0,.1ZM9.8,9.5h0c0,0,0,0,0,0h.2s0,0,0,0h0c0,0,0,0,0,0h0s0,0,0,0h0s0,0,0,0h0s0,0,0,0h0s0,0,0,0Z"/>
    <polygon class="st5" points="10 9.6 10 9.8 9.8 9.8 9.8 9.6 10 9.6"/>
    <path d="M10,9.8h-.2s0-.3,0-.3h.2s0,.3,0,.3ZM9.8,9.8h.1s0-.2,0-.2h-.1s0,.2,0,.2Z"/>
    <path class="st5" d="M10,9.6h0s0,0,0,0h0s0,0,0,0h0s0,0,0,0h0s0,0,0,0h0c0,0,0,0,0,0h-.2s0,0,0,0h0"/>
    <path d="M10.2,9.8h-.2v-.2h.2v.2ZM10.1,9.8h.1,0c0-.1-.1-.1-.1-.1h0Z"/>
    <path d="M10.2,9.7h-.2s0,0,0,0h0c0,0,0,0,0,0h0s0,0,0,0h0s0,0,0,0h0s0,0,0,0h0s0,0,0,0h0c0,.1,0,.1,0,.1ZM10,9.6h0c0,0,0,0,0,0h.2s0,0,0,0h0c0,0,0,0,0,0h0s0,0,0,0h0s0,0,0,0h0s0,0,0,0h0s0,0,0,0Z"/>
    <path class="st5" d="M9.6,9.6h0s0,0,0,0h0s0,0,0,0h0s0,0,0,0h0s0,0,0,0h0c0,0,0,0,0,0h-.2s0,0,0,0h0"/>
    <path d="M9.8,9.7h-.2s0,0,0,0h0c0,0,0,0,0,0h0s0,0,0,0h0s0,0,0,0h0s0,0,0,0h0s0,0,0,0h0c0,.1,0,.1,0,.1ZM9.6,9.6h0c0,0,0,0,0,0h.2s0,0,0,0h0c0,0,0,0,0,0h0s0,0,0,0h0s0,0,0,0h0s0,0,0,0h0s0,0,0,0Z"/>
    <polyline class="st5" points="9.8 9.7 9.8 9.8 9.6 9.8 9.6 9.7 9.8 9.7"/>
    <path d="M9.8,9.8h-.2v-.2h.2s0,0,0,0h0ZM9.6,9.8h.1,0c0-.1-.1-.1-.1-.1h0Z"/>
    <path class="st4" d="M9.9,9.7s0,0,0,0h0c0,0,0,0,0,0h0"/>
    <path class="st4" d="M10.1,9.8s0,0,0,0h0s0,0,0,0h0"/>
    <path class="st4" d="M9.7,9.8s0,0,0,0h0s0,0,0,0h0"/>
    <polyline class="st5" points="12 9.7 12 9.8 11.8 9.8 11.8 9.7 12 9.7"/>
    <path class="st5" d="M11.5,10.2c0-.2.2-.3.2-.3,0,0,.2,0,.2.3h-.3"/>
    <path class="st5" d="M11.4,9.9v.2s.1,0,.1,0c0-.2.2-.2.2-.2,0,0,.2,0,.2.2h.2v-.3s-.6,0-.6,0"/>
    <path d="M11.5,10.2h-.2s0-.3,0-.3h.6s0,.3,0,.3h-.2c0-.2-.2-.2-.2-.2,0,0-.1,0-.1.2h0ZM11.9,10.2h.1v-.2s-.3,0-.3,0c0,0,.1,0,.1.2ZM11.4,10.2h.1c0-.2,0-.2.1-.2h-.3s0,.2,0,.2Z"/>
    <path class="st5" d="M11.4,10.2h.7s0,0,0,0,0,0,0,0h-.7s0,0,0,0,0,0,0,0"/>
    <path d="M12,10.3h-.7s0,0,0,0,0,0,0,0h.7s0,0,0,0,0,0,0,0ZM11.4,10.2s0,0,0,0,0,0,0,0h.7s0,0,0,0,0,0,0,0h-.7Z"/>
    <path class="st5" d="M11.6,10.2c0-.1,0-.2,0-.2s0,0,0,.2h-.2"/>
    <path d="M11.8,10.2h-.2,0c0-.1,0-.2,0-.2s.1,0,.1.2h0ZM11.6,10.2h.2c0,0,0-.1,0-.1,0,0,0,0,0,.1Z"/>
    <path class="st5" d="M11.4,9.8h.6s0,0,0,0,0,0,0,0h-.6s0,0,0,0,0,0,0,0"/>
    <path d="M12,9.9h-.6s0,0,0,0,0,0,0,0h.6s0,0,0,0,0,0,0,0ZM11.4,9.8s0,0,0,0,0,0,0,0h.6s0,0,0,0,0,0,0,0h-.6Z"/>
    <path class="st5" d="M11.4,9.9h.6s0,0,0,0,0,0,0,0h-.6s0,0,0,0,0,0,0,0"/>
    <path d="M12,10h-.6s0,0,0,0,0,0,0,0h.6s0,0,0,0,0,0,0,0ZM11.4,9.9s0,0,0,0,0,0,0,0h.6s0,0,0,0,0,0,0,0h-.6Z"/>
    <path class="st5" d="M11.6,9.5h0s0,0,0,0h0s0,0,0,0h0s0,0,0,0h0s0,0,0,0h0c0,0,0,0,0,0h-.2s0,0,0,0h0"/>
    <path d="M11.8,9.6h-.2s0,0,0,0h0c0,0,0,0,0,0h0s0,0,0,0h0s0,0,0,0h0s0,0,0,0h0s0,0,0,0h0c0,.1,0,.1,0,.1ZM11.6,9.5h0c0,0,0,0,0,0h.2s0,0,0,0h0c0,0,0,0,0,0h0s0,0,0,0h0s0,0,0,0h0s0,0,0,0h0s0,0,0,0Z"/>
    <polygon class="st5" points="11.8 9.6 11.8 9.8 11.6 9.8 11.6 9.6 11.8 9.6"/>
    <path d="M11.8,9.8h-.2s0-.3,0-.3h.2s0,.3,0,.3ZM11.6,9.8h.1s0-.2,0-.2h-.1s0,.2,0,.2Z"/>
    <path class="st5" d="M11.8,9.6h0s0,0,0,0h0s0,0,0,0h0s0,0,0,0h0s0,0,0,0h0c0,0,0,0,0,0h-.2s0,0,0,0h0"/>
    <path d="M12,9.8h-.2v-.2h.2v.2ZM11.8,9.8h.1,0c0-.1-.1-.1-.1-.1h0Z"/>
    <path d="M12,9.7h-.2s0,0,0,0h0c0,0,0,0,0,0h0s0,0,0,0h0s0,0,0,0h0s0,0,0,0h0s0,0,0,0h0c0,.1,0,.1,0,.1ZM11.8,9.6h0c0,0,0,0,0,0h.2s0,0,0,0h0c0,0,0,0,0,0h0s0,0,0,0h0s0,0,0,0h0s0,0,0,0h0s0,0,0,0Z"/>
    <path class="st5" d="M11.4,9.6h0s0,0,0,0h0s0,0,0,0h0s0,0,0,0h0s0,0,0,0h0c0,0,0,0,0,0h-.2s0,0,0,0h0"/>
    <path d="M11.6,9.7h-.2s0,0,0,0h0c0,0,0,0,0,0h0s0,0,0,0h0s0,0,0,0h0s0,0,0,0h0s0,0,0,0h0c0,.1,0,.1,0,.1ZM11.4,9.6h0c0,0,0,0,0,0h.2s0,0,0,0h0c0,0,0,0,0,0h0s0,0,0,0h0s0,0,0,0h0s0,0,0,0h0s0,0,0,0Z"/>
    <polyline class="st5" points="11.6 9.7 11.6 9.8 11.4 9.8 11.4 9.7 11.6 9.7"/>
    <path d="M11.6,9.8h-.2v-.2h.2s0,0,0,0h0ZM11.4,9.8h.1,0c0-.1-.1-.1-.1-.1h0Z"/>
    <path class="st4" d="M11.7,9.7s0,0,0,0h0c0,0,0,0,0,0h0"/>
    <path class="st4" d="M11.9,9.8s0,0,0,0h0s0,0,0,0h0"/>
    <path class="st4" d="M11.5,9.8s0,0,0,0h0s0,0,0,0h0"/>
    <polygon class="st5" points="8.4 11.5 8.4 11.7 8.3 11.7 8.3 11.5 8.4 11.5"/>
    <path class="st5" d="M8,12c0-.2.2-.3.2-.3,0,0,.2,0,.2.3h-.3"/>
    <path class="st5" d="M7.8,11.8v.2s.1,0,.1,0c0-.2.2-.2.2-.2,0,0,.2,0,.2.2h.2v-.3s-.6,0-.6,0"/>
    <path d="M8,12h-.2s0-.3,0-.3h.6s0,.3,0,.3h-.2c0-.2-.2-.2-.2-.2,0,0-.1,0-.1.2h0ZM8.3,12h.1v-.2s-.3,0-.3,0c0,0,.1,0,.1.2ZM7.8,12h.1c0-.2,0-.2.1-.2h-.3s0,.2,0,.2Z"/>
    <path class="st5" d="M7.8,12h.7s0,0,0,0,0,0,0,0h-.7s0,0,0,0,0,0,0,0"/>
    <path d="M8.5,12.1h-.7s0,0,0,0,0,0,0,0h.7s0,0,0,0,0,0,0,0ZM7.8,12s0,0,0,0,0,0,0,0h.7s0,0,0,0,0,0,0,0h-.7Z"/>
    <path class="st5" d="M8,12c0-.1,0-.2,0-.2,0,0,0,0,0,.2h-.2"/>
    <path d="M8.2,12h-.2,0c0-.1,0-.2,0-.2,0,0,.1,0,.1.2h0ZM8,12h.2c0,0,0-.1,0-.1,0,0,0,0,0,.1Z"/>
    <path class="st5" d="M7.8,11.7h.6s0,0,0,0,0,0,0,0h-.6s0,0,0,0,0,0,0,0"/>
    <path d="M8.4,11.7h-.6s0,0,0,0,0,0,0,0h.6s0,0,0,0,0,0,0,0ZM7.8,11.7s0,0,0,0,0,0,0,0h.6s0,0,0,0,0,0,0,0h-.6Z"/>
    <path class="st5" d="M7.8,11.7h.6s0,0,0,0,0,0,0,0h-.6s0,0,0,0,0,0,0,0"/>
    <path d="M8.4,11.8h-.6s0,0,0,0,0,0,0,0h.6s0,0,0,0,0,0,0,0ZM7.8,11.7s0,0,0,0,0,0,0,0h.6s0,0,0,0,0,0,0,0h-.6Z"/>
    <path class="st5" d="M8,11.3h0s0,0,0,0h0s0,0,0,0h0s0,0,0,0h0s0,0,0,0h0c0,0,0,0,0,0h-.2s0,0,0,0h0"/>
    <path d="M8.2,11.4h-.2s0,0,0,0h0c0,0,0,0,0,0h0s0,0,0,0h0s0,0,0,0h0s0,0,0,0h0s0,0,0,0h0c0,.1,0,.1,0,.1ZM8,11.3h0c0,0,0,0,0,0h.2s0,0,0,0h0c0,0,0,0,0,0h0s0,0,0,0h0s0,0,0,0h0s0,0,0,0h0s0,0,0,0Z"/>
    <polyline class="st5" points="8.2 11.4 8.2 11.7 8 11.7 8.1 11.4 8.2 11.4"/>
    <path d="M8.2,11.7h-.2s0-.3,0-.3h.2s0,.3,0,.3ZM8.1,11.6h.1s0-.2,0-.2h-.1s0,.2,0,.2Z"/>
    <path class="st5" d="M8.2,11.4h0s0,0,0,0h0s0,0,0,0h0s0,0,0,0h0s0,0,0,0h0c0,0,0,0,0,0h-.2s0,0,0,0h0"/>
    <path d="M8.4,11.7h-.2v-.2h.2v.2ZM8.3,11.6h.1,0c0-.1-.1-.1-.1-.1h0Z"/>
    <path d="M8.4,11.5h-.2s0,0,0,0h0c0,0,0,0,0,0h0s0,0,0,0h0s0,0,0,0h0s0,0,0,0h0s0,0,0,0h0c0,.1,0,.1,0,.1ZM8.2,11.4h0c0,0,0,0,0,0h.2s0,0,0,0h0c0,0,0,0,0,0h0s0,0,0,0h0s0,0,0,0h0s0,0,0,0h0s0,0,0,0Z"/>
    <path class="st5" d="M7.8,11.4h0s0,0,0,0h0s0,0,0,0h0s0,0,0,0h0s0,0,0,0h0c0,0,0,0,0,0h-.2s0,0,0,0h0"/>
    <path d="M8,11.5h-.2s0,0,0,0h0c0,0,0,0,0,0h0s0,0,0,0h0s0,0,0,0h0s0,0,0,0h0s0,0,0,0h0c0,.1,0,.1,0,.1ZM7.8,11.4h0c0,0,0,0,0,0h.2s0,0,0,0h0c0,0,0,0,0,0h0s0,0,0,0h0s0,0,0,0h0s0,0,0,0h0s0,0,0,0Z"/>
    <polygon class="st5" points="8 11.5 8 11.7 7.8 11.7 7.8 11.5 8 11.5"/>
    <path d="M8,11.7h-.2v-.2h.2s0,.2,0,.2ZM7.8,11.6h.1,0c0-.1-.1-.1-.1-.1h0Z"/>
    <path class="st4" d="M8.1,11.5s0,0,0,0h0c0,0,0,0,0,0h0"/>
    <path class="st4" d="M8.3,11.6s0,0,0,0h0s0,0,0,0h0"/>
    <path class="st4" d="M7.9,11.6s0,0,0,0h0s0,0,0,0h0"/>
    <polygon class="st5" points="11.6 13.6 11.5 13.7 11.4 13.6 11.5 13.5 11.6 13.6"/>
    <path class="st5" d="M10.9,13.7c.2-.1.3,0,.3,0,0,0,0,.2,0,.3l-.2-.2"/>
    <path class="st5" d="M11,13.4l-.2.2h.1c.1,0,.3,0,.3,0,0,0,0,.1,0,.3h.1c0,.1.2,0,.2,0l-.4-.4"/>
    <path d="M11.3,14h-.1c0-.1,0-.1,0-.1.1-.1,0-.3,0-.3,0,0,0,0,0,0s-.1,0-.2,0h0s-.1-.1-.1-.1l.2-.2h0s0,0,0,0l.4.4-.2.2ZM11.2,13.9h.1c0,.1.1,0,.1,0l-.2-.2s0,0,0,0c0,0,0,.1,0,.2ZM10.8,13.6h0c0,0,.1,0,.2,0s0,0,0,0l-.2-.2h-.2Z"/>
    <path class="st5" d="M10.8,13.6l.5.5s0,0,0,0c0,0,0,0,0,0l-.5-.5s0,0,0,0c0,0,0,0,0,0"/>
    <path d="M11.3,14.1s0,0,0,0l-.5-.5s0,0,0,0,0,0,0,0c0,0,0,0,0,0l.5.5s0,0,0,0c0,0,0,0,0,0ZM10.8,13.6s0,0,0,0,0,0,0,0c0,0,0,0,0,0l.5.5s0,0,0,0c0,0,0,0,0,0,0,0,0,0,0,0l-.5-.5s0,0,0,0Z"/>
    <path class="st5" d="M11,13.7c0,0,.2,0,.2,0,0,0,0,0,0,.2h-.1"/>
    <path d="M11.1,13.9h-.1c0-.1,0-.1,0-.1,0,0,.1,0,.1,0s0,0,0,0c0,0,0,.1,0,.2h0ZM11,13.7h.1c0,0,0,0,0,0,0,0,0,0-.2,0Z"/>
    <path class="st5" d="M11.1,13.3l.5.5s0,0,0,0c0,0,0,0,0,0l-.5-.5s0,0,0,0c0,0,0,0,0,0"/>
    <path d="M11.5,13.8s0,0,0,0l-.5-.5s0,0,0,0c0,0,0,0,0,0,0,0,0,0,0,0l.5.5s0,0,0,0,0,0,0,0c0,0,0,0,0,0ZM11.1,13.3s0,0,0,0c0,0,0,0,0,0,0,0,0,0,0,0l.5.5s0,0,0,0c0,0,0,0,0,0,0,0,0,0,0,0,0,0,0,0,0,0l-.5-.5s0,0,0,0Z"/>
    <path class="st5" d="M11,13.4l.4.4s0,0,0,0c0,0,0,0,0,0l-.4-.4s0,0,0,0c0,0,0,0,0,0"/>
    <path d="M11.5,13.9s0,0,0,0l-.4-.4s0,0,0,0c0,0,0,0,0,0,0,0,0,0,0,0l.4.4s0,0,0,0c0,0,0,0,0,0ZM11,13.4s0,0,0,0c0,0,0,0,0,0,0,0,0,0,0,0l.4.4s0,0,0,0c0,0,0,0,0,0,0,0,0,0,0,0l-.4-.4s0,0,0,0Z"/>
    <path class="st5" d="M11.5,13.2h0s0,0,0,0h0s0,0,0,0h0s0,0,0,0h0s0,0,0,0h0s0,0,0,0c0,0,0,0,0,0h-.1c0-.1,0-.1,0-.1h0"/>
    <path d="M11.6,13.4s0,0,0,0h-.1c0-.1,0-.1,0-.1,0,0,0,0,0,0h0c0,0,0,0,0,0h0s0,0,0,0h0s0,0,0,0h0s0,0,0,0h0s0,0,0,0h0s0,.1,0,.1c0,0,0,0,0,0ZM11.5,13.2h0c0,0,0,0,0,0,0,0,0,0,0,0h.1c0,.1,0,.1,0,.1h0s0,0,0,0h0s0,0,0,0h0s0,0,0,0h0s0,0,0,0h0s0,0,0,0Z"/>
    <polyline class="st5" points="11.5 13.4 11.4 13.6 11.2 13.5 11.4 13.3 11.5 13.4"/>
    <path d="M11.4,13.6h-.1c0-.1.2-.3.2-.3h.1c0,.1-.2.3-.2.3ZM11.3,13.5h.1c0,.1.2,0,.2,0h0c0,0-.2,0-.2,0Z"/>
    <path class="st5" d="M11.5,13.4h0s0,0,0,0h0s0,0,0,0h0s0,0,0,0h0s0,0,0,0h0s0,0,0,0c0,0,0,0,0,0h-.1c0-.1,0-.1,0-.1h0"/>
    <path d="M11.5,13.8h-.1c0-.1.1-.2.1-.2h.1c0,.1,0,.1,0,.1h0ZM11.4,13.6h.1c0,0,0,0,0,0h0c0,0,0,0,0,0Z"/>
    <path d="M11.6,13.7s0,0,0,0h-.1c0-.1,0-.1,0-.1,0,0,0,0,0,0h0c0,0,0,0,0,0h0s0,0,0,0h0s0,0,0,0h0s0,0,0,0h0s0,0,0,0h0c0,0,0,0,0,0ZM11.5,13.5h0c0,0,0,0,0,0,0,0,0,0,0,0h.1c0,.1,0,.1,0,.1h0s0,0,0,0h0s0,0,0,0h0s0,0,0,0h0s0,0,0,0h0s0,0,0,0Z"/>
    <path class="st5" d="M11.2,13.2h0s0,0,0,0h0s0,0,0,0h0s0,0,0,0h0s0,0,0,0h0s0,0,0,0c0,0,0,0,0,0h-.1c0-.1,0-.1,0-.1h0"/>
    <path d="M11.3,13.4s0,0,0,0h-.1c0-.1,0-.2,0-.2h0c0,0,0,0,0,0h0s0,0,0,0h0s0,0,0,0h0s0,0,0,0h0s0,0,0,0h0c0,0,0,0,0,0ZM11.2,13.2h0c0,0,0,0,0,0h.1c0,.1,0,.1,0,.1h0s0,0,0,0h0s0,0,0,0h0s0,0,0,0h0s0,0,0,0h0s0,0,0,0Z"/>
    <polygon class="st5" points="11.3 13.4 11.2 13.5 11.1 13.3 11.2 13.2 11.3 13.4"/>
    <path d="M11.2,13.5h-.1c0-.1.1-.2.1-.2h.1c0,.1-.1.2-.1.2ZM11.1,13.3h.1c0,.1,0,0,0,0h0c0,0,0,0,0,0Z"/>
    <path class="st4" d="M11.4,13.4s0,0,0,0h0s0,0,0,0h0"/>
    <path class="st4" d="M11.5,13.6s0,0,0,0h0s0,0,0,0h0"/>
    <path class="st4" d="M11.2,13.3s0,0,0,0h0s0,0,0,0h0"/>
    <polygon class="st5" points="12 11.5 12 11.7 11.8 11.7 11.8 11.5 12 11.5"/>
    <path class="st5" d="M11.5,12c0-.2.2-.3.2-.3,0,0,.2,0,.2.3h-.3"/>
    <path class="st5" d="M11.4,11.8v.2s.1,0,.1,0c0-.2.2-.2.2-.2,0,0,.2,0,.2.2h.2v-.3s-.6,0-.6,0"/>
    <path d="M11.5,12h-.2s0-.3,0-.3h0s.6,0,.6,0v.3s-.2,0-.2,0h0c0-.2-.2-.2-.2-.2,0,0-.1,0-.1.2h0ZM11.9,12h.1v-.2s-.3,0-.3,0c0,0,.1,0,.1.2ZM11.4,12h.1c0-.2,0-.2.1-.2h-.3s0,.2,0,.2Z"/>
    <path class="st5" d="M11.4,12h.7s0,0,0,0,0,0,0,0h-.7s0,0,0,0,0,0,0,0"/>
    <path d="M12,12.1h-.7s0,0,0,0,0,0,0,0h.7s0,0,0,0,0,0,0,0ZM11.4,12s0,0,0,0,0,0,0,0h.7s0,0,0,0,0,0,0,0h-.7Z"/>
    <path class="st5" d="M11.6,12c0-.1,0-.2,0-.2,0,0,0,0,0,.2h-.2"/>
    <path d="M11.8,12h-.2,0c0-.1,0-.2,0-.2,0,0,.1,0,.1.2h0ZM11.6,12h.2c0,0,0-.1,0-.1,0,0,0,0,0,.1Z"/>
    <path class="st5" d="M11.4,11.7h.6s0,0,0,0,0,0,0,0h-.6s0,0,0,0,0,0,0,0"/>
    <path d="M12,11.7h-.6s0,0,0,0,0,0,0,0h.6s0,0,0,0,0,0,0,0ZM11.4,11.7s0,0,0,0,0,0,0,0h.6s0,0,0,0,0,0,0,0h-.6Z"/>
    <path class="st5" d="M11.4,11.7h.6s0,0,0,0,0,0,0,0h-.6s0,0,0,0,0,0,0,0"/>
    <path d="M12,11.8h-.6s0,0,0,0,0,0,0,0h.6s0,0,0,0,0,0,0,0ZM11.4,11.7s0,0,0,0,0,0,0,0h.6s0,0,0,0,0,0,0,0h-.6Z"/>
    <path class="st5" d="M11.6,11.3h0s0,0,0,0h0s0,0,0,0h0s0,0,0,0h0s0,0,0,0h0c0,0,0,0,0,0h-.2s0,0,0,0h0"/>
    <path d="M11.8,11.4h-.2s0,0,0,0h0c0,0,0,0,0,0h0s0,0,0,0h0s0,0,0,0h0s0,0,0,0h0s0,0,0,0h0c0,.1,0,.1,0,.1ZM11.6,11.3h0c0,0,0,0,0,0h.2s0,0,0,0h0c0,0,0,0,0,0h0s0,0,0,0h0s0,0,0,0h0s0,0,0,0h0s0,0,0,0Z"/>
    <polygon class="st5" points="11.8 11.4 11.8 11.7 11.6 11.7 11.6 11.4 11.8 11.4"/>
    <path d="M11.8,11.7h-.2s0-.3,0-.3h.2s0,.3,0,.3ZM11.6,11.6h.1s0-.2,0-.2h-.1s0,.2,0,.2Z"/>
    <path class="st5" d="M11.8,11.4h0s0,0,0,0h0s0,0,0,0h0s0,0,0,0h0s0,0,0,0h0c0,0,0,0,0,0h-.2s0,0,0,0h0"/>
    <path d="M11.8,11.7v-.2h.2v.2s-.2,0-.2,0ZM11.8,11.5h0c0,.1.1.1.1.1h0c0-.1-.1-.1-.1-.1Z"/>
    <path d="M12,11.5h-.2s0,0,0,0h0c0,0,0,0,0,0h0s0,0,0,0h0s0,0,0,0h0s0,0,0,0h0s0,0,0,0h0c0,.1,0,.1,0,.1ZM11.8,11.4h0c0,0,0,0,0,0h.2s0,0,0,0h0c0,0,0,0,0,0h0s0,0,0,0h0s0,0,0,0h0s0,0,0,0h0s0,0,0,0Z"/>
    <path class="st5" d="M11.4,11.4h0s0,0,0,0h0s0,0,0,0h0s0,0,0,0h0s0,0,0,0h0c0,0,0,0,0,0h-.2s0,0,0,0h0"/>
    <path d="M11.6,11.5h-.2s0,0,0,0h0c0,0,0,0,0,0h0s0,0,0,0h0s0,0,0,0h0s0,0,0,0h0s0,0,0,0h0c0,.1,0,.1,0,.1ZM11.4,11.4h0c0,0,0,0,0,0h.2s0,0,0,0h0c0,0,0,0,0,0h0s0,0,0,0h0s0,0,0,0h0s0,0,0,0h0s0,0,0,0Z"/>
    <polygon class="st5" points="11.6 11.5 11.6 11.7 11.4 11.7 11.4 11.5 11.6 11.5"/>
    <path d="M11.4,11.7v-.2h.2v.2s-.2,0-.2,0ZM11.4,11.5h0c0,.1.1.1.1.1h0c0-.1-.1-.1-.1-.1Z"/>
    <path class="st4" d="M11.7,11.5s0,0,0,0h0c0,0,0,0,0,0h0"/>
    <path class="st4" d="M11.9,11.6s0,0,0,0h0s0,0,0,0h0"/>
    <path class="st4" d="M11.5,11.6s0,0,0,0h0s0,0,0,0h0"/>
    <polygon class="st5" points="8.6 13.2 8.7 13.3 8.6 13.4 8.5 13.3 8.6 13.2"/>
    <path class="st5" d="M8.7,13.9c-.1-.2,0-.3,0-.3,0,0,.2,0,.3,0l-.2.2"/>
    <path class="st5" d="M8.4,13.8l.2.2h.1c-.1-.3,0-.4,0-.4,0,0,.1,0,.3,0h.1c0-.1-.2-.3-.2-.3l-.4.4"/>
    <path d="M8.5,14l-.2-.2h0s0,0,0,0l.4-.4.2.2h-.1c0,.1,0,.1,0,.1,0,0-.1,0-.2,0s0,0,0,0c0,0,0,.1,0,.3h0s-.1.1-.1.1ZM8.4,13.8v.2c.1,0,.2-.1.2-.1,0,0,0-.2,0-.2,0,0,0,0,0,0l-.2.2ZM8.7,13.6c0,0,.1,0,.2,0h.1c0-.1-.2-.2-.2-.2l-.2.2s0,0,0,0Z"/>
    <path class="st5" d="M8.5,14l.5-.5s0,0,0,0c0,0,0,0,0,0l-.5.5s0,0,0,0c0,0,0,0,0,0"/>
    <path d="M8.6,14.1s0,0,0,0c0,0,0,0,0,0,0,0,0,0,0,0l.5-.5s0,0,0,0c0,0,0,0,0,0,0,0,0,0,0,0l-.5.5s0,0,0,0ZM9,13.6s0,0,0,0l-.5.5s0,0,0,0c0,0,0,0,0,0,0,0,0,0,0,0s0,0,0,0l.5-.5s0,0,0,0c0,0,0,0,0,0,0,0,0,0,0,0Z"/>
    <path class="st5" d="M8.7,13.9c0,0,0-.2,0-.2,0,0,0,0,.2,0h-.1"/>
    <path d="M8.7,13.9c0,0,0-.1,0-.2,0,0,0,0,0,0,0,0,.1,0,.2,0h0s-.1.1-.1.1h0s0,0,0,0ZM8.7,13.7s0,0,0,.2h.1c0-.2-.1-.2-.2-.2Z"/>
    <path class="st5" d="M8.3,13.8l.5-.5s0,0,0,0c0,0,0,0,0,0l-.5.5s0,0,0,0c0,0,0,0,0,0"/>
    <path d="M8.3,13.8s0,0,0,0c0,0,0,0,0,0,0,0,0,0,0,0l.5-.5s0,0,0,0c0,0,0,0,0,0l-.5.5s0,0,0,0ZM8.8,13.3s0,0,0,0l-.5.5s0,0,0,0c0,0,0,0,0,0,0,0,0,0,0,0l.5-.5s0,0,0,0c0,0,0,0,0,0Z"/>
    <path class="st5" d="M8.4,13.8l.4-.4s0,0,0,0c0,0,0,0,0,0l-.4.4s0,0,0,0c0,0,0,0,0,0"/>
    <path d="M8.4,13.8s0,0,0,0c0,0,0,0,0,0l.4-.4s0,0,0,0c0,0,0,0,0,0,0,0,0,0,0,0l-.4.4s0,0,0,0ZM8.8,13.4s0,0,0,0l-.4.4s0,0,0,0c0,0,0,0,0,0s0,0,0,0l.4-.4s0,0,0,0c0,0,0,0,0,0,0,0,0,0,0,0Z"/>
    <path class="st5" d="M8.2,13.4h0s0,0,0,0h0s0,0,0,0h0s0,0,0,0h0s0,0,0,0h0s0,0,0,0c0,0,0,0,0,0h-.1c0,.1,0,.1,0,.1h0"/>
    <path d="M8.3,13.4s0,0,0,0h0c0,0,0,0,0,0h0s0,0,0,0h0s0,0,0,0h0s0,0,0,0h0s0,0,0,0h0s0,0,0,0c0,0,0,0,0,0h-.1c0,.1,0,.1,0,.1ZM8.2,13.4h0c0,0,0,0,0,0h.1c0-.1,0-.1,0-.1h0s0,0,0,0h0s0,0,0,0h0s0,0,0,0h0s0,0,0,0h0s0,0,0,0Z"/>
    <polygon class="st5" points="8.4 13.3 8.6 13.5 8.5 13.6 8.3 13.4 8.4 13.3"/>
    <path d="M8.5,13.6l-.2-.2h.1c0-.1.2,0,.2,0h-.1ZM8.3,13.4l.2.2h.1c0-.1-.2-.3-.2-.3h0Z"/>
    <path class="st5" d="M8.4,13.3h0s0,0,0,0h0s0,0,0,0h0s0,0,0,0h0s0,0,0,0h0s0,0,0,0c0,0,0,0,0,0h-.1c0,.1,0,.1,0,.1h0"/>
    <path d="M8.6,13.5h-.1c0-.1.1-.2.1-.2h.1c0,.1-.1.2-.1.2ZM8.5,13.3h0c0,0,0,0,0,0h0c0,0,0,0,0,0Z"/>
    <path d="M8.5,13.4s0,0,0,0h0c0,0,0,0,0,0h0s0,0,0,0h0s0,0,0,0h0s0,0,0,0h0s0,0,0,0h0s0,0,0,0c0,0,0,0,0,0,0,0,0,0,0,0h-.1c0,.1,0,.1,0,.1ZM8.4,13.3h0c0,0,0,0,0,0,0,0,0,0,0,0h.1c0-.1,0-.1,0-.1,0,0,0,0,0,0h0s0,0,0,0h0s0,0,0,0h0s0,0,0,0h0s0,0,0,0h0s0,0,0,0Z"/>
    <path class="st5" d="M8.1,13.6h0s0,0,0,0h0s0,0,0,0h0s0,0,0,0h0s0,0,0,0h0s0,0,0,0c0,0,0,0,0,0h-.1c0,.1,0,.1,0,.1h0"/>
    <path d="M8.2,13.7s0,0,0,0h0c0,0,0-.1,0-.1h0s0,0,0,0h0s0,0,0,0h0s0,0,0,0h0s0,0,0,0h0c0,0,0,0,0,0,0,0,0,0,0,0h-.1c0,.1,0,.1,0,.1ZM8.2,13.6h0c0,0,0,0,0,0,0,0,0,0,0,0h.1c0-.1,0-.1,0-.1,0,0,0,0,0,0h0s0,0,0,0h0s0,0,0,0h0s0,0,0,0h0s0,0,0,0h0s0,0,0,0Z"/>
    <polygon class="st5" points="8.3 13.5 8.4 13.6 8.3 13.7 8.2 13.6 8.3 13.5"/>
    <path d="M8.3,13.8h-.1c0-.1.1-.2.1-.2h.1c0,.1-.1.2-.1.2ZM8.2,13.6h0c0,0,0,0,0,0h0c0,0,0,0,0,0Z"/>
    <path class="st4" d="M8.4,13.4s0,0,0,0h0s0,0,0,0h0"/>
    <path class="st4" d="M8.6,13.3s0,0,0,0h0s0,0,0,0h0"/>
    <path class="st4" d="M8.3,13.6s0,0,0,0h0s0,0,0,0h0"/>
    <path class="st1" d="M10.1,13.1s0,0,0,0,0,0,0,0,0,0,0,0,0,0,0,0"/>
    <path class="st1" d="M9.8,13.1s0,0,0,0,0,0,0,0,0,0,0,0,0,0,0,0"/>
    <path class="st1" d="M9.9,12.9s0,0,0,0,0,0,0,0,0,0,0,0,0,0,0,0"/>
    <path class="st1" d="M10.1,12.8s0,0,0,0,0,0,0,0,0,0,0,0,0,0,0,0"/>
    <path class="st1" d="M10.9,12.1s0,0,0,0,0,0,0,0,0,0,0,0,0,0,0,0"/>
    <path class="st1" d="M10.6,12.1s0,0,0,0,0,0,0,0,0,0,0,0,0,0,0,0"/>
    <path class="st1" d="M10.7,11.9s0,0,0,0,0,0,0,0,0,0,0,0,0,0,0,0"/>
    <path class="st1" d="M10.9,11.8s0,0,0,0,0,0,0,0,0,0,0,0,0,0,0,0"/>
    <path class="st1" d="M10.6,11.8s0,0,0,0,0,0,0,0,0,0,0,0,0,0,0,0"/>
    <path class="st1" d="M10.1,12.1s0,0,0,0,0,0,0,0,0,0,0,0,0,0,0,0"/>
    <path class="st1" d="M9.8,12.1s0,0,0,0,0,0,0,0,0,0,0,0,0,0,0,0"/>
    <path class="st1" d="M9.9,11.9s0,0,0,0,0,0,0,0,0,0,0,0,0,0,0,0"/>
    <path class="st1" d="M10.1,11.8s0,0,0,0,0,0,0,0,0,0,0,0,0,0,0,0"/>
    <path class="st1" d="M9.8,11.8s0,0,0,0,0,0,0,0,0,0,0,0,0,0,0,0"/>
    <path class="st1" d="M9.3,12.1s0,0,0,0,0,0,0,0,0,0,0,0,0,0,0,0"/>
    <path class="st1" d="M9,12.1s0,0,0,0,0,0,0,0,0,0,0,0,0,0,0,0"/>
    <path class="st1" d="M9.1,11.9s0,0,0,0,0,0,0,0,0,0,0,0,0,0,0,0"/>
    <path class="st1" d="M9.3,11.8s0,0,0,0,0,0,0,0,0,0,0,0,0,0,0,0"/>
    <path class="st1" d="M9.8,12.8s0,0,0,0,0,0,0,0,0,0,0,0,0,0,0,0"/>
    <path class="st7" d="M9,11.8s0,0,0,0,0,0,0,0,0,0,0,0,0,0,0,0"/>
    <path class="st1" d="M9.8,10.7s0,0,0,0,0,0,0,0,0,0,0,0,0,0,0,0"/>
    <path class="st1" d="M10.1,10.7s0,0,0,0,0,0,0,0,0,0,0,0,0,0,0,0"/>
    <path class="st1" d="M9.9,10.9s0,0,0,0,0,0,0,0,0,0,0,0,0,0,0,0"/>
    <path class="st1" d="M10.1,11.1s0,0,0,0,0,0,0,0,0,0,0,0,0,0,0,0"/>
    <path class="st1" d="M9.8,11.1s0,0,0,0,0,0,0,0,0,0,0,0,0,0,0,0"/>
    <path class="st1" d="M9,11.8s0,0,0,0,0,0,0,0,0,0,0,0,0,0,0,0"/>
  </g>
</svg>