<svg width="1327" height="617" viewBox="0 0 1327 617" fill="none" xmlns="http://www.w3.org/2000/svg">
<rect width="1327" height="617" fill="#321432"/>
<path fill-rule="evenodd" clip-rule="evenodd" d="M488.533 557.501C488.533 559.033 487.29 560.269 485.767 560.269C484.243 560.269 483 559.025 483 557.501C483 555.977 484.243 554.734 485.767 554.734C487.29 554.734 488.533 555.977 488.533 557.501ZM568.912 546.595C562.891 546.595 558.001 551.478 558.001 557.509C558.001 563.539 562.883 568.423 568.912 568.423C574.941 568.423 579.823 563.539 579.823 557.509C579.823 551.478 574.941 546.595 568.912 546.595ZM652.057 534.408C639.305 534.408 628.963 544.752 628.963 557.509C628.963 570.265 639.305 580.609 652.057 580.609C664.81 580.609 675.152 570.265 675.152 557.509C675.152 544.752 664.81 534.408 652.057 534.408ZM735.21 522.155C715.696 522.155 699.873 537.982 699.873 557.501C699.873 577.021 715.696 592.848 735.21 592.848C754.724 592.848 770.547 577.021 770.547 557.501C770.547 537.982 754.724 522.155 735.21 522.155ZM818.356 519.002C797.096 519.002 779.868 536.243 779.868 557.501C779.868 578.759 797.103 596 818.356 596C839.608 596 856.844 578.759 856.844 557.501C856.844 536.243 839.608 519.002 818.356 519.002ZM901.501 532.047C887.446 532.047 876.054 543.442 876.054 557.501C876.054 571.56 887.446 582.955 901.501 582.955C915.556 582.955 926.948 571.56 926.948 557.501C926.948 543.442 915.556 532.047 901.501 532.047ZM984.654 541.304C975.711 541.304 968.461 548.555 968.461 557.501C968.461 566.447 975.711 573.698 984.654 573.698C993.597 573.698 1000.85 566.447 1000.85 557.501C1000.85 548.555 993.597 541.304 984.654 541.304ZM1067.8 533.157C1054.36 533.157 1043.46 544.057 1043.46 557.501C1043.46 570.946 1054.36 581.845 1067.8 581.845C1081.24 581.845 1092.14 570.946 1092.14 557.501C1092.14 544.057 1081.24 533.157 1067.8 533.157ZM1150.94 525.64C1133.35 525.64 1119.09 539.906 1119.09 557.501C1119.09 575.097 1133.35 589.363 1150.94 589.363C1168.54 589.363 1182.8 575.097 1182.8 557.501C1182.8 539.906 1168.54 525.64 1150.94 525.64ZM1234.1 535.2C1221.78 535.2 1211.8 545.181 1211.8 557.501C1211.8 569.821 1221.78 579.803 1234.1 579.803C1246.41 579.803 1256.39 569.821 1256.39 557.501C1256.39 545.181 1246.41 535.2 1234.1 535.2ZM1317.24 547.741C1311.86 547.741 1307.49 552.114 1307.49 557.501C1307.49 562.888 1311.86 567.261 1317.24 567.261C1322.63 567.261 1327 562.888 1327 557.501C1327 552.114 1322.63 547.741 1317.24 547.741ZM568.912 476.064C569.866 476.064 570.643 475.287 570.643 474.333C570.643 473.378 569.866 472.601 568.912 472.601C567.958 472.601 567.181 473.378 567.181 474.333C567.181 475.287 567.958 476.064 568.912 476.064ZM652.057 482.931C656.806 482.931 660.653 479.083 660.653 474.333C660.653 469.582 656.806 465.734 652.057 465.734C647.308 465.734 643.462 469.582 643.462 474.333C643.462 479.083 647.308 482.931 652.057 482.931ZM735.21 499.527C749.117 499.527 760.398 488.251 760.398 474.333C760.398 460.414 749.125 449.138 735.21 449.138C721.296 449.138 710.023 460.414 710.023 474.333C710.023 488.251 721.296 499.527 735.21 499.527ZM818.356 512.128C839.223 512.128 856.141 495.206 856.141 474.333C856.141 453.459 839.223 436.537 818.356 436.537C797.488 436.537 780.57 453.459 780.57 474.333C780.57 495.206 797.488 512.128 818.356 512.128ZM901.501 439.844C882.461 439.844 867.022 455.287 867.022 474.333C867.022 493.378 882.461 508.821 901.501 508.821C920.542 508.821 935.98 493.378 935.98 474.333C935.98 455.287 920.542 439.844 901.501 439.844ZM984.654 455.079C974.024 455.079 965.406 463.7 965.406 474.333C965.406 484.965 974.024 493.586 984.654 493.586C995.284 493.586 1003.9 484.965 1003.9 474.333C1003.9 463.7 995.284 455.079 984.654 455.079ZM1067.8 489.908C1076.39 489.908 1083.37 482.938 1083.37 474.333C1083.37 465.727 1076.4 458.757 1067.8 458.757C1059.2 458.757 1052.23 465.727 1052.23 474.333C1052.23 482.938 1059.2 489.908 1067.8 489.908ZM1150.94 490.574C1159.91 490.574 1167.18 483.301 1167.18 474.333C1167.18 465.365 1159.91 458.091 1150.94 458.091C1141.98 458.091 1134.71 465.365 1134.71 474.333C1134.71 483.301 1141.98 490.574 1150.94 490.574ZM1234.1 480.807C1237.67 480.807 1240.57 477.906 1240.57 474.333C1240.57 470.759 1237.67 467.858 1234.1 467.858C1230.52 467.858 1227.62 470.759 1227.62 474.333C1227.62 477.906 1230.52 480.807 1234.1 480.807ZM1317.24 475.99C1318.16 475.99 1318.9 475.25 1318.9 474.333C1318.9 473.415 1318.16 472.675 1317.24 472.675C1316.33 472.675 1315.59 473.415 1315.59 474.333C1315.59 475.25 1316.33 475.99 1317.24 475.99ZM652.057 393.139C653.152 393.139 654.04 392.252 654.04 391.156C654.04 390.061 653.152 389.173 652.057 389.173C650.963 389.173 650.075 390.061 650.075 391.156C650.075 392.252 650.963 393.139 652.057 393.139ZM735.21 405.763C743.273 405.763 749.805 399.229 749.805 391.164C749.805 383.099 743.273 376.565 735.21 376.565C727.147 376.565 720.615 383.099 720.615 391.164C720.615 399.229 727.147 405.763 735.21 405.763ZM818.356 422.404C835.606 422.404 849.594 408.412 849.594 391.156C849.594 373.901 835.606 359.909 818.356 359.909C801.105 359.909 787.117 373.901 787.117 391.156C787.117 408.412 801.105 422.404 818.356 422.404ZM901.501 351.711C879.716 351.711 862.059 369.373 862.059 391.164C862.059 412.955 879.716 430.617 901.501 430.617C923.286 430.617 940.943 412.955 940.943 391.164C940.943 369.373 923.286 351.711 901.501 351.711ZM984.654 365.984C970.754 365.984 959.481 377.253 959.481 391.164C959.481 405.075 970.747 416.344 984.654 416.344C998.561 416.344 1009.83 405.075 1009.83 391.164C1009.83 377.253 998.561 365.984 984.654 365.984ZM1067.8 379.436C1061.33 379.436 1056.08 384.682 1056.08 391.156C1056.08 397.631 1061.33 402.877 1067.8 402.877C1074.27 402.877 1079.52 397.631 1079.52 391.156C1079.52 384.682 1074.27 379.436 1067.8 379.436ZM1150.94 395.685C1153.45 395.685 1155.47 393.657 1155.47 391.156C1155.47 388.655 1153.45 386.628 1150.94 386.628C1148.44 386.628 1146.42 388.655 1146.42 391.156C1146.42 393.657 1148.44 395.685 1150.94 395.685ZM1234.1 392.762C1234.99 392.762 1235.7 392.044 1235.7 391.164C1235.7 390.283 1234.98 389.566 1234.1 389.566C1233.22 389.566 1232.5 390.283 1232.5 391.164C1232.5 392.044 1233.22 392.762 1234.1 392.762ZM735.21 314.47C738.783 314.47 741.683 311.569 741.683 307.995C741.683 304.421 738.783 301.521 735.21 301.521C731.637 301.521 728.738 304.421 728.738 307.995C728.738 311.569 731.637 314.47 735.21 314.47ZM818.356 332.102C831.671 332.102 842.463 321.307 842.463 307.988C842.463 294.669 831.671 283.873 818.356 283.873C805.041 283.873 794.248 294.669 794.248 307.988C794.248 321.307 805.041 332.102 818.356 332.102ZM901.501 347.352C923.234 347.352 940.855 329.727 940.855 307.988C940.855 286.249 923.234 268.623 901.501 268.623C879.768 268.623 862.148 286.249 862.148 307.988C862.148 329.727 879.768 347.352 901.501 347.352ZM984.654 279.019C968.661 279.019 955.694 291.99 955.694 307.988C955.694 323.985 968.661 336.956 984.654 336.956C1000.65 336.956 1013.61 323.985 1013.61 307.988C1013.61 291.99 1000.65 279.019 984.654 279.019ZM1067.8 295.098C1060.68 295.098 1054.91 300.87 1054.91 307.988C1054.91 315.106 1060.68 320.877 1067.8 320.877C1074.92 320.877 1080.69 315.106 1080.69 307.988C1080.69 300.87 1074.92 295.098 1067.8 295.098ZM735.21 227.838C736.875 227.838 738.228 226.484 738.228 224.819C738.228 223.154 736.875 221.8 735.21 221.8C733.546 221.8 732.192 223.154 732.192 224.819C732.192 226.484 733.546 227.838 735.21 227.838ZM818.356 244.812C829.392 244.812 838.343 235.859 838.343 224.819C838.343 213.779 829.392 204.826 818.356 204.826C807.319 204.826 798.368 213.779 798.368 224.819C798.368 235.859 807.319 244.812 818.356 244.812ZM901.501 261.431C921.718 261.431 938.103 245.042 938.103 224.819C938.103 204.597 921.718 188.207 901.501 188.207C881.284 188.207 864.899 204.597 864.899 224.819C864.899 245.042 881.284 261.431 901.501 261.431ZM984.654 192.203C966.642 192.203 952.047 206.809 952.047 224.819C952.047 242.829 966.649 257.435 984.654 257.435C1002.66 257.435 1017.26 242.829 1017.26 224.819C1017.26 206.809 1002.66 192.203 984.654 192.203ZM1067.8 240.247C1076.31 240.247 1083.22 233.343 1083.22 224.819C1083.22 216.295 1076.31 209.392 1067.8 209.392C1059.29 209.392 1052.38 216.295 1052.38 224.819C1052.38 233.343 1059.28 240.247 1067.8 240.247ZM735.21 143.138C736.031 143.138 736.697 142.472 736.697 141.65C736.697 140.829 736.031 140.163 735.21 140.163C734.389 140.163 733.723 140.829 733.723 141.65C733.723 142.472 734.389 143.138 735.21 143.138ZM818.356 152.439C824.31 152.439 829.141 147.607 829.141 141.65C829.141 135.694 824.31 130.862 818.356 130.862C812.401 130.862 807.57 135.694 807.57 141.65C807.57 147.607 812.401 152.439 818.356 152.439ZM901.501 162.583C913.063 162.583 922.428 153.208 922.428 141.65C922.428 130.093 913.056 120.718 901.501 120.718C889.947 120.718 880.574 130.093 880.574 141.65C880.574 153.208 889.947 162.583 901.501 162.583ZM984.654 160.807C995.232 160.807 1003.81 152.232 1003.81 141.65C1003.81 131.069 995.232 122.494 984.654 122.494C974.076 122.494 965.502 131.069 965.502 141.65C965.502 152.232 974.076 160.807 984.654 160.807ZM1067.8 150.715C1072.81 150.715 1076.86 146.66 1076.86 141.65C1076.86 136.641 1072.81 132.586 1067.8 132.586C1062.79 132.586 1058.74 136.641 1058.74 141.65C1058.74 146.66 1062.79 150.715 1067.8 150.715ZM818.356 61.7671C820.175 61.7671 821.648 60.2947 821.648 58.4744C821.648 56.6542 820.175 55.1817 818.356 55.1817C816.536 55.1817 815.064 56.6542 815.064 58.4744C815.064 60.2947 816.536 61.7671 818.356 61.7671ZM901.501 64.9563C905.074 64.9563 907.974 62.0557 907.974 58.4818C907.974 54.9079 905.081 52 901.501 52C897.921 52 895.028 54.9005 895.028 58.4744C895.028 62.0483 897.928 64.9489 901.501 64.9489V64.9563ZM984.654 64.3347C987.887 64.3347 990.513 61.7079 990.513 58.4744C990.513 55.2409 987.887 52.6141 984.654 52.6141C981.421 52.6141 978.795 55.2409 978.795 58.4744C978.795 61.7079 981.421 64.3347 984.654 64.3347ZM1067.8 61.4046C1069.42 61.4046 1070.73 60.0949 1070.73 58.4744C1070.73 56.854 1069.42 55.5443 1067.8 55.5443C1066.18 55.5443 1064.87 56.854 1064.87 58.4744C1064.87 60.0949 1066.18 61.4046 1067.8 61.4046Z" fill="url(#paint0_linear_0_1)"/>
<defs>
<linearGradient id="paint0_linear_0_1" x1="670.573" y1="201.644" x2="1178.83" y2="709.756" gradientUnits="userSpaceOnUse">
<stop stop-color="#6F3884"/>
<stop offset="1" stop-color="#321432"/>
</linearGradient>
</defs>
</svg>
