<?xml version="1.0" encoding="UTF-8"?>
<svg width="24px" height="24px" viewBox="0 0 24 24" version="1.1" xmlns="http://www.w3.org/2000/svg" xmlns:xlink="http://www.w3.org/1999/xlink">
    <title>03 Icon/04 Flag/Singapore</title>
    <g id="03-Icon/04-Flag/Singapore" stroke="none" stroke-width="1" fill="none" fill-rule="evenodd">
        <g id="singapore" transform="translate(3.000000, 3.000000)">
            <path d="M18,3.92982456 C18,1.7594386 16.237125,0 14.0625,0 L3.9375,0 C1.762875,0 0,1.7594386 0,3.92982456 L0,9 L18,9 L18,3.92982456 Z" id="Path" fill="#FF4B55"></path>
            <g id="Group" transform="translate(0.000000, 1.000000)" fill="#F5F5F5">
                <path d="M18,12.4931507 L18,8 L0,8 L0,12.4931507 C0,14.4299335 1.762875,16 3.9375,16 L14.0625,16 C16.237125,16 18,14.4299335 18,12.4931507 Z" id="Path"></path>
                <path d="M3.37052532,2.99840759 C3.37052532,1.58907471 4.4843922,0.420898959 5.93882751,0.204804277 C6.01778826,0.193067402 6.0213504,0.0922016019 5.94343734,0.0755365357 C5.583347,-0.0013691785 5.20090598,-0.0231893917 4.80376241,0.0270003408 C3.23502435,0.22536002 2.02246526,1.48567997 2.00032412,2.95538318 C1.97503992,4.63349699 3.43230398,6 5.23132385,6 C5.47620345,6 5.71402861,5.97341371 5.94280873,5.92458571 C6.02061702,5.90798549 6.01674057,5.80686031 5.93788459,5.79515586 C4.48393821,5.57915844 3.37052532,4.41315499 3.37052532,2.99840759 Z" id="Path"></path>
                <path d="M5.45952361,4.03055048 L5.35928051,4.34518628 L5.0424375,4.34776065 C5.00142314,4.34808244 4.98441281,4.40289498 5.01740875,4.4283973 L5.2722819,4.62541675 L5.17670126,4.94163471 C5.16432779,4.98258321 5.20885181,5.01645222 5.24223202,4.99145941 L5.5,4.79859649 L5.75776798,4.99145941 C5.79114819,5.0164254 5.83567221,4.9825564 5.82329874,4.94163471 L5.7277181,4.62541675 L5.98259125,4.4283973 C6.01558719,4.40289498 5.99857686,4.34808244 5.9575625,4.34776065 L5.64071949,4.34518628 L5.54047639,4.03055048 C5.52756493,3.98981651 5.47251192,3.98981651 5.45952361,4.03055048 Z" id="Path"></path>
                <path d="M7.45952361,4.03055048 L7.35928051,4.34518628 L7.0424375,4.34776065 C7.00142314,4.34808244 6.98441281,4.40289498 7.01740875,4.4283973 L7.2722819,4.62541675 L7.17670126,4.94163471 C7.16432779,4.98258321 7.20885181,5.01645222 7.24223202,4.99145941 L7.5,4.79859649 L7.75776798,4.99145941 C7.79114819,5.0164254 7.83567221,4.9825564 7.82329874,4.94163471 L7.7277181,4.62541675 L7.98259125,4.4283973 C8.01558719,4.40289498 7.99857686,4.34808244 7.9575625,4.34776065 L7.64071949,4.34518628 L7.54047639,4.03055048 C7.52753931,3.98981651 7.4724863,3.98981651 7.45952361,4.03055048 Z" id="Path"></path>
                <path d="M6.45952361,1.03055455 L6.35928051,1.34517092 L6.0424375,1.34774534 C6.00142314,1.34809396 5.98441281,1.40288097 6.01740875,1.42838389 L6.2722819,1.62540796 L6.17670126,1.94163334 C6.16432779,1.98258281 6.20885181,2.0164526 6.24223202,1.99145921 L6.5,1.79859177 L6.75776798,1.99145921 C6.79114819,2.01642579 6.83567221,1.98255599 6.82329874,1.94163334 L6.7277181,1.62540796 L6.98259125,1.42838389 C7.01558719,1.40288097 6.99857686,1.34806715 6.9575625,1.34774534 L6.64071949,1.34517092 L6.54047639,1.03052774 C6.52756493,0.989819619 6.47251192,0.989819619 6.45952361,1.03055455 Z" id="Path"></path>
                <path d="M4.459498,2.03055455 L4.35925489,2.34519773 L4.0424375,2.34774534 C4.00142314,2.34806715 3.98441281,2.40288097 4.01740875,2.42838389 L4.2722819,2.62540796 L4.17670126,2.94163334 C4.16432779,2.98258281 4.20885181,3.0164526 4.24223202,2.99145921 L4.5,2.79859177 L4.75776798,2.99145921 C4.79114819,3.01642579 4.83567221,2.98255599 4.82329874,2.94163334 L4.7277181,2.62540796 L4.98259125,2.42838389 C5.01558719,2.40288097 4.99857686,2.34806715 4.9575625,2.34774534 L4.64071949,2.34517092 L4.54047639,2.03052774 C4.52753931,1.98981962 4.4724863,1.98981962 4.459498,2.03055455 Z" id="Path"></path>
                <path d="M8.45952361,2.03055048 L8.35928051,2.34518628 L8.0424375,2.34776065 C8.00142314,2.34808244 7.98441281,2.40289498 8.01740875,2.4283973 L8.2722819,2.62541675 L8.17670126,2.94163471 C8.16432779,2.98258321 8.20885181,3.01645222 8.24223202,2.99145941 L8.5,2.79859649 L8.75776798,2.99145941 C8.79114819,3.0164254 8.83567221,2.9825564 8.82329874,2.94163471 L8.7277181,2.62541675 L8.98259125,2.4283973 C9.01558719,2.40289498 8.99857686,2.34808244 8.9575625,2.34776065 L8.64071949,2.34518628 L8.54047639,2.03055048 C8.52753931,1.98981651 8.47251192,1.98981651 8.45952361,2.03055048 Z" id="Path"></path>
            </g>
        </g>
    </g>
</svg>