<?xml version="1.0" encoding="UTF-8"?>
<svg id="Layer_1" xmlns="http://www.w3.org/2000/svg" version="1.1" xmlns:xlink="http://www.w3.org/1999/xlink" viewBox="0 0 24 24">
  <!-- Generator: Adobe Illustrator 29.3.1, SVG Export Plug-In . SVG Version: 2.1.0 Build 151)  -->
  <defs>
    <style>
      .st0 {
        fill: #41479b;
      }

      .st1 {
        fill: #f5f5f5;
      }

      .st2 {
        fill: #ff4b55;
      }
    </style>
  </defs>
  <path class="st2" d="M6.9,20.9h10.1c2.2,0,3.9-1.8,3.9-3.9v-1.9H3v1.9c0,2.2,1.8,3.9,3.9,3.9Z"/>
  <rect class="st0" x="3" y="8.9" width="17.9" height="6.2"/>
  <path class="st1" d="M20.9,8.9v-2c0-2.2-1.8-3.9-3.9-3.9H6.9c-2.2,0-3.9,1.8-3.9,3.9v2h17.9Z"/>
  <g>
    <path class="st1" d="M12,16.8c-1.6-.7-3.9-2.3-3.9-5.3s.1-4.3.1-4.3h7.5s.1,1.4.1,4.3-2.3,4.5-3.9,5.3h.1Z"/>
    <path class="st2" d="M12,16.6c-1.5-.7-3.7-2.2-3.7-5s.1-4.1.1-4.1h7.1s.1,1.3.1,4.1-2.2,4.3-3.7,5h0Z"/>
    <path class="st1" d="M12.3,10.8c.4,0,1.2,0,1.9-.2v1c-.7-.2-1.5-.2-1.9-.2v1.6h-.6v-1.6c-.5,0-1.3,0-1.9.2v-1c.7.2,1.5.2,1.9.2v-1c-.4,0-.9,0-1.5.2v-1c.6.2,1.1.2,1.5.2,0-.6-.2-1.4-.2-1.4h1s-.2.8-.2,1.4c.4,0,.9,0,1.5-.2v1c-.6-.2-1.1-.2-1.5-.2v1h0Z"/>
    <path class="st0" d="M12,12.9c-.8,0-1.2,1.1-1.2,1.1,0,0-.2-.5-.8-.5s-.7.4-.9.7c.8,1.2,2,2,2.9,2.4,1-.5,2.2-1.2,2.9-2.4-.2-.3-.5-.7-.9-.7-.6,0-.8.5-.8.5,0,0-.4-1.1-1.2-1.1h0Z"/>
  </g>
</svg>