<svg width="23" height="16" viewBox="0 0 23 16" fill="none" xmlns="http://www.w3.org/2000/svg">
<path d="M21.4834 9C22.0357 9 22.4834 8.55228 22.4834 8C22.4834 7.44772 22.0357 7 21.4834 7V9ZM0.916917 7.29289C0.526392 7.68342 0.526392 8.31658 0.916917 8.70711L7.28088 15.0711C7.6714 15.4616 8.30457 15.4616 8.69509 15.0711C9.08562 14.6805 9.08562 14.0474 8.69509 13.6569L3.03824 8L8.69509 2.34315C9.08562 1.95262 9.08562 1.31946 8.69509 0.928932C8.30457 0.538408 7.6714 0.538408 7.28088 0.928932L0.916917 7.29289ZM21.4834 7H1.62402V9H21.4834V7Z" fill="#424442"/>
</svg>
