<?xml version="1.0" encoding="UTF-8"?>
<svg id="Layer_1" xmlns="http://www.w3.org/2000/svg" version="1.1" xmlns:xlink="http://www.w3.org/1999/xlink" viewBox="0 0 24 24">
  <!-- Generator: Adobe Illustrator 29.3.1, SVG Export Plug-In . SVG Version: 2.1.0 Build 151)  -->
  <defs>
    <style>
      .st0 {
        fill: #ffee02;
      }

      .st1 {
        fill: #e8ce00;
      }

      .st2 {
        fill: #fff;
      }

      .st3 {
        fill: #ffbddb;
      }

      .st4 {
        fill: #00a329;
      }

      .st5 {
        fill: #0954e6;
      }

      .st6 {
        fill: #1f1e1e;
      }

      .st7 {
        fill: #de0005;
      }

      .st8 {
        fill: #ff4b55;
      }
    </style>
  </defs>
  <path class="st8" d="M6.9,20.9h10.1c2.2,0,3.9-1.8,3.9-3.9v-1.9H3v1.9c0,2.2,1.8,3.9,3.9,3.9Z"/>
  <rect class="st0" x="3" y="8.9" width="17.9" height="6.2"/>
  <path class="st8" d="M20.9,8.9v-2c0-2.2-1.8-3.9-3.9-3.9H6.9c-2.2,0-3.9,1.8-3.9,3.9v2h17.9Z"/>
  <g>
    <polygon class="st2" points="4.8 11.3 4.8 11.3 4.8 11.3 4.8 11.3 4.8 11.3"/>
    <polygon class="st7" points="4.7 11.3 4.7 11.4 4.7 11.4 4.7 11.4 4.7 11.4 4.7 11.3 4.7 11.3 4.7 11.3 4.7 11.3"/>
    <rect class="st2" x="6.9" y="11.3" width="1.3" height="1.5"/>
    <path class="st7" d="M6.9,11.3v1.1c-.2,0-.3.2-.3.4s0,0,0,0h-1c0-.2,0-.3,0-.4s0-.2,0-.3c0-.5,0-.9,0-.9h1.3Z"/>
    <path class="st7" d="M5.9,12.8v1.4c0,0-.1,0-.1-.1v-1.3h.1Z"/>
    <path class="st7" d="M6.2,12.8v1.5s0,0,0,0c0,0,0,0,0,0,0,0,0,0,0,0,0,0,0,0,0,0,0,0,0,0,0,0v-1.5h.1Z"/>
    <path class="st7" d="M6.5,12.8v1.5c0,0-.1,0-.1,0v-1.5h.1Z"/>
    <path class="st7" d="M6.8,13.3v.9s0,0,0,0c0,0,0,0,0,0,0,0,0,0,0,0v-1.1s0,0,.1.1Z"/>
    <path class="st2" d="M7.8,14.3s0,0,0,0c0,0,0,0,0,0,0,0,0,0,0,0,0,0,0,0,0,0,0,0,0,0,0,0,0,0,0,0,0,0,0,0,0,0,0,0,0,0,0,0,0,0,0,0,0,0,0,0,0,0,0,0,0,0,0,0,0,0,0,0,0,0,0,0,0,0s0,0,0,0c0,0,0,0-.1,0,0,0,0,0,0,0,0,0,0,0,0,0,0,0,0,0,0,0,0,0,0,0,0,0,0,0,0,0,0,0,0,0,0,0,0,0,0,0,0,0,0,0,0,0,0,0,0,0,0,0,0,0,0,0,0,0,0,0,0,0,0,0,0,0,0,0,0,0,0,0,0,0,0,0,0,0,0,0,0,0,0,0,0,0,0,0,0,0,0,0,0,0,0,0,0,0,0,0,0,0,0,0,0,0,0,0,0,0,0,0,0,0,0,0,0,0,0,0,0,0,0,0,0,0,0,0,0,0,0,0,0,0,0,0,0,0,0,0,0,0,0,0,0,0,0,0,0,0,0,0,0,0,0,0,0,0,0,0,0,0,0,0,0,0,0,0,0,0,0,0,0,0,0,0,0,0,0,0,0,0,0,0,0,0,0,0,0,0,0,0,0,0,0,0,0,0,0,0,0,0,0,0,0,0,0,0,0,0,0,0,0,0,0,0,0,0,0,0,0,0,0,0,0,0,0,0,0,0,0,0,0,0,0,0,0,0,0,0,0,0,0,0,0,0,0,0,0,0,0,0,0,0,0,0,0,0,0,0,0,0,0,0,0,0,0,0,0,0,0,0,0,0,0,0,0,0,0,0,0,0,0,0,0,0,0,0,0,0,0,0,0,0,0,0,0,0,0,0,0,0,0,0,0,0,0,0,0,0,0,0,0,0,0,0,0,0,0,0,0,0,0,0,0,0,0,0,0,0,0,0,0,0,0,0,0,0,0,0,0,0,0,0,0,0,0,0,0,0,0,0,0,0,0,0,0,0,0,0,0,0,0,0,0,0,0,0,0,0,0,0,0,0,0,0-.1,0-.1,0,0,0,0,0,0,0s0,0,0,0c0,0,0,0,0,0,0,0,0,0,0,0,0,0,0,0,0,0,0,0,0,0,0,0,0,0,0,0,0,0,0,0,0,0,0,0,0,0,0,0,0,0,0,0,0,0,0,0,0,0,0,0,0,0,0,0,0,0,0,0,0,0,0,0,.1,0,0,0,0,0,.1,0,0,0,.1,0,.1,0,0,0,.1,0,.1,0,0,0,.1,0,.1,0,0,0,.2,0,.2,0,0,0,0,0,.2,0,0,0,0,0,.1,0,0,0,0,0,.1,0,0,0,0,0,.1,0,0,0,0,0,.1,0,0,0,.1,0,.1,0,0,0,0,0,0,0,0,0,0,0,0,0ZM7.2,14.3s0,0,0,0c0,0,0,0,0,0,0,0,0,0,0,0,0,0,0,0,0,0,0,0,0,0,0,0,0,0,0,0,0,0,0,0,0,0,0,0,0,0,0,0,0,0,0,0,0,0,0,0,0,0,0,0,0,0,0,0,0,0,0,0,0,0,0,0,0,0,0,0,0,0,0,0,0,0,0,0,0,0,0,0,0,0,0,0,0,0,0,0,0,0h0s0,0,0,0c0,0,0,0,0,0,0,0,0,0,0,0s0,0,0,0c0,0,0,0,0,0,0,0,0,0,0,0,0,0,0,0,0,0,0,0,0,0,0,0,0,0,0,0,0,0,0,0,0,0,0,0,0,0,0,0,0,0,0,0,0,0,0,0,0,0,0,0,0,0,0,0,0,0,0,0,0,0,0,0,0,0,0,0,0,0,0,0,0,0,0,0,0,0,0,0,0,0,0,0,0,0,0,0,0,0,0,0,0,0,0,0,0,0,0,0,0,0,0,0,0,0,0,0,0,0,0,0,0,0,0,0,0,0,0,0,0,0,0,0,0,0,0,0,0,0,0,0,0,0,0,0,0,0,0,0,0,0,0,0,0,0,0,0,0,0,0,0,0,0,0,0,0,0,0,0,0,0,0,0,0,0,0,0,0,0,0,0,0,0,0,0-.1,0-.1-.1s0,0,0,0c0,0,0,0,0,0,0,0,0,0,0,0,0,0,0,0,0,0,0,0,0,0,0,0,0,0,0,0,0,0,0,0,0,0,0,0,0,0,0,0,0,0,0,0,0,0,0,0h0s0,0,0,0c0,0,0,0,0,0,0,0,0,0,0,0s0,.1-.1.1c0,0,0,0,0,0,0,0,0,0,0,0,0,0,0,0,.1,0,0,0,0,0,0,0,0,0,0,0,0,0,0,0,0,0,0,0,0,0,0,0,0,0,0,0,0,0,0,0,0,0,0,0,0,0,0,0,0,0,0,0,0,0,0,0,0,0Z"/>
    <path class="st2" d="M7,14.4s0,0,0,0h0s0,0,0,0Z"/>
    <path class="st2" d="M7,14.1s0,0,0,0c0,0,0,0,0,0,0,0,0,0,0,0Z"/>
    <polygon class="st2" points="7 14.1 7 14.1 7 14.1 7 14.1"/>
    <path class="st4" d="M7.2,14.3s0,0-.2.1c0,0,0,0,0,0,0,0,0,0,0,0h0s0,0,0,0c0,0,0,0,0,0h0s0,0,0,0c0,0,0,0,0,0h0s0,0,0,0c0,0,0,0,0,0,0,0,0,0,0,0h0s0,0,0,0c0,0,0,0,0,0,0,0,0,0,0,0,0,0,0,0,0,0,0,0,0,0,.1,0,0,0,0,0,0,0,0,0,0,0,0,0,0,0,0,0,0,0,0,0,0,0,0,0,0,0,0,0,0,0Z"/>
    <path class="st4" d="M6.9,14.4s0,0,0,0h0s0,0,0,0,0,0,0,0c0,0,0,0,0,0,0,0,0,0,0,0,0,0,0,0,0,0,0,0,0,0,0,0,0,0,0,0,0,0,0,0,0,0,0,0,0,0,0,0,0,0,0,0,0,0,0,0,0,0,0,0,0,0,0,0,0,0,0,0,0,0,0,0,0,0,0,0,0,0,0,0,0,0,0,0,0,0,0,0,0,0,0,0,0,0,0,0,0,0,0,0,0,0,0,0,0,0,0,0,0,0,0,0,0,0,0,0,0,0,0,0,0,0,0,0,0,0,0,0,0,0,0,0,0,0,0,0,0,0,0,0,0,0,0,0,0,0,0,0,0,0,0,0,0,0,0,0,0,0,0,0,0,0,0,0,0,0,0,0,0,0,0,0,0,0,0,0Z"/>
    <path class="st7" d="M6.9,14.2s0,0,0,0c0,0,0,0,0,0,0,0,0,0,0,0s0,0,0,0c0,0,0,0,0,0Z"/>
    <path class="st4" d="M7,14.4s0,0,0,0h0s0,0,0,0Z"/>
    <path class="st1" d="M6.3,12.8v1.5s0,0,0,0,0,0,0,0c0,0,0,0,0,0v-1.5h.1Z"/>
    <path class="st1" d="M6,12.8v1.5s0,0,0,0c0,0,0,0,0,0,0,0,0,0,0,0,0,0,0,0,0,0,0,0,0,0,0,0v-1.4h.1Z"/>
    <path class="st1" d="M5.7,12.8v1.3c0,0-.2-.2-.2-.4,0-.2,0-.6,0-.9h.2Z"/>
    <path class="st1" d="M6.6,13.2v1.1s0,0,0,0c0,0,0,0,0,0,0,0,0,0,0,0,0,0,0,0,0,0,0,0,0,0,0,0v-1.5h0c0,.1,0,.3.1.3Z"/>
    <path class="st1" d="M6.9,13.3v.4s0,0,0,0c0,0,0,0,0,0,0,0,0,0,0,0,0,0,0,0,0,0,0,0,0,0,0,0,0,0,0,0,0,0,0,0,0,0,0,0,0,0,0,0,0,0,0,0,0,0,0,0,0,0,0,0,0,0,0,0,0,0,0,0,0,0,0,0,0,0,0,0,0,0,0,0,0,0,0,0,0,0,0,0,0,0,0,0,0,0,0,0,0,0,0,0,0,0,0,0,0,0,0,0,0,0,0,0,0,0,0,0,0,0,0,0,0,0v-.9s0,0,.2,0Z"/>
    <path class="st7" d="M8.2,13.7c0,.2,0,.3-.2.4,0,0,0,0-.1.1,0,0,0,0-.1,0,0,0,0,0,0,0,0,0,0,0,0,0,0,0,0,0,0,0,0,0,0,0,0,0,0,0,0,0,0,0,0,0,0,0,0,0,0,0,0,0,0,0,0,0,0,0,0,0,0,0,0,0,0,0,0,0,0,0,0,0s0,0,0,0c0,0,0,0-.1,0,0,0,0,0,0,0,0,0,0,0,0,0,0,0,0,0,0,0,0,0,0,0,0,0,0,0,0,0,0,0,0,0,0,0,0,0,0,0,0,0,0,0,0,0,0,0,0,0,0,0,0,0,0,0,0,0,0,0,0,0,0,0,0,0,0,0,0,0,0,0,0,0,0,0,0,0,0,0,0,0,0,0,0,0,0,0,0,0,0,0,0,0,0,0,0,0,0,0,0,0,0,0,0,0,0,0,0,0,0,0,0,0,0,0,0,0,0,0,0,0,0,0,0,0,0,0,0,0,0,0,0,0,0,0,0,0,0,0,0,0,0,0,0,0,0,0,0,0,0,0,0,0,0,0,0,0,0,0,0,0,0,0,0,0,0,0,0,0,0,0,0,0,0,0,0,0,0,0,0,0,0,0,0,0,0,0,0,0,0,0,0,0v-.4c0,0,.1,0,.2,0,0,0,0,0,0,0,0,0,0,0,0,0,0,0,0,0,0,0,0,0,0,0,0,0,0,0,0,0,0,0,0,0,0,0,0,0,0,0,0,0,0,0,0,0,0,0,0,0,0,0,0,0,0,0,0,0,0,0,0,0,0,0,0,0,0,0,0,0,0,0,0,0,0,0,0,0,0,0h0s0,0,0,0c0,0,0,0,0,0,0,0,0,0,0,0,0,0,0,0,0,0,0,0,0,0,0,0,0,0,0,0,0,0,0,0,0,0,0,0,0,0,0,0,0,0,0,0,0,0,0,0,0,0,0,0,0,0,0,0,0,0,0,0,0,0,0,0,0,0,0,0,0,0,0,0,0,0,0,0,0,0,0,0,0,0,0,0,0,0,0,0,0,0,0,0,0,0,0,0,0,0,0,0,0,0,0,0,0,0,0,0,0,0,0,0,0,0,0,0,0,0,0,0,0,0,0,0,0,0,0,0,0,0,0,0,0,0,0,0,0,0,0,0,0,0,0,0,0,0,0,0,0,0h.9c0,.3,0,.7,0,.9Z"/>
    <g>
      <path class="st1" d="M8.1,13.6s0,0,0,0,0,0,0,0h0c0,0,0-.1,0-.1h0c0-.1,0-.1,0-.1h0c0-.1,0-.1,0-.2s0,0,0,0,0,0,0,0h0s-.1,0-.1,0h0s0,0,0,0c0,0,0,0,0,0h0s0,0,0,0c0,0,0,0,0,0,0,0,0,0,0,0,0,0,0,0,0,0,0,0,0,0,0,0,0,0,0,0,0,0,0,0,0,0,0,0,0,0,0,0,0,0h0s0,0,0,0c0,0,0,0,0,0,0,0,0,0,0,0,0,0,0,0,0,0t0,0s0,0,0,0c0,0,0,0,0,0,0,0,0,0,0,0h0s-.1,0-.1,0h0s0,0,0,0c0,0,0,0,0,0,0,0,0,0,0,0,0,0,0,0,0,0s0,0,0,0h0c0,0,0,.1,0,.1h0c0,.1,0,.1,0,.1h0c0,.1,0,.1,0,.2s0,0,0,0h0c0,0,0,0,0,0h0c0,.1,0,.1,0,.1h0c0,.1,0,.1,0,.1,0,0,0,0,0,0s0,0,0,0h0c0,0,0,.1,0,.1h.1c0,0,0,0,0,0h0c0,0,0,0,0,0s0,0,0,0h0s0,0,0,0h.1c0,0,0-.1,0-.1h0c0,0,0,0,0,0,0,0,0,0,0,0s0,0,0,0h0c0,0,0-.1,0-.1h0c0-.1,0-.1,0-.1h0ZM7.3,13h0s0,0,0,0h0ZM7.2,13.4h0c0-.1,0-.2,0-.2h0c0-.1,0,0,0,0h0c0,0,0,.1,0,.1h0c0,.1,0,0,0,0h.1c0,.1,0,.1,0,.1,0,0,0,0,0,0,0,0,0,0,0,0h0s-.1,0-.1,0h0s0,0,0,0c0,0,0,0,0,0h0ZM7.3,13.3h0s0,0,0,0h0s0,0,0,0ZM7.4,13.5h0s0,0,0,0h0s0,0,0,0ZM7.2,13.8h0c0,0,0,0,0,0h0ZM7.2,13.3h0c0,0,0,0,0,0h0ZM7.2,13.9s0,0,0,0h0c0,0,0,0,0,0h0c0-.1,0-.1,0-.1h0c0,0,0,0,0-.1h0s.1,0,.1,0h0s0,0,0,0h0s0,0,0,0c0,0,0,0,0,0,0,0,0,0,0,0,0,0,0,0,0,0h-.1c0,.1,0,0,0,0h0c0,.1,0,.1,0,.1h0c0,0,0,0,0,0ZM7.4,13.7h0s0,0,0,0h0s0,0,0,0ZM7.4,14.1h0s0,0,0,0h0s0,0,0,0h0s0,0,0,0ZM7.6,13.8h0c0,.1,0,.2,0,.2v.2s0,0,0,0h0s0,0,0,0h-.1c0,0,0,0,0,0h0c0,0,0,0,0,0s0,0,0,0h0c0,0,0,0,0,0h0c0-.1,0-.1,0-.1h0c0-.1,0,0,0,0ZM7.6,13.1h0c0,.1,0,.2,0,.2v.2h0c0-.1,0-.1,0-.1h0c0-.1,0,0,0,0h0c0,0,0-.2,0-.2,0,0,0,0,0,0h0s0,0,0,0h.1s0,0,0,0c0,0,0,0,0,0,0,0,0,0,0,0,0,0,0,0,0,0,0,0,0,0,0,0,0,0,0,0,0,0,0,0,0,0,0,0h0ZM7.6,13.9h0c0,0,0,0,0,0h0ZM7.6,13.2h0c0,0,0,0,0,0h0ZM7.8,13h0s0,0,0,0h0ZM7.6,13.3h0s0,0,0,0h0c0-.1,0-.1,0-.1h0s0,0,0,0c0,0,0,0,0,0,0,0,0,0,0,0,0,0,0,0,0,0,0,0,0,0,0,0,0,0,0,0,0,0h0s.1,0,.1,0h0s0,0,0,0c0,0,0,0,0,0v.2c-.1,0-.2,0-.2,0h0c0,.1,0,.1,0,.1h0c0,.1,0,0,0,0ZM7.8,13.3h0s0,0,0,0h0s0,0,0,0ZM7.8,14.1h0s0,0,0,0h0s0,0,0,0h0s0,0,0,0ZM7.8,14h0s-.1,0-.1,0h0s0,0,0,0c0,0,0,0,0,0h0c0-.1,0-.2,0-.2h0c0-.1,0-.1,0-.1h0v-.2h0c0,.1,0,.1,0,.1h0c0,.1,0,0,0,0h0c0,0,0,.1,0,.1s0,0,0,0h0ZM7.7,13.7h0s0,0,0,0h0s0,0,0,0ZM8,13.7h0s0,.1,0,.1h0s0,0,0,0c0,0,0,0,0,0,0,0,0,0,0,0h0c0,0,0-.1,0-.1h0c0-.1,0,0,0,0h-.1c0-.1,0-.1,0-.1,0,0,0,0,0,0,0,0,0,0,0,0,0,0,0,0,0,0h0s0,0,0,0c0,0,0,0,0,0h0s.1,0,.1,0h0s0,0,0,0c0,0,0,0,0,0h0ZM7.8,13.5h0s0,0,0,0h0s0,0,0,0ZM8,13.2h0c0,.1,0,.2,0,.2h0c0,.1,0,.1,0,.1h0s0,0,0,0h-.1s0,0,0,0c0,0,0,0,0,0,0,0,0,0,0,0h.1c0-.1,0,0,0,0h0c0-.1,0-.1,0-.1v-.2c.1,0,.1,0,.1,0ZM8,13.8h0c0,0,0,0,0,0h0ZM8,13.3h0c0,0,0,0,0,0h0Z"/>
      <path class="st5" d="M7.7,13.5s0,0,0,0,0,0,0,0,0,0,0,0,0,0,0,0Z"/>
    </g>
    <g>
      <path class="st7" d="M5.3,12.7s0,0,0,0c-.7,0-.7,0-.7,0,0,0,0,0,0,0h0s0,0,0,0c0,0,0,0,.1-.1.1,0,.3,0,.4,0,.1,0,.3,0,.3,0,0,0,0,0,0,0Z"/>
      <path class="st5" d="M5.3,14.4h0c-.1,0-.1,0-.2,0s-.1,0-.2,0-.1,0-.2,0-.1,0-.2,0h0c.1,0,.1-.1.2-.1s.1,0,.2,0,.1,0,.2,0,.1,0,.2,0Z"/>
      <path class="st2" d="M5.3,14.4h0c-.1,0-.1,0-.2,0s-.1,0-.2,0-.1,0-.2,0-.1,0-.2,0h0c.1,0,.1-.1.2-.1s.1,0,.2,0,.1,0,.2,0,.1,0,.2,0Z"/>
      <path class="st5" d="M5.3,14.3h0c-.1,0-.1,0-.2,0s-.1,0-.2,0-.1,0-.2,0-.1,0-.2,0h0c.1,0,.1-.1.2-.1s.1,0,.2,0,.1,0,.2,0,.1,0,.2,0Z"/>
      <path class="st2" d="M5.3,14.2h0c-.1,0-.1,0-.2,0s-.1,0-.2,0-.1,0-.2,0-.1,0-.2,0h0c.1,0,.1-.1.2-.1s.1,0,.2,0,.1,0,.2,0,.1,0,.2,0Z"/>
      <path class="st5" d="M5.3,14.2h0c-.1,0-.1,0-.2,0s-.1,0-.2,0-.1,0-.2,0-.1,0-.2,0h0c.1,0,.1-.1.2-.1s.1,0,.2,0,.1,0,.2,0,.1,0,.2,0Z"/>
      <g>
        <path class="st1" d="M5.2,13.9s0,0,0,0h-.5s0,0,0,0,0,0,0,0h.5s0,0,0,0Z"/>
        <path class="st1" d="M5.2,13.8s0,0,0,0h-.5s0,0,0,0,0,0,0,0h.5s0,0,0,0Z"/>
        <path class="st1" d="M5.2,13.9h-.5c0,0,0,0,0,0h.5s0,0,0,0Z"/>
        <rect class="st1" x="4.6" y="14" width=".6" height=".2"/>
      </g>
      <g>
        <path class="st1" d="M5.2,11.6s0,0,0,0h-.5s0,0,0,0,0,0,0,0h.5s0,0,0,0Z"/>
        <path class="st1" d="M5.2,11.7s0,0,0,0h-.5s0,0,0,0,0,0,0,0h.5s0,0,0,0Z"/>
        <path class="st1" d="M5.2,11.7h-.5c0,0,0,0,0,0h.5s0,0,0,0Z"/>
        <rect class="st1" x="4.6" y="11.4" width=".6" height=".2"/>
      </g>
      <g>
        <rect class="st2" x="5" y="11.7" width=".1" height="2.1"/>
        <rect class="st2" x="4.7" y="11.7" width=".3" height="2.1"/>
      </g>
      <path class="st7" d="M5.6,12.2c0,0,0,.2,0,.3-.5-.1-.8,0-1,0,0,0-.1,0-.1.1,0,0,0,0,0,0,0,0,0-.2,0-.2,0,0,0,0,0,0,0,0,0,0,0,0,0,0,.5-.3,1.1-.1Z"/>
      <path class="st7" d="M4.6,13.5c0,0,0-.1,0-.1,0,0,0,0,0,0,0,0,0,0,.1,0,.1.1,0,.2,0,.2Z"/>
      <path class="st7" d="M5.3,12.9h0c0,0-.2.2-.5.3-.1,0-.2,0-.3.1,0,0,0,0-.1,0,0,0,0-.2,0-.2,0,0,0,0,0,0,0,0,.2-.1.4-.2.2,0,.3-.1.4-.2,0,0,0,0,0,0,0,0,0,.1,0,.2Z"/>
    </g>
    <path class="st7" d="M8.5,12.7s0,0,0,0c.7,0,.7,0,.7,0,0,0,0,0,0,0h0s0,0,0,0c0,0,0,0-.1-.1-.1,0-.3,0-.4,0-.1,0-.3,0-.3,0,0,0,0,0,0,0Z"/>
    <path class="st5" d="M8.5,14.4h0c.1,0,.1,0,.2,0s.1,0,.2,0,.1,0,.2,0,.1,0,.2,0h0c-.1,0-.1-.1-.2-.1s-.1,0-.2,0-.1,0-.2,0-.1,0-.2,0Z"/>
    <path class="st2" d="M8.5,14.4h0c.1,0,.1,0,.2,0s.1,0,.2,0,.1,0,.2,0,.1,0,.2,0h0c-.1,0-.1-.1-.2-.1s-.1,0-.2,0-.1,0-.2,0-.1,0-.2,0Z"/>
    <path class="st5" d="M8.5,14.3h0c.1,0,.1,0,.2,0s.1,0,.2,0,.1,0,.2,0,.1,0,.2,0h0c-.1,0-.1-.1-.2-.1s-.1,0-.2,0-.1,0-.2,0-.1,0-.2,0Z"/>
    <path class="st2" d="M8.5,14.2h0c.1,0,.1,0,.2,0s.1,0,.2,0,.1,0,.2,0,.1,0,.2,0h0c-.1,0-.1-.1-.2-.1s-.1,0-.2,0-.1,0-.2,0-.1,0-.2,0Z"/>
    <path class="st5" d="M8.5,14.2h0c.1,0,.1,0,.2,0s.1,0,.2,0,.1,0,.2,0,.1,0,.2,0h0c-.1,0-.1-.1-.2-.1s-.1,0-.2,0-.1,0-.2,0-.1,0-.2,0Z"/>
    <g>
      <path class="st1" d="M8.6,13.9s0,0,0,0h.5s0,0,0,0,0,0,0,0h-.5s0,0,0,0Z"/>
      <path class="st1" d="M8.6,13.8s0,0,0,0h.5s0,0,0,0,0,0,0,0h-.5s0,0,0,0Z"/>
      <path class="st1" d="M8.7,13.9h.5c0,0,0,0,0,0h-.5s0,0,0,0Z"/>
      <rect class="st1" x="8.6" y="14" width=".6" height=".2" transform="translate(17.8 28.1) rotate(180)"/>
    </g>
    <g>
      <path class="st1" d="M8.6,11.6s0,0,0,0h.5s0,0,0,0,0,0,0,0h-.5s0,0,0,0Z"/>
      <path class="st1" d="M8.6,11.7s0,0,0,0h.5s0,0,0,0,0,0,0,0h-.5s0,0,0,0Z"/>
      <path class="st1" d="M8.7,11.7h.5c0,0,0,0,0,0h-.5s0,0,0,0Z"/>
      <rect class="st1" x="8.6" y="11.4" width=".6" height=".2" transform="translate(17.8 23) rotate(180)"/>
    </g>
    <g>
      <rect class="st2" x="8.7" y="11.7" width=".1" height="2.1"/>
      <rect class="st2" x="8.8" y="11.7" width=".3" height="2.1"/>
    </g>
    <path class="st7" d="M8.2,12.2c0,0,0,.2,0,.3.5-.1.8,0,1,0,0,0,.1,0,.1.1,0,0,0,0,0,0,0,0,0-.2,0-.2,0,0,0,0,0,0,0,0,0,0,0,0,0,0-.5-.3-1.1-.1Z"/>
    <path class="st7" d="M9.2,13.5c0,0,0-.1,0-.1,0,0,0,0,0,0,0,0,0,0-.1,0-.1.1,0,.2,0,.2Z"/>
    <g>
      <path class="st1" d="M4.6,12.3s0,0,0,0c0,0,0,0,0,0,0,0,0,0,0,0,0,0,0,0,0,0,0,0,0,0,0,0,0,0,0,0,0,0,0,0,0,0,0,0,0,0,0,0,0,0,0,0,0,0,0,0,0,0,0,0,0,0,0,0,0,0,0,0,0,0,0,0,0,0,0,0,0,0,0-.2ZM4.7,12.4s0,0,0,0c0,0,0,0,0,0,0,0,0,0,0,0,0,0,0,0,0,0,0,0,0,0,0,0,0,0,0,0,0,0,0,0,0,0,0,0,0,0,0,0,0,0s0,0,0,0c0,0,0,0,0,0,0,0,0,0,0,0Z"/>
      <path class="st1" d="M4.8,12.3s0,0,0,0c0,0,0,0,0,.1,0,0,0,0,0,0,0,0,0,0,0,0,0,0,0,0-.1,0,0,0,0-.1,0-.2Z"/>
      <path class="st1" d="M5,12.2s0,0,0,0c0,0,0,0,0,0,0,0,0,0,0,0,0,0,0,0,0,0,0,0,0,0,0,0,0,0,0,0,0,0,0,0,0,0,0,0,0,0,0,0,0,0,0,0,0,0,0,0,0,0,0,0,0,0,0,0,0,0,0,0,0,0,0,0,0,0,0,0,0,.1,0,.2,0,0,0,0,0,0,0,0,0-.1-.1-.2,0,0,0,0,0,0Z"/>
      <path class="st1" d="M5.2,12.2s0,0,0,0c0,0,0,0,0,0,0,0,0,0,0,0,0,0,0,0,0,0,0,0,0,0,0,0,0,0,0,0,0,0,0,0,0,0,0,0,0,0,0,0,0,0,0,0,0,0,0,0,0,0,0,0,0,0,0,0,0,0,0,0,0,0,0,0,0,0,0,0,0,0,0,0,0,0,0,0,0,0,0,0,0,0,0,0,0,0,0,0,0,0,0,0,0,0,0,0,0,0,0,0,0,0,0,0,0,0,0,0,0,0,0,0,0,0,0,0,0,0,0,0,0,0,0,0,0,0,0,0,0,0,0,0,0,0,0,0,0,0,0,0,0,0,0,0,0,0,0,0,0,0,0,0,0,0,0,0,0,0,0,0,0,0,0,0,0,0,0,0,0,0,0,0,0,0,0,0,0,0,0,0,0,0,0,0,0,0Z"/>
    </g>
    <g>
      <path class="st1" d="M8.5,12.2s0,0,0,0c0,0,0,0,0,0,0,0,0,0,0,0,0,0,0,0,0,0,0,0,0,0,0,0,0,0,0,0,0,0,0,0,0,0,0,0,0,0,0,0,0,0,0,0,0,0,0,0,0,0,0,0,0,0,0,0,0,0,0,0,0,0,0,0,0,0,0,0,0,.1,0,.2,0,0,0,0,0,0,0,0,0-.1,0-.2,0,0,0,0,0,0Z"/>
      <path class="st1" d="M8.7,12.2s0,0,0,0c0,0,0,0,0,.1,0,0,0,0,0,0,0,0,0,0,0,0,0,0,0,0-.1,0,0,0,0-.1,0-.2Z"/>
      <path class="st1" d="M8.9,12.2s0,0,0,0c0,0,0,0,0,0,0,0,0,0,0,.1,0,0,0,0,0,0,0,0,0,0,0-.1,0,0,0,0,0,0,0,0,0,0,0,0,0,0,0,0,.2,0Z"/>
      <path class="st1" d="M8.9,12.2s0,0,0,0c0,0,0,0,0,0,0,0,0,0,0,0,0,0,0,0,0,0,0,0,0,0,0,0,0,0,0,0,0,0,0,0,0,0,0,0,0,0,0,0,0,0,0,0,0,0,0,0,0,0,0,0,0,0,0,0,0,0,0,0,0,0,0,0,0,0,0,0,0,0,0,0,0,0,0,0,0,0,0,0,0,0,0,0,0,0,0-.1,0-.2ZM9,12.3s0,0,0,0c0,0,0,0,0,0,0,0,0,0,0,0,0,0,0,0,0,0,0,0,0,0,0,0,0,0,0,0,0,0,0,0,0,0,0,0Z"/>
      <path class="st1" d="M9.2,12.3s0,0,0,0c0,0,0,.1,0,.2,0,0,0,0,0,0,0,0,0,0,0,0,0,0,0,0,0,0,0,0,0,0,0,0,0,0,0,0,0,0,0,0,0,0,.1-.1ZM9.1,12.4s0,0,0,0c0,0,0,0,0,0,0,0,0,0,0,0,0,0,0,0,0,0,0,0,0,0,0,0,0,0,0,0,0,0,0,0,0,0,0,0,0,0,0,0,0,0Z"/>
    </g>
    <path class="st3" d="M7.8,11.9s0,0,0,0c0,0,0,0,0,0,0,0,0,.1,0,0s0,0,0,0c0,0,0,.1,0,.1,0,0,0,0,0,0,0,0,0,0,0,0h0s0,0,0,0h0s0,0,0,0c0,0,0,0,0,0h0s0,0,0,0c0,0-.1,0-.1,0,0,0,0,0,0,0,0,0,0,0,0,0s0,0,0,0c0,0,0,0,0,0,0,0,0,0,0,0,0,0,0,0,0,0,0,0,0,0,0,0,0,0,0,0,0,0,0,0,0,0,0,0s0,0,0,0c0,0,0,0,0,0,0,0,0,0,0,0,0,0,0,0,0,0,0,0,0,0,0,0,.1,0,.1.1.1.1,0,0,0,0,0,0s0,0,0,0h0s0,0,0,0c0,0,0,0,0,0Z"/>
    <path class="st7" d="M7.6,11.7s0,0,0,0c0,0,0,0-.2,0,0,0,0,0,0,0,0,0,0,0,0,0,0,0,0,0,.1,0,0,0,0,0,0,0,0,0,0,0,0,0Z"/>
    <path class="st1" d="M7.9,11.6s0,0-.1,0c0,0,0,0-.1-.1,0,0,0,0,0-.1,0,0,0,0,0,0h0s0,0,0,0h0s0,0,0,0c0,0,0,0,0,0,0,0,0,0,0,0,0,0,0,0,0,0h0s0,0,0,0h0s0,0,0,0c0,0,0,0,0,0h0s0,0,0,0h0s0,0,0,0c0,0,0,0,0,0h0s0,0,0,0h0s0,0,0,0c0,0,0,0,0,0,0,0,0,0,0,0,0,0,0,0,0,0s0,0,0,0h0s0,0,0,0h0s0,0,0,0c0,0,0,0,0,0h0s0,0,0,0h0s0,0,0,0c0,0,0,0,0,0h0s0,0,0,0h0s0,0,0,0c0,0,0,0,0,0,0,0,0,0,0,0,0,0,0,0,0,0s0,0,0,0h0s0,0,0,0h0s0,0,0,0c0,0,0,0,0,0h0s0,0,0,0h0s0,0,0,0c0,0,0,0,0,0h0s0,0,0,0h0s0,0,0,0c0,0,0,0,0,0,0,0,0,0,0,0,0,0,0,0,0,0h0s0,0,0,0h0s0,0,0,0c0,0,0,0,0,0Z"/>
    <path class="st3" d="M7.5,11.9s0,0,0,0h0s0,0,0,0c0,0-.1,0-.1-.1,0,0,0,0,0,0,0,0-.1,0-.1,0,0,0,0,0,0,0,0,0,0,0,0,0,0,0,0,0,.1,0,0,0,0,0,0-.1,0,0,0,0,0,0,0,0,0,0,0,.1,0,0,.1,0,.2,0,0,0,0,0,0,0,0,0,0,0,.1,0Z"/>
    <path class="st3" d="M7.6,12s0,0,0,0c0,0,0,0,0,0,0,0-.1,0-.1,0,0,0,0,0,0,0,0,0,0,0,0,0,0,0,0,0,0,0,0,0,0,0,0,0,0,0,0,0,0,0,0,0,0,0,0,0,0,0,0,0,0,0,0,0,.2,0,.2,0,0,0,0,0,0,0,0,0,0,0,0,0,0,0,0,0,0,0h0Z"/>
    <path class="st3" d="M8.1,11.7s0,.1,0,.1c0,0,0,0,0,.2,0,.1,0,.2,0,.2,0,0,0,0,0,0s0,0,0,0,0,0,0,0c0,0,0,0,0,.1,0,0,0,.2,0,.2,0,0,0,0,0,0,0,0,0,0,0,0,0,0,0,0,0,0,0,0,0-.1,0-.1,0,0-.1,0-.1,0,0,0,0,0,.1,0,0,0,0,0,0,0,0,0-.1,0-.1,0,0,0,0,0,0,0,0,0,0,0,0,0,0,0,0,0,0,0,0,0-.1,0-.1,0,0,0,0,0,0,0,0,0,0,0,0,0,0,0,0,0,0,0h0c0,0,0,0,0,0,0,0,0,.1,0,.2,0,0,.1,0,.1,0s0,0,0,0,0-.2,0-.2,0,0,0,0c0,0,0-.1,0-.1,0,0,0-.1,0-.1,0,0,0,0,0,0,0,0,0,0,0,0,0,0,0,.1,0,.1,0,0,0,0,0,0Z"/>
    <path class="st3" d="M7.7,12.3s0,0,0,0c0,0,0,0,0,0s0,.1,0,.1,0,0-.1,0,0,0,0,0c0,0,0-.1,0-.1,0,0-.1,0-.1,0,0,0,.1,0,.1,0,0,0,0,0,0,0,0,0,.1,0,.1,0,0,0,0,0,0,0,0,0,0,0,0,0,0,0,0,0,0-.1,0,0,.1,0,.2,0,0,0,0,0,0,0,0,0,0,0,0,0Z"/>
    <path class="st6" d="M7.6,11.6s0,0,0,0c0,0,0,0,0,0Z"/>
    <path class="st5" d="M6.3,12.5h0c0,.1-.2.1-.2.1h0c0-.2,0-.2,0-.2s0,0,0,0Z"/>
    <path class="st5" d="M6.4,12.1h0c0,.1-.1.1-.1.1h0c0-.2,0-.2,0-.2s0,0,0,0Z"/>
    <g>
      <path class="st5" d="M6.9,9.7h0c0,0,0,0,0,0,0,0,0,0,0,0Z"/>
      <path class="st5" d="M7,9.8h0c0,0,0,0,0,0Z"/>
      <path class="st5" d="M7,9.8s0,0-.1,0,0,0-.1,0h.2Z"/>
      <path class="st1" d="M7.1,10.7s0,0,0,0c0,0,0,0,0,0,0,0,0,0,0,0,0,0,0,0,0,0,0,0,0,0,0,0,0,0,0,0,0,0,0,0,0,0,0,0,0,0,0,0,0,0,0,0,0,0,0,0,0,0,0,0,0,0,0,0,0,0,0,0,0,0,0,0,0,0,0,0,0,0,0,0,0,0,0,0,0,0,0,0,0,0,0,0,0,0,0,0,0,0,0,0,0,0,0,0,0,0,0,0,0,0,0,0,0,0,0,0,0,0,0,0,0,0,0,0,0,0,0,0,0,0,0,0,0,0,0,0,0,0,0,0,0,0,0,0,0,0,0,0,0,0,0,0,0,0,0,0,0,0,0,0,0,0,0,0,0,0,0,0,0,0,0,0,0,0,0,0,0,0,0,0,0,0,0,0,0,0,0,0,0,0,0,0,0,0,0,0,0,0,0,0,0,0,0,0,0,0,0,0,0,0,0,0,0,0,0,0,0,0,0,0,.1,0,.1,0,0,0,0,0-.1,0Z"/>
      <g>
        <polygon class="st1" points="6.9 10.4 6.9 10.4 6.9 10.4 6.9 10.4"/>
        <path class="st1" d="M6.9,10.4s0,0,0,0c0,0,0,0,0,0Z"/>
        <polygon class="st1" points="6.9 10.3 6.9 10.3 6.9 10.3 6.9 10.3"/>
        <path class="st1" d="M6.8,11s0,0,0,0c0,0,0,0,0,0,0,0,0,0,0,0,0,0,0,0,0,0,0,0,0,0,0,0,0,0,0,0,0,0,0,0,0,0,0,0,0,0,0,0,0,0,0,0,0,0,0,0s0,0,0,0c0,0,0,0,0,0,0,0,0,0,0,0Z"/>
        <path class="st1" d="M6,11s0,0,0,0h0s0,0,0,0Z"/>
        <path class="st1" d="M6.2,10.9s0,0,0,0c0,0,0,0,0,0Z"/>
        <path class="st1" d="M6.8,10.9s0,0,0,0c0,0,0,0,0,0Z"/>
        <path class="st7" d="M6.1,11.1h0s0,0,0,0c0,0,0,0,0,0h0Z"/>
        <polygon class="st2" points="6.9 10.4 6.9 10.4 6.9 10.4 6.9 10.4"/>
        <path class="st2" d="M6.9,10.4s0,0,0,0c0,0,0,0,0,0Z"/>
        <polygon class="st2" points="6.9 10.3 6.9 10.3 6.9 10.3 6.9 10.3"/>
        <path class="st7" d="M7,11s0,0,0,0c0,0,0,0,0,0,0,0,0,0,0,0,0,0,0,0,0,0,0,0,0,0,0,0,0,0,0,0,0,0,0,0,0,0,0,0,0,0,0,0,0,0,0,0,0,0,0,0,0,0,0,0,0,0,0,0,0,0,0,0,0,0,0,0,0,0Z"/>
        <path class="st4" d="M6.6,11s0,0,0,0h-.1s0,0,0,0c0,0,0,0,0,0,0,0,0,0,0,0h.1s0,0,0,0c0,0,0,0,0,0Z"/>
        <path class="st2" d="M6.1,10s0,0,0,0c0,0,0,0,0,0,0,0,0,0,0,0,0,0,0,0,0,0Z"/>
        <path class="st2" d="M6,10s0,0,0,0c0,0,0,0,0,0,0,0,0,0,0,0,0,0,0,0,0,0Z"/>
        <path class="st2" d="M6,10s0,0,0,0c0,0,0,0,0,0,0,0,0,0,0,0,0,0,0,0,0,0Z"/>
        <path class="st2" d="M5.9,10s0,0,0,0c0,0,0,0,0,0,0,0,0,0,0,0,0,0,0,0,0,0Z"/>
        <path class="st2" d="M5.8,10.1s0,0,0,0c0,0,0,0,0,0,0,0,0,0,0,0,0,0,0,0,0,0Z"/>
        <path class="st2" d="M5.7,10.1s0,0,0,0c0,0,0,0,0,0s0,0,0,0c0,0,0,0,0,0Z"/>
        <path class="st2" d="M5.6,10.2s0,0,0,0c0,0,0,0,0,0,0,0,0,0,0,0,0,0,0,0,0,0Z"/>
        <path class="st2" d="M5.6,10.2s0,0,0,0c0,0,0,0,0,0,0,0,0,0,0,0,0,0,0,0,0,0Z"/>
        <path class="st2" d="M5.5,10.3s0,0,0,0c0,0,0,0,0,0,0,0,0,0,0,0,0,0,0,0,0,0Z"/>
        <path class="st2" d="M5.5,10.4s0,0,0,0c0,0,0,0,0,0,0,0,0,0,0,0,0,0,0,0,0,0Z"/>
        <path class="st2" d="M5.5,10.5s0,0,0,0c0,0,0,0,0,0,0,0,0,0,0,0,0,0,0,0,0,0Z"/>
        <path class="st2" d="M5.5,10.6s0,0,0,0c0,0,0,0,0,0,0,0,0,0,0,0,0,0,0,0,0,0Z"/>
        <path class="st2" d="M5.6,10.6s0,0,0,0c0,0,0,0,0,0,0,0,0,0,0,0,0,0,0,0,0,0Z"/>
        <path class="st2" d="M6.7,11s0,0,0,0,0,0,0,0,0,0,0,0,0,0,0,0Z"/>
        <path class="st2" d="M6.3,11.1s0,0,0,0,0,0,0,0,0,0,0,0,0,0,0,0Z"/>
        <path class="st1" d="M5.9,10.8s0,0,0,0c0,0,0,0-.1,0,0,0,0,0,0,0,0,0,0,0,0,0,0,0,0,0,0,0,0,0,.1-.1.1-.1,0,0,0,0,0,0,0,0,.1,0,.1,0,0,0,0,0,0,0Z"/>
        <path class="st1" d="M5.8,10.8s0,0,0,0h0s0,0,0,0c0,0,0,0,0,0,0,0,0,0,0,0,0,0,0,0,0,0s0,0,0,0h0s0,0,0,.1Z"/>
        <path class="st7" d="M5.8,10.9s0,0,0,0c0,0,0,0,0,0,0,0,0,0,0,0,0,0,0,0,0,0,0,0,0,0,0,0,0,0,0,0,0,0,0,0,0,0,0,0,0,0,0,0,0,0,0,0,0,0,0,0,0,0,0,0,0,0Z"/>
        <path class="st2" d="M6.1,10.8s0,0,0,0c0,0,0,0,0,0,0,0,0,0,0,0,0,0,0,0,0,0,0,0,0,0,0,0,0,0,0,0,0,0Z"/>
        <path class="st2" d="M6.6,10.7s0,0,0,0c0,0,0,0,0,0,0,0,0,0,0,0,0,0,0,0,0,0,0,0,0,0,0,0,0,0,0,0,0,0,0,0,0,0,0,0Z"/>
        <path class="st1" d="M6.2,10.1s0,0,0,0c0,0,0,0-.1,0-.2,0-.4,0-.4.2,0,0,0,.1,0,.2,0,0,0,0,0,0h0c0,.1-.2,0,0-.3.1-.2.3-.2.5-.2s0,0,.1,0c0,0,0,0,0,0,0,0,0,0,0,0s0,0,0,0Z"/>
        <path class="st1" d="M6.8,10s0,0,0,0c0,0-.1,0-.3,0-.2,0-.3.1-.3.2s0,0,0,.1c0,0,0,0,0,0h0c0,0,0,0,0,0,0,0,0,0,0,0,0,0,0,0,0,0,0,0,0,0,0,0s0,0,0,0,0,0,0,0c0,0,0,0,0,0,0,0,0,0,0,0h0s0,0,0,0,0,0,0,0c0,0,0,0,0,0h0s0,0,0,0,0,0,0,0,0,0,0,0c0,0,0,0,0,0,0,0,0,0,0,0,0,0,0,0,0,0s0,0,0,0c0,0,0,0,0,0,0,0,0,0,0,0,0,0,0,0,0,0,0,0,0,0,0,0,0,0,0,0,0,0,0,0,.2-.2.3-.2s.2,0,.3,0Z"/>
        <g>
          <path class="st7" d="M6.2,10.9c0,0-.1,0-.2,0,0,0,0,0,0,0,0,0,0,0,0,0,0,0,0,0,0,0,0,0,0,0,0,0,0,0,0,0,0,0,0,0-.2,0-.2,0,0,0,0,0,0,0,0,0,.1,0,.1,0,0,0,0,0,0,0,0,0,0,0,0,0,0,0,0,0-.1,0,0,0,0,0,0,0,0,0-.1,0-.1.1,0,0,0,0,0,0,0-.1,0-.2,0-.2h0s0,0,0,0h0c0-.1,0-.1,0-.2,0,0,.2-.1.4-.1s0,0,.1,0h0s0,0,0,0,0,0,0,0c0,0,0,0,0,0,0,0,0,0,0,0,0,0,0,0,0,0s0,0,0,0c0,0,0,0,0,0,0,0,0,0,0,0,0,0,0,0,0,0,0,0,0,0,0,.1,0,0,0,0,0,0,0,0-.1,0-.1,0,0,0,0,0,0,0,0,0,0,0,0,0,0,0,0,0,0,0,0,0,0,0,0,0,0,0,0,0,.1,0,0,0,0,0,0,0,0,0,0,.1,0,.2Z"/>
          <path class="st7" d="M6.8,10.8c0,0-.1,0-.2,0,0,0,0,0,0,0,0,0,0,0,0,0,0,0,0,0,0,0,0,0,0,0,0,0,0,0,0,0,0,0,0,0,0,0-.1.1,0,0-.2,0-.2-.1h0s0,0,0,0c0,0,.1,0,.1,0,0,0,0,0,0,0,0,0,0,0,0,0,0,0,0,0,0,0,0,0,0,0,0,0,0,0,0,0-.1,0,0,0,0,0,0,0,0,0,0-.1,0-.1,0,0,0,0,0,0,0,0,0,0,0,0h0c0,0,0-.1,0-.1,0,0,0,0,0,0,0,0,.2,0,.5-.1,0,0,0,.1,0,.1h.1c0,0,0,.1,0,.1,0,0,0,0,0,0,0,0,0,.1,0,.2,0,0,0,0,0,0,0,0-.2,0-.2,0,0,0,0,0,0,0,0,0-.1,0-.1,0,0,0,0,0,.1,0,0,0,0,0,0,0,0,0,.1,0,.2,0,0,0,0,0,0,0,0,0,0,0,0,0h0s0,0,0,0c0,0,0,0,0,0,0,0,0,0,0,0,0,0,0,0,0,0,0,0,0,.1,0,.2Z"/>
        </g>
        <path class="st7" d="M6.2,10.9c0,0-.1,0-.2,0,0,0,0,0,0,0,0,0,0,0,.1,0Z"/>
        <path class="st7" d="M6.7,10.9c-.2,0-.4,0-.5,0,0,0,0,0,.1,0,0,0,.1.1.3,0,0,0,0,0,.1,0Z"/>
        <path class="st1" d="M6,11s0,0,0,0h0s0,0,0,0Z"/>
        <g>
          <path class="st2" d="M6.8,9.9s0,0,0,0,0,0,0,0,0,0,0,0,0,0,0,0Z"/>
          <path class="st2" d="M6.7,9.9s0,0,0,0,0,0,0,0,0,0,0,0,0,0,0,0Z"/>
          <path class="st2" d="M6.6,9.9s0,0,0,0,0,0,0,0,0,0,0,0,0,0,0,0Z"/>
          <path class="st2" d="M6.6,9.9s0,0,0,0,0,0,0,0,0,0,0,0,0,0,0,0Z"/>
          <path class="st2" d="M6.5,9.9s0,0,0,0,0,0,0,0,0,0,0,0,0,0,0,0Z"/>
          <path class="st2" d="M6.4,9.9s0,0,0,0,0,0,0,0,0,0,0,0,0,0,0,0Z"/>
          <path class="st2" d="M6.3,10s0,0,0,0,0,0,0,0,0,0,0,0,0,0,0,0Z"/>
          <path class="st2" d="M6.2,10s0,0,0,0,0,0,0,0,0,0,0,0,0,0,0,0Z"/>
          <path class="st2" d="M6.2,10.1s0,0,0,0c0,0,0,0,0,0,0,0,0,0,0,0,0,0,0,0,0,0s0,0,0,0c0,0,0,0,0,0,0,0,0,0,0,0,0,0,0,0,0,0Z"/>
          <path class="st2" d="M6.2,10.2s0,0,0,0,0,0,0,0c0,0,0,0,0,0s0,0,0,0,0,0,0,0c0,0,0,0,0,0Z"/>
          <path class="st2" d="M6.2,10.3s0,0,0,0h0s0,0,0,0c0,0,0,0,0,0s0,0,0,0c0,0,0,0,0,0,0,0,0,0,0,0Z"/>
          <path class="st2" d="M6.2,10.3h0s0,0,0,0c0,0,0,0,0,0,0,0,0,0,0,0h0s0,0,0,0c0,0,0,0,0,0,0,0,0,0,0,0h0Z"/>
        </g>
        <path class="st2" d="M6.2,10.4s0,0,0,0c0,0,0,0,0,0,0,0,0,0,0,0s0,0,0,0c0,0,0,0,0,0,0,0,0,0,0,0Z"/>
        <path class="st1" d="M6.3,10.7s-.1,0-.1,0c0,0,0,0,0,0,0,0,0,0,0,0,0,0,0,0,0,0,0,0,0,0,0,0,0,0,0,0,.1,0,0,0,0,0,0,0,0,0,0,0,0,0Z"/>
        <path class="st1" d="M6.4,10.5s0,0,0,.1c0,0,0,0,0,0,0,0,0,0,0,0,0,0,0-.1,0-.1,0,0,0,0,0,0,0,0,0,0,0,0,0,0,0,0,0,0,0,0,0,0,0,0,0,0,0,0,0,0,0,0,0,0,0,0Z"/>
        <path class="st7" d="M6.3,10.7s0,0,0,0h0s0,0,0,0c0,0,0,0,0,0,0,0,0,0,0,0,0,0,0,0,0,0,0,0,0,0,0,0,0,0,0,0,0,0,0,0,0,0,0,0,0,0,0,0,0,0,0,0,0,0,0,0,0,0,0,0,0,0,0,0,0,0,0,0Z"/>
      </g>
      <path class="st1" d="M7,10.2s0,0,0,0c0,0,0,0,0-.1,0,0,0,0,0,0,0,0,0,0-.1,0s0,0-.1,0c0,0,0,0,0,0,0,0,0,0,0,.1s0,0,0,0c0,0,0,.1,0,.1h.1c0,0,0,0,0,0,0,0,0,0,0,0,0,0,0,0,0,0,0,0,0,0,0,0,0,0,0,0,0,0,0,0,0,0,0,0,0,0,0,0,0,0,0,0,0,0,0,0,0,0,0,0,0,0,0,0,0,0,0,0,0,0,0,0,0,0,0,0,0,0,0,0,0,0,0,0,0,0,0,0,0,0,0,0,0,0,0,0,0,0h0s0,0,0,0,0,0,0,0h0s0,0,0,0c0,0,0,0,0,0,0,0,0,0,0,0,0,0,0,0,0,0,0,0,0,0,0,0,0,0,0,0,0,0,0,0,0,0,0,0,0,0,0,0,0,0,0,0,0,0,0,0,0,0,0,0,0,0,0,0,0,0,0,0,0,0,0,0,0,0,0,0,0,0,0,0,0,0,0,0,0,0h.1c0,0,0-.2,0-.2ZM6.9,10s0,0,0,0c0,0,0,0,0,0,0,0,0,0,0,0,0,0,0,0,0,0,0,0,0,0,0,0,0,0,0,0,0,0ZM6.9,10s0,0,0,0c0,0,0,0,0,0,0,0,0,0,0,0s0,0,0,0c0,0,0,0,0,0,0,0,0,0,0,0ZM6.9,10.2s0,0,0,0,0,0,0,0c0,0,0,0,0,0,0,0,0,0,0,0s0,0,0,0c0,0,0,0,0,0ZM7,10.3s0,0,0,0,0,0,0,0c0,0,0,0,0,0,0,0,0,0,0,0s0,0,0,0c0,0,0,0,0,0Z"/>
      <polygon class="st1" points="6.9 10.3 6.9 10.3 6.9 10.3 6.9 10.3"/>
      <path class="st1" d="M7,10.4s0,0,0,0c0,0,0,0,0,0Z"/>
      <polygon class="st1" points="7 10.4 7 10.4 7 10.4 7 10.4"/>
      <path class="st7" d="M7,10.9s0,0-.1,0,0,0-.1,0c0,0,0,0,.1,0,0,0,0,0,.1,0Z"/>
      <path class="st1" d="M7,11s0,0,0,0c0,0,0,0,0,0,0,0,0,0,0,0s0,0,0,0c0,0,0,0,0,0,0,0,0,0,0,0,0,0,0,0,0,0,0,0,0,0,0,0,0,0,0,0,0,0,0,0,0,0,0,0,0,0,0,0,0,0s0,0,0,0Z"/>
      <path class="st0" d="M6.9,10.9h0c-.4,0-.7,0-.9.1,0,0,0,0,0,0h0s0,0,0,0c0,0,0,0,0,0,.2,0,.5-.1.8-.1h0c.3,0,.6,0,.8.1,0,0,0,0,0,0h0s0,0,0,0c0,0,0,0,0,0-.2,0-.5-.1-.9-.1ZM6.2,11.1s0,0,0,0,0,0,0,0,0,0,0,0,0,0,0,0ZM6.5,11.1h-.1s0,0,0,0c0,0,0,0,0,0,0,0,0,0,0,0h.1s0,0,0,0c0,0,0,0,0,0,0,0,0,0,0,0ZM6.7,11.1s0,0,0,0,0,0,0,0,0,0,0,0,0,0,0,0ZM7,11s0,0,0,0h-.2s0,0,0,0c0,0,0,0,0,0s0,0,0,0c0,0,0,0,0,0h.2s0,0,0,0c0,0,0,0,0,0s0,0,0,0ZM7.1,11.1s0,0,0,0,0,0,0,0,0,0,0,0,0,0,0,0ZM7.5,11s0,0,0,0h-.1s0,0,0,0,0,0,0,0c0,0,0,0,0,0h.1s0,0,0,0,0,0,0,0ZM7.6,11.1s0,0,0,0,0,0,0,0,0,0,0,0,0,0,0,0Z"/>
      <path class="st1" d="M7.8,11.2s0,0,0,0c-.2,0-.5-.1-.8-.1h0c-.3,0-.6,0-.8.1,0,0,0,0,0,0,0,0,0,0,0,0,0,0,0,0,0,0,.1,0,.2,0,.4,0h.9c.2,0,.3,0,.4,0,0,0,0,0,0,0,0,0,0,0,0,0ZM6.9,11.3c-.3,0-.6,0-.8,0,.2,0,.5,0,.8,0h0c.3,0,.6,0,.8,0-.2,0-.5,0-.8,0Z"/>
      <path class="st7" d="M7.7,11.2c-.2,0-.5,0-.8,0s-.6,0-.8,0c.2,0,.5,0,.8,0h0c.3,0,.6,0,.8,0Z"/>
      <path class="st1" d="M7.9,11s0,0,0,0h0s0,0,0,0c0,0,0,0,0,0,0,0,0,0,0,0-.2,0-.5-.1-.9-.1h0c-.4,0-.7,0-.9.1,0,0,0,0,0,0,0,0,0,0,0,0,0,0,0,0,0,0h0s0,0,0,0c0,0,0,0,0,0,0,0,0,0,0,0t0,0h0s0,0,0,0h0c0,0,.1,0,.2,0,0,0,0,0,0,0,.1,0,.3,0,.5,0,0,0,0,0,0,0,0,0,0,0,.1,0s0,0,.1,0c0,0,0,0,0,0,.2,0,.4,0,.5,0,0,0,0,0,0,0,0,0,.1,0,.2,0h0s0,0,0,0h0s0,0,0,0c0,0,0,0,0,0,0,0,0,0,0,0Z"/>
      <path class="st1" d="M7.1,10.9s0,0,0,0c0,0,0,0,0,0Z"/>
      <path class="st1" d="M7.6,10.9s0,0,0,0c0,0,0,0,0,0Z"/>
      <path class="st1" d="M7.8,11h0s0,0,0,0c0,0,0,0,0,0Z"/>
      <path class="st7" d="M7.8,11.1s0,0,0,0c0,0,0,0,0,0h0s0,0,0,0Z"/>
      <path class="st7" d="M7,11s0,0,0,0c0,0,0,0,0,0,0,0,0,0,0,0,0,0,0,0,0,0,0,0,0,0,0,0,0,0,0,0,0,0,0,0,0,0,0,0,0,0,0,0,0,0h-.2s0,0,0,0c0,0,0,0,0,0,0,0,0,0,0,0,0,0,0,0,0,0,0,0,0,0,0,0,0,0,0,0,0,0,0,0,0,0,0,0,0,0,0,0,0,0,0,0,0,0,0,0,0,0,0,0,0,0,0,0,0,0,0,0,0,0,0,0,0,0h.2s0,0,0,0c0,0,0,0,0,0,0,0,0,0,0,0,0,0,0,0,0,0Z"/>
      <path class="st4" d="M7.5,11s0,0,0,0c0,0,0,0,0,0h-.1s0,0,0,0,0,0,0,0c0,0,0,0,0,0h.1s0,0,0,0Z"/>
      <path class="st2" d="M7.7,10s0,0,0,0c0,0,0,0,0,0,0,0,0,0,0,0,0,0,0,0,0,0Z"/>
      <path class="st2" d="M7.9,10s0,0,0,0c0,0,0,0,0,0,0,0,0,0,0,0,0,0,0,0,0,0Z"/>
      <path class="st2" d="M7.8,10s0,0,0,0c0,0,0,0,0,0,0,0,0,0,0,0,0,0,0,0,0,0Z"/>
      <path class="st2" d="M8,10s0,0,0,0c0,0,0,0,0,0,0,0,0,0,0,0,0,0,0,0,0,0Z"/>
      <path class="st2" d="M8,10.1s0,0,0,0c0,0,0,0,0,0,0,0,0,0,0,0,0,0,0,0,0,0Z"/>
      <path class="st2" d="M8.1,10.1s0,0,0,0c0,0,0,0,0,0,0,0,0,0,0,0,0,0,0,0,0,0Z"/>
      <path class="st2" d="M8.2,10.2s0,0,0,0c0,0,0,0,0,0,0,0,0,0,0,0,0,0,0,0,0,0Z"/>
      <path class="st2" d="M8.3,10.2s0,0,0,0c0,0,0,0,0,0,0,0,0,0,0,0,0,0,0,0,0,0Z"/>
      <path class="st2" d="M8.3,10.3s0,0,0,0c0,0,0,0,0,0,0,0,0,0,0,0,0,0,0,0,0,0Z"/>
      <path class="st2" d="M8.3,10.4s0,0,0,0c0,0,0,0,0,0,0,0,0,0,0,0,0,0,0,0,0,0Z"/>
      <path class="st2" d="M8.3,10.5s0,0,0,0c0,0,0,0,0,0,0,0,0,0,0,0,0,0,0,0,0,0Z"/>
      <path class="st2" d="M8.3,10.6s0,0,0,0c0,0,0,0,0,0,0,0,0,0,0,0,0,0,0,0,0,0Z"/>
      <path class="st2" d="M8.3,10.6s0,0,0,0c0,0,0,0,0,0,0,0,0,0,0,0,0,0,0,0,0,0Z"/>
      <path class="st2" d="M7.2,11s0,0,0,0,0,0,0,0,0,0,0,0,0,0,0,0Z"/>
      <path class="st2" d="M7.6,11.1s0,0,0,0,0,0,0,0,0,0,0,0,0,0,0,0Z"/>
      <path class="st1" d="M7.9,10.8s0,0,0,0c0,0,0,0,.1,0,0,0,0,0,0,0,0,0,0,0,0,0,0,0,0,0,0,0,0,0-.1-.1-.1-.1,0,0,0,0,0,0,0,0-.1,0-.1,0,0,0,0,0,0,0Z"/>
      <path class="st1" d="M8.1,10.8s0,0,0,0h0s0,0,0,0c0,0,0,0,0,0,0,0,0,0,0,0,0,0,0,0,0,0s0,0,0,0h0s0,0,0,.1Z"/>
      <path class="st7" d="M8.1,10.9s0,0,0,0c0,0,0,0,0,0,0,0,0,0,0,0,0,0,0,0,0,0,0,0,0,0,0,0,0,0,0,0,0,0,0,0,0,0,0,0,0,0,0,0,0,0,0,0,0,0,0,0,0,0,0,0,0,0Z"/>
      <path class="st2" d="M7.8,10.8s0,0,0,0c0,0,0,0,0,0,0,0,0,0,0,0,0,0,0,0,0,0,0,0,0,0,0,0,0,0,0,0,0,0Z"/>
      <path class="st2" d="M7.2,10.7s0,0,0,0c0,0,0,0,0,0,0,0,0,0,0,0,0,0,0,0,0,0,0,0,0,0,0,0,0,0,0,0,0,0,0,0,0,0,0,0Z"/>
      <path class="st1" d="M7.6,10.1s0,0,0,0c0,0,0,0,.1,0,.2,0,.4,0,.4.2,0,0,0,.1,0,.2,0,0,0,0,0,0h0c0,.1.2,0,0-.3-.1-.2-.3-.2-.5-.2s0,0-.1,0c0,0,0,0,0,0,0,0,0,0,0,0s0,0,0,0Z"/>
      <path class="st1" d="M7.7,10.3s0,0,0,0h0s0,0,0,0c0,0,0,0,0,0,0,0,0,0,0,0h0s0,0,0,0c0,0,0,0,0,0,0,0,0,0,0,0,0,0,0,0,0,0s0,0,0,0c0,0,0,0,0,0,0,0,0,0,0,0,0,0,0,0,0,0h0c0,0,0-.1,0-.1,0,0,0,0,0-.1,0,0,0-.2-.3-.2s-.2,0-.3,0c0,0,0,0,0,0,0,0,.1,0,.3,0s.3,0,.3.2c0,0,0,0,0,0,0,0,0,0,0,0,0,0,0,0,0,0,0,0,0,0,0,0,0,0,0,0,0,0,0,0,0,0,0,0s0,0,0,0,0,0,0,0c0,0,0,0,0,0,0,0,0,0,0,0,0,0,0,0,0,0Z"/>
      <g>
        <path class="st7" d="M8.2,10.6c0,0,0,0,0,0h0s0,0,0,.1c0,0,0,0,0,0,0,0-.1-.1-.1-.1,0,0,0,0,0,0,0,0-.1,0-.1,0,0,0,0,0,0,0,0,0,0,0,0,0,0,0,0,0,.1,0,0,0,0,0,0,0,0,0-.2.1-.2,0,0,0,0,0,0,0,0,0,0,0,0,0,0,0,0,0,0,0,0,0,0,0,0,0,0,0,0,0,0,0,0,0,0,0-.2,0,0,0,0-.1,0-.2,0,0,0,0,0,0,0,0,.1,0,.1,0,0,0,0,0,0,0,0,0,0,0,0,0,0,0,0,0,0,0,0,0,0,0,0,0,0,0,0,0-.1,0,0,0,0,0,0,0,0,0,0-.1,0-.1,0,0,0,0,0,0,0,0,0,0,0,0,0,0,0,0,0,0,0,0,0,0,0,0,0,0,0,0,0,0s0,0,0,0c0,0,0,0,0,0,0,0,0,0,0,0,0,0,0,0,0,0h.1c.2,0,.3,0,.4.1,0,0,0,0,0,0h0Z"/>
        <path class="st7" d="M7.5,10.5s0,0,0,0c0,0,0,0,0,0,0,0,0,0,0,.1,0,0,0,0,0,0,0,0-.1,0-.1,0,0,0,0,0,0,0,0,0,0,0,0,0,0,0,0,0,0,0,0,0,0,0,0,0,0,0,0,0,.1,0,0,0,0,0,0,0h0c0,0,0,.1-.2.1,0,0,0,0-.1-.1,0,0,0,0,0,0,0,0,0,0,0,0,0,0,0,0,0,0,0,0,0,0,0,0,0,0,0,0,0,0,0,0,0,0-.2,0,0,0-.1-.1,0-.2,0,0,0,0,0,0,0,0,0,0,0,0,0,0,0,0,0,0,0,0,0,0,0,0,0,0,0,0,0,0,0,0,0,0,0,0,0,0,0,0,0,0,0,0,0,0,0,0,0,0,0,0,0,0,0,0,0,0,0,0,0,0,0,0,0,0,0,0,0,0,0,0,0,0,0,0,0,0,0,0,0,0,0,0,0,0,0,0,0,0,0,0,0,0,0,0,0,0,0,0,0,0,0,0,0,0,0,0,0,0,0,0,0,0,0,0,0,0,0,0,0,0,0,0,0,0,0,0,0,0,0,0,0,0,0,0,0,0,0,0,.1,0,.1,0,0,0,0,0-.1,0,0,0,0,0,0,0,0,0,0,0,0,0,0,0,0,0,0,0,0,0,0,0,0,0,0,0,0,0,0,0,0,0,0,0,0,0,0,0,0,0,0,0,0,0,0,0,0,0,0,0,0,0,0,0,0,0,0,0,0,0,0,0,0,0,0,0,0,0,0,0,0,0,0,0,0,0,0,0,0,0,0,0,0,0,0,0,0,0,0,0,0,0,0,0,0,0,0,0,0-.2,0-.2,0,0,0,0,0,0,0,0,0,0,0,0,0,0,0,0,0,0h0s.1,0,.1,0c0,0,0,0,0-.1.2,0,.4,0,.5.1,0,0,0,0,0,0,0,0,0,0,0,0h0Z"/>
      </g>
      <path class="st7" d="M7.8,11c0,0-.1,0-.2,0,0,0,.1,0,.1,0,0,0,0,0,0,0Z"/>
      <path class="st7" d="M7.6,10.9c-.1,0-.3,0-.5,0,0,0,.1,0,.1,0,.2.1.3,0,.3,0,0,0,0,0,.1,0Z"/>
      <path class="st1" d="M8,10.9s-.1.1-.2.1t0,0s0,0,0,0h0s0,0,0,0c0,0,0,0-.1,0,0,0,0,0,0,0,0,0,0,0-.1,0,0,0-.1.1-.3,0,0,0,0,0-.1,0,0,0,0,0,0,0,0,0,0,0-.1,0,0,0,0,0-.1,0,0,0,0,0,0,0,0,0-.1,0-.1,0-.2.1-.3,0-.3,0,0,0,0,0-.1,0,0,0,0,0,0,0,0,0-.1,0-.1,0,0,0,0,0,0,0h0s0,0,0,0t0,0c0,0-.2,0-.2-.1,0,0,0,0,0,0,0,0,0,0,0,0,0,0,.2.1.2,0,0,0,0,0,0,0,0,0,0,0,0,0,0,0,0,0,0,0,0,0,0,0,.2,0,0,0,0-.1,0-.2,0,0,0,0,0,0,0,0,0,0,0,0,0,0,0,.1.2.1,0,0,0,0,.1-.1,0,0,0,0,0,0,0,0,0,0,0,0,0,0,0,0,.2,0,0,0,.1-.1,0-.2,0,0,0,0,0,0,0,0,0,0,0,0,0,0,0,0,0,0s0,0,0,0c0,0,0,0,0,0,0,0,0,0,0,0,0,0,0,.1,0,.2,0,0,.1,0,.2,0,0,0,0,0,0,0,0,0,0,0,0,0,0,0,0,0,.1.1,0,0,.2,0,.2-.1,0,0,0,0,0,0,0,0,0,0,0,0,0,0,0,.1,0,.2,0,0,.1,0,.2,0,0,0,0,0,0,0,0,0,0,0,0,0,0,0,0,0,0,0,0,0,.2,0,.2,0,0,0,0,0,0,0,0,0,0,0,0,0Z"/>
      <path class="st1" d="M7.8,11h0s0,0,0,0c0,0,0,0,0,0Z"/>
      <g>
        <path class="st2" d="M7,9.9s0,0,0,0,0,0,0,0,0,0,0,0,0,0,0,0Z"/>
        <path class="st2" d="M7.1,9.9s0,0,0,0,0,0,0,0,0,0,0,0,0,0,0,0Z"/>
        <path class="st2" d="M7.2,9.9s0,0,0,0,0,0,0,0,0,0,0,0,0,0,0,0Z"/>
        <path class="st2" d="M7.3,9.9s0,0,0,0,0,0,0,0,0,0,0,0,0,0,0,0Z"/>
        <path class="st2" d="M7.4,9.9s0,0,0,0,0,0,0,0,0,0,0,0,0,0,0,0Z"/>
        <path class="st2" d="M7.4,9.9s0,0,0,0,0,0,0,0,0,0,0,0,0,0,0,0Z"/>
        <path class="st2" d="M7.5,10s0,0,0,0,0,0,0,0,0,0,0,0,0,0,0,0Z"/>
        <path class="st2" d="M7.6,10s0,0,0,0,0,0,0,0,0,0,0,0,0,0,0,0Z"/>
        <path class="st2" d="M7.6,10.1s0,0,0,0c0,0,0,0,0,0,0,0,0,0,0,0,0,0,0,0,0,0s0,0,0,0c0,0,0,0,0,0,0,0,0,0,0,0,0,0,0,0,0,0Z"/>
        <path class="st2" d="M7.6,10.2s0,0,0,0,0,0,0,0c0,0,0,0,0,0s0,0,0,0,0,0,0,0c0,0,0,0,0,0Z"/>
        <path class="st2" d="M7.7,10.3s0,0,0,0h0s0,0,0,0c0,0,0,0,0,0s0,0,0,0c0,0,0,0,0,0,0,0,0,0,0,0Z"/>
        <path class="st2" d="M7.6,10.3h0s0,0,0,0c0,0,0,0,0,0,0,0,0,0,0,0h0s0,0,0,0c0,0,0,0,0,0,0,0,0,0,0,0h0Z"/>
      </g>
      <path class="st2" d="M7.6,10.4s0,0,0,0c0,0,0,0,0,0,0,0,0,0,0,0s0,0,0,0c0,0,0,0,0,0,0,0,0,0,0,0Z"/>
      <path class="st1" d="M7.6,10.7s.1,0,.1,0c0,0,0,0,0,0,0,0,0,0,0,0,0,0,0,0,0,0,0,0,0,0,0,0,0,0,0,0-.1,0,0,0,0,0,0,0,0,0,0,0,0,0Z"/>
      <path class="st1" d="M7.5,10.5s0,0,0,.1c0,0,0,0,0,0,0,0,0,0,0,0,0,0,0-.1,0-.1,0,0,0,0,0,0,0,0,0,0,0,0,0,0,0,0,0,0,0,0,0,0,0,0,0,0,0,0,0,0,0,0,0,0,0,0Z"/>
      <path class="st1" d="M7.5,10.7s-.1,0-.1,0c0,0,0,0,0,0,0,0,0,0,0,0,0,0,0,0,0,0,0,0,0,0,0,0,0,0,0,0,.1,0,0,0,0,0,0,0,0,0,0,0,0,0Z"/>
      <path class="st7" d="M7.6,10.7s0,0,0,0c0,0,0,0,0,0,0,0,0,0,0,0,0,0,0,0,0,0h0s0,0,0,0c0,0,0,0,0,0,0,0,0,0,0,0,0,0,0,0,0,0,0,0,0,0,0,0,0,0,0,0,0,0,0,0,0,0,0,0,0,0,0,0,0,0Z"/>
      <path class="st7" d="M7,10.6s0,0,0,0c0,0,0,0,0,0,0,0,0,0,0,0,0,0,0,0,0,0,0,0,0,0,0,0,0,0,0,0,0,0,0,0,0,0,0,0,0,0,0,0,0,0,0,0,0,0,0,0,0,0,0,0,0,0s0,0,0,0c0,0,0,0,0,0,0,0,0,0,0,0,0,0,0,0,0,0,0,0,0,0,0,0,0,0,0,0,0,0,0,0,0,0,0,0h0s0,0,0,0c0,0,0,0,0,0,0,0,0,0,0,0s0,0,0,0c0,0,0,0,0,0,0,0,0,0,0,0s0,0,0,0c0,0,0,0,0,0,0,0,0,0,0,0Z"/>
      <path class="st2" d="M7,10.4s0,0,0,0c0,0,0,0,0,0,0,0,0,0,0,0,0,0,0,0,0,0,0,0,0,0,0,0,0,0,0,0,0,0,0,0,0,0,0,0,0,0,0,0,0,0,0,0,0,0,0,0,0,0,0,0,0,0,0,0,0,0,0,0,0,0,0,0,0,0,0,0,0,0,0,0,0,0,0,0,0,0,0,0,0,0,0,0,0,0,0,0,0,0,0,0,0,0,0,0,0,0,0,0,0,0,0,0,0,0,0,0h0s0,0,0,0,0,0,0,0h0s0,0,0,0c0,0,0,0,0,0,0,0,0,0,0,0,0,0,0,0,0,0,0,0,0,0,0,0,0,0,0,0,0,0Z"/>
      <g>
        <path class="st1" d="M6.5,10.7s0,0,0,0c0,0,0,0-.1,0,0,0,0,0,0,0,0,0,0,0,0,0,0,0,.1,0,.1,0,0,0,0,0,0,0,0,0,0,0,0,0,0,0,0,0,0,0Z"/>
        <path class="st1" d="M6.7,10.7c0,0-.1,0-.1,0,0,0,0,0,.1,0,0,0,0,0,0,0,0,0,.1,0,.2,0,0,0,0,0,0,0s0,0,0,0c0,0-.2,0-.2,0,0,0,0,0,0,0Z"/>
        <path class="st1" d="M7,10.4s0,.1,0,.2c0,0,0,0,0,0s0,0,0,0c0,0,0-.2,0-.2,0,0,0,0,0,0,0,0,0,0,0,0,0,0,0,0,0,0,0,0,0,0,0,0,0,0,0,0,0,0,0,0,0,0,0,0h0s0,0,0,0c0,0,0,0,0,0,0,0,0,0,0,0Z"/>
      </g>
      <g>
        <path class="st2" d="M6.9,10s0,0,0,0c0,0,0,0,0,0,0,0,0,0,0,0,0,0,0,0,0,0,0,0,0,0,0,0,0,0,0,0,0,0Z"/>
        <path class="st2" d="M6.9,10.1s0,0,0,0,0,0,0,0c0,0,0,0,0,0,0,0,0,0,0,0s0,0,0,0c0,0,0,0,0,0Z"/>
        <path class="st2" d="M6.9,10.2s0,0,0,0,0,0,0,0c0,0,0,0,0,0,0,0,0,0,0,0s0,0,0,0c0,0,0,0,0,0Z"/>
        <path class="st2" d="M7,10.3s0,0,0,0,0,0,0,0c0,0,0,0,0,0,0,0,0,0,0,0s0,0,0,0c0,0,0,0,0,0Z"/>
      </g>
      <path class="st1" d="M7,9.8h0v-.2h0c0,0,0,0,0,0h0c0,0,0,0,0,0h0c0,0,0,0,0,0h0c0,0,0,0,0,0h0v.2h0s0,0,0,0c0,0,0,0,0,0h.2s0,0,0,0,0,0,0,0Z"/>
    </g>
    <polygon class="st7" points="5.1 11.3 5.1 11.3 5.1 11.3 5.1 11.4 5.1 11.4 5.1 11.3 5.1 11.3"/>
    <polygon class="st2" points="5.1 11.3 5.1 11.3 5.1 11.3 5.1 11.3 5.1 11.3"/>
    <path class="st1" d="M5.1,11.4s0,0,0,0c0,0-.1,0-.2,0h0c0,0-.1,0-.2,0,0,0,0,0,0,0,0,0,0,0,0,0,0,0,0,0,0,0,0,0,0,0,0,0h.2s0,0,0,0c0,0,0,0,0,0,0,0,0,0,0,0ZM4.9,11.4c0,0-.1,0-.2,0,0,0,.1,0,.2,0h0c0,0,.1,0,.2,0,0,0-.1,0-.2,0Z"/>
    <path class="st7" d="M5.1,11.4s-.1,0-.2,0-.1,0-.2,0c0,0,.1,0,.2,0h0c0,0,.1,0,.2,0Z"/>
    <polygon class="st2" points="9.1 11.1 9.1 11.1 9.1 11.1 9.1 11.1 9.1 11.1"/>
    <polygon class="st2" points="9.2 11.1 9.2 11.1 9.2 11.1 9.2 11.1 9.2 11.1"/>
    <polygon class="st2" points="9.2 11.1 9.2 11.1 9.2 11.1 9.2 11.1 9.2 11.1"/>
    <polygon class="st2" points="9.2 11.1 9.2 11.1 9.2 11.1 9.2 11.1 9.2 11.1"/>
    <polygon class="st2" points="9.2 11.1 9.2 11.2 9.2 11.2 9.2 11.1 9.2 11.1"/>
    <polygon class="st2" points="9.2 11.2 9.2 11.2 9.2 11.2 9.2 11.2 9.2 11.2"/>
    <polygon class="st2" points="9.2 11.2 9.2 11.2 9.2 11.2 9.2 11.2 9.2 11.2"/>
    <polygon class="st2" points="9.2 11.2 9.2 11.2 9.2 11.2 9.2 11.2 9.2 11.2"/>
    <polygon class="st2" points="9.2 11.2 9.2 11.2 9.2 11.2 9.2 11.2 9.2 11.2"/>
    <polygon class="st2" points="9.2 11.2 9.2 11.2 9.2 11.2 9.2 11.2 9.2 11.2"/>
    <path class="st0" d="M9.2,11.3s0,0,0,0h0s0,0,0,0c0,0,0,0,0,0,0,0,0,0,0,0,0,0,0,0,0,0s0,0,0,0h0s0,0,0,0Z"/>
    <polygon class="st1" points="9.2 11.3 9.2 11.3 9.2 11.3 9.2 11.3 9.2 11.3 9.2 11.3"/>
    <path class="st1" d="M9.2,11.3s0,0,0,0c0,0,0,0,0,0,0,0,0,0,0,0,0,0,0,0,0,0,0,0,0,0,0,0,0,0,0,0,0,0,0,0,0,0,0,0,0,0,0,0,0,0,0,0,0,0,0,0Z"/>
    <g>
      <path class="st1" d="M8.9,11h0s0,0,0,0c0,0,0,0,0,0Z"/>
      <path class="st1" d="M8.9,11h0s0,0,0,0Z"/>
      <path class="st1" d="M8.9,11.1s0,0,0,0c0,0,0,0,0,0s0,0,0,0h0s0,0,0,0h0Z"/>
      <g>
        <path class="st1" d="M8.9,11.3s0,0,0,0c0,0,0,0,0,0,0,0,0,0,0,0,0,0,0,0,0,0,0,0,0,0,0,0,0,0,0,0,0,0,0,0,0,0,0,0,0,0,0,0,0,0,0,0,0,0,0,0s0,0,0,0c0,0,0,0,0,0,0,0,0,0,0,0Z"/>
        <path class="st7" d="M8.9,11.3s0,0,0,0c0,0,0,0,0,0Z"/>
        <path class="st7" d="M8.7,11.3h0s0,0,0,0c0,0,0,0,0,0h0Z"/>
        <polygon class="st7" points="8.9 11.3 8.9 11.3 8.9 11.3 8.9 11.3 8.9 11.3 8.9 11.3 8.9 11.3 8.9 11.3 8.9 11.3 8.9 11.3 8.9 11.3 8.9 11.3 8.9 11.3"/>
        <polygon class="st4" points="8.8 11.3 8.8 11.3 8.8 11.3 8.8 11.3 8.8 11.3 8.8 11.3 8.8 11.3 8.8 11.3 8.8 11.3"/>
        <polygon class="st2" points="8.7 11.1 8.7 11.1 8.7 11.1 8.7 11.1 8.7 11.1"/>
        <polygon class="st2" points="8.7 11.1 8.7 11.1 8.7 11.1 8.7 11.1 8.7 11.1"/>
        <polygon class="st2" points="8.7 11.1 8.7 11.1 8.7 11.1 8.7 11.1 8.7 11.1"/>
        <polygon class="st2" points="8.7 11.1 8.7 11.1 8.6 11.1 8.7 11.1 8.7 11.1"/>
        <polygon class="st2" points="8.6 11.1 8.6 11.1 8.6 11.1 8.6 11.1 8.6 11.1"/>
        <polygon class="st2" points="8.6 11.1 8.6 11.1 8.6 11.1 8.6 11.1 8.6 11.1"/>
        <polygon class="st2" points="8.6 11.1 8.6 11.1 8.6 11.1 8.6 11.1 8.6 11.1"/>
        <polygon class="st2" points="8.6 11.1 8.6 11.2 8.6 11.2 8.6 11.1 8.6 11.1"/>
        <polygon class="st2" points="8.6 11.2 8.6 11.2 8.6 11.2 8.6 11.2 8.6 11.2"/>
        <polygon class="st2" points="8.6 11.2 8.6 11.2 8.6 11.2 8.6 11.2 8.6 11.2"/>
        <polygon class="st2" points="8.6 11.2 8.6 11.2 8.6 11.2 8.6 11.2 8.6 11.2"/>
        <polygon class="st2" points="8.6 11.2 8.6 11.2 8.6 11.2 8.6 11.2 8.6 11.2"/>
        <polygon class="st2" points="8.6 11.2 8.6 11.2 8.6 11.2 8.6 11.2 8.6 11.2"/>
        <polygon class="st2" points="8.9 11.3 8.8 11.3 8.8 11.3 8.8 11.3 8.9 11.3"/>
        <polygon class="st2" points="8.8 11.3 8.7 11.3 8.7 11.3 8.7 11.3 8.8 11.3"/>
        <g>
          <path class="st0" d="M8.7,11.3h0s0,0,0,0c0,0,0,0,0,0s0,0,0,0c0,0,0,0,0,0,0,0,0,0,0,0,0,0,0,0,0,0h0s0,0,0,0Z"/>
          <polygon class="st1" points="8.6 11.3 8.6 11.3 8.6 11.3 8.6 11.3 8.6 11.3 8.6 11.3"/>
        </g>
        <path class="st0" d="M8.6,11.3s0,0,0,0h0s0,0,0,0c0,0,0,0,0,0,0,0,0,0,0,0,0,0,0,0,0,0s0,0,0,0h0s0,0,0,0Z"/>
        <path class="st1" d="M8.6,11.3s0,0,0,0c0,0,0,0,0,0,0,0,0,0,0,0,0,0,0,0,0,0,0,0,0,0,0,0,0,0,0,0,0,0,0,0,0,0,0,0,0,0,0,0,0,0,0,0,0,0,0,0Z"/>
        <path class="st2" d="M8.8,11.3s0,0,0,0c0,0,0,0,0,0,0,0,0,0,0,0h0s0,0,0,0c0,0,0,0,0,0h0s0,0,0,0Z"/>
        <path class="st1" d="M8.7,11.1s0,0,0,0c0,0,0,0,0,0,0,0,0,0,0,0,0,0,0,0,0,0,0,0,0,0,0,0h0s0,0,0,0c0,0,0,0,.1,0s0,0,0,0c0,0,0,0,0,0,0,0,0,0,0,0s0,0,0,0Z"/>
        <path class="st1" d="M8.9,11.1s0,0,0,0c0,0,0,0,0,0,0,0,0,0,0,0s0,0,0,0c0,0,0,0,0,0h0s0,0,0,0h0s0,0,0,0h0s0,0,0,0c0,0,0,0,0,0,0,0,0,0,0,0s0,0,0,0c0,0,0,0,0,0s0,0,0,0c0,0,0,0,0,0h0s0,0,0,0h0s0,0,0,0,0,0,0,0c0,0,0,0,0,0,0,0,0,0,0,0,0,0,0,0,0,0s0,0,0,0c0,0,0,0,0,0h0s0,0,0,0h0s0,0,0,0,0,0,0,0c0,0,0,0,0,0,0,0,0,0,0,0h0s0,0,0,0c0,0,0,0,0,0,0,0,0,0,0,0,0,0,0,0,0,0,0,0,0,0,0,0h0s0,0,0,0c0,0,0,0,0,0s0,0,0,0Z"/>
        <g>
          <path class="st7" d="M8.8,11.3h0s0,0,0,0t0,0s0,0,0,0c0,0,0,0,0,0,0,0,0,0,0,0h0s0,0,0,0c0,0,0,0,0,0,0,0,0,0,0,0,0,0,0,0,0,0,0,0,0,0,0,0,0,0,0,0,0,0h0s0,0,0,0c0,0,0,0,0,0,0,0,0,0,0,0,0,0,0,0,0,0s0,0,0,0h0s0,0,0,0h0s0,0,0,0h0s0,0,0,0h0s0,0,0,0h0s0,0,0,0c0,0,0,0,0,0h0s0,0,0,0h0s0,0,0,0h0s0,0,0,0h0s0,0,0,0h0s0,0,0,0c0,0,0,0,0,0,0,0,0,0,0,0h0s0,0,0,0c0,0,0,0,0,0h0s0,0,0,0Z"/>
          <path class="st7" d="M8.9,11.3s0,0,0,0,0,0,0,0c0,0,0,0,0,0,0,0,0,0,0,0,0,0,0,0,0,0,0,0,0,0,0,0,0,0,0,0,0,0,0,0,0,0,0,0h0s0,0,0,0c0,0,0,0,0,0,0,0,0,0,0,0,0,0,0,0,0,0,0,0,0,0,0,0,0,0,0,0,0,0,0,0,0,0,0,0,0,0,0,0,0,0,0,0,0,0,0,0,0,0,0,0,0,0,0,0,0,0,0,0,0,0,0,0,0,0,0,0,0,0,0,0,0,0,0,0,0,0h0s0,0,0,0h0s0,0,0,0c0,0,0,0,0,0,0,0,0,0,0,0,0,0,0,0,0,0h0s0,0,0,0c0,0,0,0,0,0,0,0,0,0,0,0,0,0,0,0,0,0,0,0,0,0,0,0,0,0,0,0,0,0h0s0,0,0,0c0,0,0,0,0,0,0,0,0,0,0,0,0,0,0,0,0,0h0s0,0,0,0c0,0,0,0,0,0h0s0,0,0,0h0s0,0,0,0c0,0,0,0,0,0,0,0,0,0,0,0,0,0,0,0,0,0Z"/>
        </g>
        <path class="st7" d="M8.7,11.3s0,0,0,0c0,0,0,0,0,0,0,0,0,0,0,0Z"/>
        <path class="st7" d="M8.9,11.3s0,0-.1,0c0,0,0,0,0,0,0,0,0,0,0,0,0,0,0,0,0,0Z"/>
        <g>
          <polygon class="st2" points="8.9 11.1 8.9 11.1 8.9 11.1 8.9 11.1 8.9 11.1 8.9 11.1"/>
          <polygon class="st2" points="8.9 11.1 8.9 11.1 8.8 11.1 8.9 11.1 8.9 11.1"/>
          <polygon class="st2" points="8.8 11.1 8.8 11.1 8.8 11.1 8.8 11.1 8.8 11.1"/>
          <polygon class="st2" points="8.8 11.1 8.8 11.1 8.8 11.1 8.8 11.1 8.8 11.1"/>
          <polygon class="st2" points="8.8 11.1 8.8 11.1 8.8 11.1 8.8 11.1 8.8 11.1"/>
          <polygon class="st2" points="8.8 11.1 8.8 11.1 8.8 11.1 8.8 11.1 8.8 11.1"/>
          <polygon class="st2" points="8.8 11.1 8.8 11.1 8.7 11.1 8.8 11.1 8.8 11.1"/>
          <polygon class="st2" points="8.7 11.1 8.7 11.1 8.7 11.1 8.7 11.1 8.7 11.1"/>
          <polygon class="st2" points="8.7 11.1 8.7 11.1 8.7 11.1 8.7 11.1 8.7 11.1 8.7 11.1 8.7 11.1 8.7 11.1 8.7 11.1"/>
          <polygon class="st2" points="8.7 11.1 8.7 11.1 8.7 11.1 8.7 11.1 8.7 11.1 8.7 11.1 8.7 11.1"/>
          <polygon class="st2" points="8.7 11.2 8.7 11.2 8.7 11.2 8.7 11.2 8.7 11.2 8.7 11.2 8.7 11.2 8.7 11.2"/>
          <polygon class="st2" points="8.7 11.2 8.7 11.2 8.7 11.2 8.7 11.2 8.7 11.2 8.7 11.2 8.7 11.2 8.7 11.2 8.7 11.2 8.7 11.2"/>
        </g>
        <polygon class="st2" points="8.7 11.2 8.7 11.2 8.7 11.2 8.7 11.2 8.7 11.2 8.7 11.2 8.7 11.2"/>
        <path class="st0" d="M8.8,11.3s0,0,0,0h0s0,0,0,0h0s0,0,0,0c0,0,0,0,0,0,0,0,0,0,0,0,0,0,0,0,0,0Z"/>
        <polygon class="st1" points="8.8 11.2 8.8 11.3 8.8 11.3 8.8 11.3 8.8 11.3 8.7 11.3 8.7 11.3 8.7 11.2 8.7 11.2 8.8 11.2 8.8 11.2 8.8 11.2 8.8 11.2"/>
      </g>
      <path class="st1" d="M8.9,11.2h0s0,0,0,0ZM8.9,11.2h0s0,0,0,0h0Z"/>
      <path class="st7" d="M8.9,11.3s0,0,0,0,0,0,0,0c0,0,0,0,0,0,0,0,0,0,0,0Z"/>
      <path class="st1" d="M8.9,11.3s0,0,0,0c0,0,0,0,0,0,0,0,0,0,0,0s0,0,0,0c0,0,0,0,0,0,0,0,0,0,0,0,0,0,0,0,0,0,0,0,0,0,0,0,0,0,0,0,0,0,0,0,0,0,0,0,0,0,0,0,0,0s0,0,0,0Z"/>
      <path class="st0" d="M8.9,11.3h0c0,0-.2,0-.2,0,0,0,0,0,0,0h0s0,0,0,0c0,0,0,0,0,0,0,0,.1,0,.2,0h0c0,0,.1,0,.2,0,0,0,0,0,0,0h0s0,0,0,0c0,0,0,0,0,0,0,0-.1,0-.2,0ZM8.7,11.3s0,0,0,0,0,0,0,0,0,0,0,0,0,0,0,0ZM8.8,11.3h0s0,0,0,0c0,0,0,0,0,0,0,0,0,0,0,0h0s0,0,0,0c0,0,0,0,0,0,0,0,0,0,0,0ZM8.8,11.3s0,0,0,0,0,0,0,0,0,0,0,0,0,0,0,0ZM8.9,11.3s0,0,0,0h0s0,0,0,0c0,0,0,0,0,0s0,0,0,0c0,0,0,0,0,0h0s0,0,0,0c0,0,0,0,0,0s0,0,0,0ZM9,11.3s0,0,0,0,0,0,0,0,0,0,0,0,0,0,0,0ZM9,11.3s0,0,0,0h0s0,0,0,0,0,0,0,0c0,0,0,0,0,0h0s0,0,0,0,0,0,0,0ZM9.1,11.3s0,0,0,0,0,0,0,0,0,0,0,0,0,0,0,0Z"/>
      <path class="st1" d="M9.1,11.4s0,0,0,0c0,0-.1,0-.2,0h0c0,0-.1,0-.2,0,0,0,0,0,0,0,0,0,0,0,0,0,0,0,0,0,0,0,0,0,0,0,0,0h.2s0,0,0,0c0,0,0,0,0,0,0,0,0,0,0,0ZM8.9,11.4c0,0-.1,0-.2,0,0,0,.1,0,.2,0h0c0,0,.1,0,.2,0,0,0-.1,0-.2,0Z"/>
      <path class="st7" d="M9.1,11.4s-.1,0-.2,0-.1,0-.2,0c0,0,.1,0,.2,0h0c0,0,.1,0,.2,0Z"/>
      <path class="st1" d="M9.1,11.3s0,0,0,0h0s0,0,0,0c0,0,0,0,0,0,0,0,0,0,0,0,0,0-.1,0-.2,0h0c0,0-.2,0-.2,0,0,0,0,0,0,0,0,0,0,0,0,0,0,0,0,0,0,0h0s0,0,0,0c0,0,0,0,0,0,0,0,0,0,0,0t0,0h0s0,0,0,0h0s0,0,0,0c0,0,0,0,0,0,0,0,0,0,.1,0,0,0,0,0,0,0,0,0,0,0,0,0s0,0,0,0c0,0,0,0,0,0,0,0,0,0,.1,0,0,0,0,0,0,0,0,0,0,0,0,0h0s0,0,0,0h0s0,0,0,0c0,0,0,0,0,0,0,0,0,0,0,0Z"/>
      <polygon class="st1" points="9.1 11.3 9.1 11.3 9.1 11.3 9.1 11.3"/>
      <path class="st7" d="M9.1,11.3s0,0,0,0c0,0,0,0,0,0h0s0,0,0,0Z"/>
      <polygon class="st7" points="8.9 11.3 8.9 11.3 8.9 11.3 8.9 11.3 8.9 11.3 8.9 11.3 8.9 11.3 8.9 11.3 8.9 11.3 8.9 11.3 8.9 11.3 8.9 11.3 8.9 11.3 8.9 11.3 8.9 11.3 8.9 11.3 8.9 11.3 8.9 11.3 8.9 11.3 8.9 11.3 8.9 11.3 8.9 11.3 8.9 11.3 8.9 11.3 8.9 11.3 8.9 11.3 8.9 11.3"/>
      <polygon class="st7" points="8.9 11.3 8.9 11.3 8.9 11.3 8.9 11.3 8.9 11.3 8.9 11.3 8.9 11.3 8.9 11.3 8.9 11.3 8.9 11.3 8.9 11.3 8.9 11.3 8.9 11.3"/>
      <polygon class="st4" points="9 11.3 9 11.3 9 11.3 9 11.3 9 11.3 9 11.3 9 11.3 9 11.3 9 11.3"/>
      <polygon class="st2" points="9.1 11.1 9.1 11.1 9.1 11.1 9.1 11.1 9.1 11.1"/>
      <polygon class="st2" points="9.1 11.1 9.1 11.1 9.1 11.1 9.1 11.1 9.1 11.1"/>
      <polygon class="st2" points="9.1 11.1 9.1 11.1 9.1 11.1 9.1 11.1 9.1 11.1"/>
      <polygon class="st2" points="9 11.3 9 11.3 8.9 11.3 9 11.3 9 11.3"/>
      <polygon class="st2" points="9.1 11.3 9.1 11.3 9 11.3 9.1 11.3 9.1 11.3"/>
      <path class="st2" d="M9.1,11.3s0,0,0,0c0,0,0,0,0,0,0,0,0,0,0,0,0,0,0,0,0,0,0,0,0,0,0,0,0,0,0,0,0,0Z"/>
      <path class="st2" d="M9,11.3s0,0,0,0c0,0,0,0,0,0,0,0,0,0,0,0,0,0,0,0,0,0,0,0,0,0,0,0,0,0,0,0,0,0,0,0,0,0,0,0h0s0,0,0,0Z"/>
      <path class="st1" d="M9.1,11.1s0,0,0,0c0,0,0,0,0,0,0,0,0,0,0,0,0,0,0,0,0,0,0,0,0,0,0,0h0s0,0,0,0c0,0,0,0-.1,0s0,0,0,0c0,0,0,0,0,0,0,0,0,0,0,0s0,0,0,0Z"/>
      <path class="st1" d="M9.1,11.2h0s0,0,0,0,0,0,0,0c0,0,0,0,0,0,0,0,0,0,0,0,0,0,0,0,0,0h0s0,0,0,0c0,0,0,0,0,0,0,0,0,0,0,0t0,0s0,0,0,0c0,0,0,0,0,0,0,0,0,0,0,0s0,0,0,0c0,0,0,0,0,0,0,0,0,0,0,0s0,0,0,0h0s0,0,0,0h0s0,0,0,0h0s0,0,0,0h0s0,0,0,0c0,0,0,0,0,0,0,0,0,0,0,0s0,0,0,0c0,0,0,0,0,0,0,0,0,0,0,0s0,0,0,0c0,0,0,0,0,0,0,0,0,0,0,0,0,0,0,0,0,0,0,0,0,0,0,0,0,0,0,0,0,0,0,0,0,0,0,0,0,0,0,0,0,0h0s0,0,0,0,0,0,0,0c0,0,0,0,0,0,0,0,0,0,0,0h0s0,0,0,0Z"/>
      <g>
        <path class="st7" d="M9.2,11.2h0s0,0,0,0c0,0,0,0,0,0,0,0,0,0,0,0h0s0,0,0,0c0,0,0,0,0,0,0,0,0,0,0,0,0,0,0,0,0,0h0s0,0,0,0h0s0,0,0,0c0,0,0,0,0,0h0s0,0,0,0c0,0,0,0,0,0,0,0,0,0,0,0,0,0,0,0,0,0,0,0,0,0,0,0s0,0,0,0c0,0,0,0,0,0,0,0,0,0,0,0,0,0,0,0,0,0,0,0,0,0,0,0,0,0,0,0,0,0,0,0,0,0,0,0,0,0,0,0,0,0,0,0,0,0,0,0,0,0,0,0,0,0,0,0,0,0,0,0h0s0,0,0,0c0,0,0,0,0,0,0,0,0,0,0,0,0,0,0,0,0,0,0,0,0,0,0,0,0,0,0,0,0,0,0,0,0,0,0,0,0,0,0,0,0,0h0s0,0,0,0h0s0,0,0,0c0,0,0,0,0,0,0,0,0,0,0,0,0,0,0,0,0,0h0s0,0,0,0h0s0,0,0,0c0,0,0,0,0,0,0,0,0,0,0,0s0,0,0,0c0,0,0,0,0,0t0,0h0s0,0,0,0h0s0,0,0,0c0,0,0,0,0,0,0,0,0,0,0,0,0,0,0,0,0,0h0Z"/>
        <path class="st7" d="M9,11.2h0s0,0,0,0c0,0,0,0,0,0,0,0,0,0,0,0h0s0,0,0,0h0s0,0,0,0c0,0,0,0,0,0,0,0,0,0,0,0,0,0,0,0,0,0,0,0,0,0,0,0,0,0,0,0,0,0,0,0,0,0,0,0h0s0,0,0,0c0,0,0,0,0,0,0,0,0,0,0,0,0,0,0,0,0,0,0,0,0,0,0,0,0,0,0,0,0,0,0,0,0,0,0,0,0,0,0,0,0,0h0s0,0,0,0,0,0,0,0h0s0,0,0,0t0,0s0,0,0,0h0s0,0,0,0h0s0,0,0,0h0s0,0,0,0c0,0,0,0,0,0,0,0,0,0,0,0,0,0,0,0,0,0,0,0,0,0,0,0,0,0,0,0,0,0,0,0,0,0,0,0,0,0,0,0,0,0,0,0,0,0,0,0,0,0,0,0,0,0,0,0,0,0,0,0h0s0,0,0,0h0s0,0,0,0c0,0,0,0,0,0,0,0,0,0,0,0,0,0,0,0,0,0,0,0,0,0,0,0,0,0,0,0,0,0,0,0,0,0,0,0,0,0,0,0,0,0,0,0,0,0,0,0h0s0,0,0,0c0,0,0,0,0,0,0,0,0,0,0,0,0,0,0,0,0,0,0,0,0,0,0,0,0,0,0,0,0,0h0s0,0,0,0c0,0,0,0,0,0,0,0,0,0,0,0,0,0,0,0,0,0,0,0,0,0,0,0h0Z"/>
        <polygon class="st7" points="8.9 11.2 8.9 11.2 8.9 11.3 8.9 11.2"/>
      </g>
      <path class="st7" d="M9.1,11.3s0,0,0,0c0,0,0,0,0,0,0,0,0,0,0,0Z"/>
      <path class="st7" d="M9.1,11.3s0,0-.1,0c0,0,0,0,0,0,0,0,0,0,0,0,0,0,0,0,0,0Z"/>
      <path class="st2" d="M8.7,11.3s0,0,0,0c0,0,0,0,0,0h0s0,0,0,0c0,0,0,0,0,0,0,0,0,0,0,0Z"/>
      <path class="st1" d="M9.2,11.3s0,0,0,0h0s0,0,0,0c0,0,0,0,0,0,0,0,0,0,0,0,0,0,0,0,0,0,0,0,0,0,0,0,0,0,0,0,0,0,0,0,0,0,0,0,0,0,0,0,0,0h0s0,0,0,0c0,0,0,0,0,0h0s0,0,0,0c0,0,0,0,0,0,0,0,0,0,0,0,0,0,0,0,0,0,0,0,0,0,0,0,0,0,0,0,0,0,0,0,0,0,0,0,0,0,0,0,0,0h0s0,0,0,0c0,0,0,0,0,0,0,0,0,0,0,0,0,0,0,0,0,0,0,0,0,0,0,0,0,0,0,0,0,0h0s0,0,0,0c0,0,0,0,0,0,0,0,0,0,0,0,0,0,0,0,0,0h0s0,0,0,0c0,0,0,0,0,0,0,0,0,0,0,0t0,0s0,0,0,0h0s0,0,0,0c0,0,0,0,0,0,0,0,0,0,0,0h0s0,0,0,0c0,0,0,0,0,0,0,0,0,0,0,0,0,0,0,0,0,0,0,0,0,0,0,0,0,0,0,0,0,0,0,0,0,0,0,0,0,0,0,0,0,0h0s0,0,0,0c0,0,0,0,0,0,0,0,0,0,0,0,0,0,0,0,0,0h0s0,0,0,0c0,0,0,0,0,0h0s0,0,0,0h0s0,0,0,0h0s0,0,0,0c0,0,0,0,0,0,0,0,0,0,0,0,0,0,0,0,0,0,0,0,0,0,0,0t0,0s0,0,0,0c0,0,0,0,0,0,0,0,0,0,0,0,0,0,0,0,0,0h0s0,0,0,0,0,0,0,0c0,0,0,0,0,0,0,0,0,0,0,0,0,0,0,0,0,0,0,0,0,0,0,0,0,0,0,0,0,0h0s0,0,0,0c0,0,0,0,0,0,0,0,0,0,0,0h0s0,0,0,0c0,0,0,0,0,0,0,0,0,0,0,0h0s0,0,0,0c0,0,0,0,0,0Z"/>
      <g>
        <polygon class="st2" points="8.9 11.1 8.9 11.1 8.9 11.1 8.9 11.1 8.9 11.1"/>
        <polygon class="st2" points="8.9 11.1 8.9 11.1 8.9 11.1 8.9 11.1 8.9 11.1"/>
        <polygon class="st2" points="9 11.1 9 11.1 9 11.1 9 11.1 9 11.1"/>
        <polygon class="st2" points="9 11.1 9 11.1 9 11.1 9 11.1 9 11.1"/>
        <polygon class="st2" points="9 11.1 9 11.1 9 11.1 9 11.1 9 11.1"/>
        <polygon class="st2" points="9 11.1 9 11.1 9 11.1 9 11.1 9 11.1"/>
        <polygon class="st2" points="9 11.1 9 11.1 9.1 11.1 9 11.1 9 11.1"/>
        <polygon class="st2" points="9.1 11.1 9.1 11.1 9.1 11.1 9.1 11.1 9.1 11.1"/>
        <polygon class="st2" points="9.1 11.1 9.1 11.1 9.1 11.1 9.1 11.1 9.1 11.1 9.1 11.1 9.1 11.1 9.1 11.1 9.1 11.1"/>
        <polygon class="st2" points="9.1 11.1 9.1 11.1 9.1 11.1 9.1 11.1 9.1 11.1 9.1 11.1 9.1 11.1"/>
        <polygon class="st2" points="9.1 11.2 9.1 11.2 9.1 11.2 9.1 11.2 9.1 11.2 9.1 11.2 9.1 11.2 9.1 11.2"/>
        <polygon class="st2" points="9.1 11.2 9.1 11.2 9.1 11.2 9.1 11.2 9.1 11.2 9.1 11.2 9.1 11.2 9.1 11.2 9.1 11.2 9.1 11.2 9.1 11.2 9.1 11.2 9.1 11.2"/>
        <polygon class="st2" points="9.1 11.2 9.1 11.2 9.1 11.2 9.1 11.2 9.1 11.2 9.1 11.2 9.1 11.2 9.1 11.2"/>
      </g>
      <polygon class="st2" points="9.1 11.2 9.1 11.2 9.1 11.2 9.1 11.2 9.1 11.2 9.1 11.2 9.1 11.2"/>
      <polygon class="st1" points="9.1 11.3 9 11.3 9 11.3 9 11.3 9 11.3 9 11.3 9 11.2 9 11.2 9 11.2 9 11.2 9 11.2 9 11.2 9.1 11.3"/>
      <path class="st1" d="M8.9,11.2h0s0,0,0,0h0s0,0,0,0t0,0s0,0,0,0h0s0,0,0,0c0,0,0,0,0,0t0,0h0s0,0,0,0c0,0,0,0,0,0s0,0,0,0c0,0,0,0,0,0,0,0,0,0,0,0,0,0,0,0,0,0,0,0,0,0,0,0,0,0,0,0,0,0h0s0,0,0,0h0s0,0,0,0,0,0,0,0c0,0,0,0,0,0,0,0,0,0,0,0s0,0,0,0c0,0,0,0,0,0,0,0,0,0,0,0Z"/>
      <polygon class="st2" points="8.9 11.2 8.9 11.2 8.9 11.2 8.9 11.2 8.9 11.2 8.9 11.2"/>
      <polygon class="st2" points="8.9 11.2 8.9 11.2 8.9 11.2 8.9 11.2 8.9 11.2 8.9 11.2"/>
      <g>
        <path class="st0" d="M8.8,11.2h0s0,0,0,0c0,0,0,0,0,0,0,0,0,0,0,0,0,0,0,0,0,0,0,0,0,0,0,0h0s0,0,0,0Z"/>
        <path class="st0" d="M8.9,11.2s0,0,0,0h0s0,0,0,0c0,0,0,0,0,0,0,0,0,0,0,0s0,0,0,0Z"/>
      </g>
      <polygon class="st1" points="8.9 11 8.9 11.1 8.9 11.1 8.9 11 8.9 11 8.9 11 8.9 11 8.9 11 8.9 11 8.9 11 8.9 11 8.9 11 8.9 11 8.9 11 8.9 11 8.9 11 8.9 11 8.9 11 8.9 11"/>
      <path class="st0" d="M8.8,11.2s0,0,0,0c0,0,0,0,0,0,0,0,0,0,0,0,0,0,0,0,0,0h0s0,0,0,0h0s0,0,0,0h0s0,0,0,0Z"/>
      <path class="st0" d="M8.9,11.2s0,0,0,0c0,0,0,0,0,0s0,0,0,0c0,0,0,0,0,0h0s0,0,0,0h0s0,0,0,0h0s0,0,0,0h0s0,0,0,0Z"/>
      <path class="st0" d="M9.1,11.2s0,0,0,0c0,0,0,0,0,0,0,0,0,0,0,0,0,0,0,0,0,0h0s0,0,0,0h0s0,0,0,0h0s0,0,0,0Z"/>
      <path class="st0" d="M9,11.2s0,0,0,0c0,0,0,0,0,0h0s0,0,0,0h0s0,0,0,0c0,0,0,0,0,0,0,0,0,0,0,0Z"/>
      <path class="st0" d="M9.1,11.3h0s0,0,0,0c0,0,0,0,0,0,0,0,0,0,0,0,0,0,0,0,0,0,0,0,0,0,0,0h0s0,0,0,0Z"/>
      <path class="st0" d="M9.2,11.3s0,0,0,0c0,0,0,0,0,0,0,0,0,0,0,0h0s0,0,0,0h0s0,0,0,0c0,0,0,0,0,0Z"/>
      <path class="st0" d="M9,11.2h0s0,0,0,0c0,0,0,0,0,0,0,0,0,0,0,0,0,0,0,0,0,0,0,0,0,0,0,0,0,0,0,0,0,0,0,0,0,0,0,0,0,0,0,0,0,0,0,0,0,0,0,0,0,0,0,0,0,0,0,0,0,0,0,0,0,0,0,0,0,0h0s0,0,0,0h0s0,0,0,0c0,0,0,0,0,0h0s0,0,0,0c0,0,0,0,0,0,0,0,0,0,0,0,0,0,0,0,0,0h0s0,0,0,0c0,0,0,0,0,0,0,0,0,0,0,0,0,0,0,0,0,0,0,0,0,0,0,0,0,0,0,0,0,0,0,0,0,0,0,0,0,0,0,0,0,0h0s0,0,0,0Z"/>
    </g>
    <path class="st1" d="M8.9,11.1s0,0,0,0c0,0,0,0,0,0,0,0,0,0,0,0h0s0,0,0,0h0s0,0,0,0h0s0,0,0,0h0s0,0,0,0h0s0,0,0,0c0,0,0,0,0,0h0s0,0,0,0c0,0,0,0,0,0,0,0,0,0,0,0s0,0,0,0c0,0,0,0,0,0,0,0,0,0,0,0,0,0,0,0,0,0h0s0,0,0,0c0,0,0,0,0,0h0s0,0,0,0,0,0,0,0c0,0,0,0,0,0,0,0,0,0,0,0,0,0,0,0,0,0,0,0,0,0,0,0,0,0,0,0,0,0,0,0,0,0,0,0Z"/>
    <path class="st7" d="M8.5,12.9h0c0,0,.2.2.5.3.1,0,.2,0,.3.1,0,0,0,0,.1,0,0,0,0-.2,0-.2,0,0,0,0,0,0,0,0-.2-.1-.4-.2-.2,0-.3-.1-.4-.2,0,0,0,0,0,0,0,0,0,.1,0,.2Z"/>
    <g>
      <g>
        <path class="st0" d="M4.7,11.3h0s0,0,0,0c0,0,0,0,0,0s0,0,0,0c0,0,0,0,0,0,0,0,0,0,0,0,0,0,0,0,0,0h0s0,0,0,0Z"/>
        <polygon class="st1" points="4.7 11.3 4.7 11.3 4.7 11.3 4.7 11.3 4.7 11.3 4.7 11.3"/>
      </g>
      <path class="st0" d="M4.7,11.3s0,0,0,0h0s0,0,0,0c0,0,0,0,0,0,0,0,0,0,0,0,0,0,0,0,0,0s0,0,0,0h0s0,0,0,0Z"/>
      <path class="st1" d="M4.7,11.3s0,0,0,0c0,0,0,0,0,0,0,0,0,0,0,0,0,0,0,0,0,0,0,0,0,0,0,0,0,0,0,0,0,0,0,0,0,0,0,0,0,0,0,0,0,0h0s0,0,0,0Z"/>
      <path class="st2" d="M4.7,11.3s0,0,0,0c0,0,0,0,0,0,0,0,0,0,0,0,0,0,0,0,0,0,0,0,0,0,0,0,0,0,0,0,0,0,0,0,0,0,0,0,0,0,0,0,0,0Z"/>
      <path class="st7" d="M4.8,11.3s0,0,0,0c0,0,0,0,0,0,0,0,0,0,0,0Z"/>
      <path class="st0" d="M4.8,11.3s0,0,0,0h0s0,0,0,0h0s0,0,0,0c0,0,0,0,0,0,0,0,0,0,0,0,0,0,0,0,0,0Z"/>
      <polygon class="st1" points="4.8 11.2 4.8 11.3 4.8 11.3 4.8 11.3 4.8 11.3 4.8 11.3 4.8 11.3 4.8 11.3 4.8 11.3 4.8 11.3 4.8 11.2 4.8 11.2 4.8 11.2 4.8 11.2 4.8 11.2 4.8 11.2"/>
      <path class="st0" d="M4.8,11.2s0,0,0,0c0,0,0,0,0,0,0,0,0,0,0,0,0,0,0,0,0,0h0s0,0,0,0h0s0,0,0,0h0s0,0,0,0Z"/>
      <path class="st1" d="M4.8,11.2s0,0,0,0c0,0,0,0,0,0,0,0,0,0,0,0h0s0,0,0,0c0,0,0,0,0,0h0s0,0,0,0c0,0,0,0,0,.1,0,0,0,0,0,0Z"/>
      <path class="st1" d="M4.9,11h0s0,0,0,0c0,0,0,0,0,0Z"/>
      <polygon class="st2" points="4.9 11.3 4.9 11.3 4.9 11.3 4.9 11.3 4.9 11.3"/>
      <path class="st2" d="M4.9,11.3s0,0,0,0c0,0,0,0,0,0,0,0,0,0,0,0,0,0,0,0,0,0h0s0,0,0,0c0,0,0,0,0,0,0,0,0,0,0,0Z"/>
      <g>
        <path class="st7" d="M4.9,11.2s0,0,0,0c0,0,0,0,0,0h0s0,0,0,0c0,0,0-.1,0-.1,0,0,0,0,0,0s0,0,0,0c0,0,0,0,0,0,0,0,0,0,0,0,0,0,0,0,0,0,0,0,0,0,0,0,0,0,0,0,0,0Z"/>
        <path class="st7" d="M4.8,11.3s0,0,0,0c0,0,0,0,0,0,0,0,0,0,0,0,0,0,0,0,0,0,0,0,0,0,0,0,0,0,0,0,0,0,0,0,0,0,0,0,0,0,0,0,0,0,0,0,0,0,0,0,0,0,0,0,0,0,0,0,0,0,0,0,0,0,0,0,0,0,0,0,0,0,0,0,0,0,0,0,0,0,0,0,0,0,0,0,0,0,0,0,0,0,0,0,0,0,0,0h0s0,0,0,0,0,0,0,0h0s0,0,0,0h0s0,0,0,0c0,0,0,0,0,0,0,0,0,0,0,0,0,0,0,0,0,0h0s0,0,0,0c0,0,0,0,0,0,0,0,0,0,.1,0s0,0,0,0c0,0,0,0,0,0h0s0,0,0,0h0s0,0,0,0c0,0,0,0,0,0,0,0,0,0,0,0,0,0,0,0,0,0h0s0,0,0,0h0s0,0,0,0c0,0,0,0,0,0,0,0,0,0,0,0,0,0,0,0,0,0Z"/>
      </g>
      <path class="st7" d="M4.9,11.3s0,0-.1,0c0,0,0,0,0,0,0,0,0,0,0,0,0,0,0,0,0,0Z"/>
      <g>
        <path class="st0" d="M4.8,11.2h0s0,0,0,0c0,0,0,0,0,0,0,0,0,0,0,0,0,0,0,0,0,0,0,0,0,0,0,0h0s0,0,0,0Z"/>
        <path class="st0" d="M4.9,11.2s0,0,0,0h0s0,0,0,0c0,0,0,0,0,0,0,0,0,0,0,0s0,0,0,0Z"/>
      </g>
      <path class="st1" d="M4.9,11.3s0,0,0,0c0,0,0,0,0,0,0,0,0,0,0,0,0,0,0,0,0,0h0s0,0,0,0c0,0,0,0,0,0,0,0,0,0,0,0,0,0,0,0,0,0,0,0,0,0,0,0,0,0,0,0,0,0,0,0,0,0,0,0,0,0,0,0,0,0,0,0,0,0,0,0,0,0,0,0,0,0,0,0,0,0,0,0h0s0,0,0,0c0,0,0,0,0,0,0,0,0,0,0,0,0,0,0,0,0,0h0s0,0,0,0h0s0,0,0,0c0,0,0,0,0,0,0,0,0,0,0-.1,0,0,0,0,0,0h0s0,0,0,0c0,0,0,0,0,0,0,0,0,.1,0,.1h0s0,0,0,0c0,0,0,0,0,0h0s0,0,0,0c0,0,0,0,0,0h0s0,0,0,0Z"/>
      <path class="st1" d="M4.9,11h0s0,0,0,0Z"/>
      <path class="st1" d="M4.9,11.1s0,0,0,0c0,0,0,0,0,0h0s0,0,0,0c0,0,0,0,0,0h0Z"/>
      <polygon class="st4" points="5 11.3 5 11.3 5 11.3 5 11.3 5 11.3 5 11.3 5 11.3 5 11.3 5 11.3"/>
      <polygon class="st2" points="5 11.3 5 11.3 5 11.3 5 11.3 5 11.3"/>
      <g>
        <path class="st0" d="M5.1,11.3h0s0,0,0,0c0,0,0,0,0,0s0,0,0,0c0,0,0,0,0,0,0,0,0,0,0,0,0,0,0,0,0,0h0s0,0,0,0Z"/>
        <polygon class="st1" points="5.2 11.3 5.2 11.3 5.2 11.3 5.2 11.3 5.2 11.3 5.2 11.3"/>
      </g>
      <path class="st0" d="M5.2,11.3s0,0,0,0h0s0,0,0,0c0,0,0,0,0,0,0,0,0,0,0,0,0,0,0,0,0,0s0,0,0,0h0s0,0,0,0Z"/>
      <path class="st1" d="M5.2,11.3s0,0,0,0c0,0,0,0,0,0,0,0,0,0,0,0h0s0,0,0,0c0,0,0,0,0,0,0,0,0,0,0,0,0,0,0,0,0,0,0,0,0,0,0,0,0,0,0,0,0,0Z"/>
      <path class="st2" d="M5.1,11.3s0,0,0,0c0,0,0,0,0,0,0,0,0,0,0,0,0,0,0,0,0,0,0,0,0,0,0,0,0,0,0,0,0,0,0,0,0,0,0,0,0,0,0,0,0,0Z"/>
      <path class="st2" d="M5,11.3s0,0,0,0c0,0,0,0,0,0,0,0,0,0,0,0,0,0,0,0,0,0,0,0,0,0,0,0,0,0,0,0,0,0h0s0,0,0,0Z"/>
      <g>
        <path class="st7" d="M5.1,11.1s0,.1,0,.1h0s0,0,0,0c0,0,0,0,0,0,0,0,0,0,0,0,0,0,0,0,0,0,0,0,0,0,0,0,0,0,0,0,0,0,0,0,0,0,0,0,0,0,0,0,0,0,0,0,0,0,0,0s0,0,0,0Z"/>
        <path class="st7" d="M5.2,11.2s0,0,0,0h0s0,0,0,0c0,0,0,0,0,0,0,0,0,0,0,0h0s0,0,0,0h0s0,0,0,0c0,0,0,0,0,0s0,0,0,0h0s0,0,0,0c0,0,0,0,0,0,0,0,0,0,0,0,0,0,0,0,0,0,0,0,0,0,0,0,0,0,0,0,0,0,0,0,0,0,0,0,0,0,0,0,0,0,0,0,0,0,0,0,0,0,0,0,0,0,0,0,0,0,0,0,0,0,0,0,0,0,0,0,0,0,0,0,0,0,0,0,0,0,0,0,0,0,0,0,0,0,0,0,0,0,0,0,0,0,0,0,0,0,0,0,0,0,0,0,0,0,0,0,0,0,0,0,0,0h0s0,0,0,0h0s0,0,0,0c0,0,0,0,0,0,0,0,0,0,0,0,0,0,0,0,0,0h0s0,0,0,0h0s0,0,0,0c0,0,0,0,0,0,0,0,0,0,0,0,0,0,0,0,.1,0,0,0,0,0,0,0Z"/>
      </g>
      <path class="st7" d="M5.1,11.3s0,0,0,0c0,0,0,0,0,0,0,0,0,0,0,0Z"/>
      <path class="st7" d="M5.1,11.3s0,0-.1,0c0,0,0,0,0,0,0,0,0,0,0,0,0,0,0,0,0,0Z"/>
      <path class="st1" d="M5.1,11.3s0,0,0,0h0s0,0,0,0h0s0,0,0,0c0,0,0,0,0,0,0,0,0,0,0,0,0,0,0,0,0,0Z"/>
      <polygon class="st1" points="5.1 11.3 5.1 11.3 5.1 11.3 5.1 11.3 5.1 11.3 5.1 11.3 5.1 11.3 5.1 11.3 5 11.3 5 11.2 5 11.2 5.1 11.2 5.1 11.2 5.1 11.2 5.1 11.2 5.1 11.3"/>
      <path class="st1" d="M5,11.1s0,0,0,0c0,0,0,0,0,0,0,0,0,0,0,0h0s0,0,0,0h0s0,0,0,0h0s0,0,0,0h0s0,0,0,0c0,0,0,0,0,0,0,0,0,0,0,0,0,0,0,0,0,0,0,0,0,0,0,0,0,0,0,0,0,0,0,0,0,0,0,0h0s0,0,0,0c0,0,0,0,0,0,0,0,0,0,0,0Z"/>
      <path class="st7" d="M4.9,11.3s0,0,0,0,0,0,0,0c0,0,0,0,0,0,0,0,0,0,0,0,0,0,0,0,0,0,0,0,0,0,0,0,0,0,0,0,0,0,0,0,0,0,0,0,0,0,0,0,0,0,0,0,0,0,0,0,0,0,0,0,0,0,0,0,0,0,0,0,0,0,0,0,0,0Z"/>
      <polygon class="st7" points="4.9 11.3 4.9 11.3 4.9 11.3 4.9 11.3 4.9 11.3 4.9 11.3 4.9 11.3 4.9 11.3 4.9 11.3 4.9 11.3 4.9 11.3 4.9 11.3 4.9 11.3 4.9 11.3 4.9 11.3"/>
      <path class="st1" d="M5.1,11.3s0,0,0,0,0,0,0,0c0,0,0,0,0,0,0,0,0,0,0,0,0,0-.1,0-.2,0h0c0,0-.2,0-.2,0,0,0,0,0,0,0,0,0,0,0,0,0,0,0,0,0,0,0,0,0,0,0,0,0,0,0,0,0,0,0,0,0,0,0,0,0t0,0h0s0,0,0,0c0,0,0,0,0,0,0,0,0,0,0,0,0,0,0,0,0,0h0s0,0,0,0c0,0,0,0,.1,0,0,0,0,0,0,0,0,0,0,0,0,0s0,0,0,0c0,0,0,0,0,0,0,0,0,0,.1,0,0,0,0,0,0,0h0s0,0,0,0c0,0,0,0,0,0,0,0,0,0,0,0h0s0,0,0,0c0,0,0,0,0,0,0,0,0,0,0,0Z"/>
      <path class="st0" d="M5.2,11.3s0,0,0,0t0,0h0s0,0,0,0c0,0,0,0,0,0,0,0,0,0,0,0,0,0,0,0,0,0h0s0,0,0,0c0,0,0,0,0,0,0,0,0,0,0,0,0,0,0,0,0,0,0,0,0,0,0,0,0,0,0,0,0,0,0,0,0,0,0,0,0,0,0,0,0,0,0,0,0,0,0,0,0,0,0,0,0,0,0,0,0,0,0,0,0,0,0,0,0,0,0,0,0,0,0,0,0,0,0,0,0,0,0,0,0,0,0,0,0,0,0,0,0,0,0,0,0,0,0,0,0,0,0,0,0,0,0,0,0,0,0,0,0,0,0,0,0,0,0,0,0,0,0,0,0,0,0,0,0,0,0,0,0,0,0,0,0,0,0,0,0,0,0,0,0,0,0,0,0,0,0,0,0,0,0,0,0,0,0,0h0s0,0,0,0c0,0,0,0,0,0,0,0,0,0,0,0,0,0,0,0,0,0,0,0,0,0,0,0h0s0,0,0,0c0,0,0,0,0,0,0,0,0,0,0,0,0,0,0,0,0,0,0,0,0,0,0,0,0,0,0,0,0,0,0,0,0,0,0,0,0,0,0,0,0,0,0,0,0,0,0,0,0,0,0,0,0,0,0,0,0,0,0,0,0,0,0,0,0,0,0,0,0,0,0,0,0,0,0,0,0,0,0,0,0,0,0,0,0,0,0,0,0,0,0,0,0,0,0,0,0,0,0,0,0,0,0,0,0,0,0,0,0,0,0,0,0,0h0s0,0,0,0c0,0,0,0,0,0,0,0,0,0,0,0,0,0,0,0,0,0,0,0,0,0,0,0h0s0,0,0,0c0,0,0,0,0,0,0,0,0,0,0,0,0,0,0,0,0,0,0,0,0,0,0,0,0,0,0,0,0,0,0,0,0,0,0,0,0,0,0,0,0,0,0,0,0,0,0,0,0,0,0,0,0,0,0,0,0,0,0,0,0,0,0,0,0,0,0,0,0,0,0,0,0,0,0,0,0,0,0,0,0,0,0,0,0,0,0,0,0,0s0,0,0,0c0,0,0,0,0,0,0,0,0,0,0,0,0,0,0,0,0,0,0,0,0,0,0,0,0,0,0,0,0,0,0,0,0,0,0,0,0,0,0,0,0,0,0,0,0,0,0,0,0,0,0,0,0,0,0,0,0,0,0,0,0,0,0,0,0,0,0,0,0,0,0,0,0,0,0,0,0,0,0,0,0,0,0,0,0,0,0,0,0,0,0,0,0,0,0,0,0,0,0,0,0,0,0,0,0,0,0,0,0,0,0,0,0,0,0,0,0,0,0,0,0,0,0,0,0,0,0,0,0,0,0,0,0,0,0,0,0,0,0,0,0,0,0,0,0,0,0,0,0,0,0,0,0,0,0,0,0,0,0,0,0,0,0,0,0,0,0,0h0s0,0,0,0c0,0,0,0,0,0,0,0,0,0,0,0,0,0,0,0,0,0,0,0,0,0,0,0h0s0,0,0,0c0,0,0,0,0,0,0,0,0,0,0,0,0,0,0,0,0,0,0,0,0,0,0,0,0,0,0,0,0,0,0,0,0,0,0,0,0,0,0,0,0,0,0,0,0,0,0,0,0,0,0,0,0,0,0,0,0,0,0,0,0,0,0,0,0,0,0,0,0,0,0,0,0,0,0,0,0,0,0,0,0,0,0,0,0,0,0,0,0,0,0,0,0,0,0,0,0,0,0,0,0,0,0,0,0,0,0,0,0,0,0,0,0,0,0,0,0,0,0,0Z"/>
      <path class="st1" d="M4.9,11.2s0,0,0,0h0s0,0,0,0c0,0,0,0,0,0,0,0,0,0,0,0,0,0,0,0,0,0,0,0,0,0,0,0,0,0,0,0,0,0,0,0,0,0,0,0s0,0,0,0c0,0,0,0,0,0,0,0,0,0,0,0h0s0,0,0,0c0,0,0,0,0,0h0s0,0,0,0,0,0,0,0c0,0,0,0,0,0,0,0,0,0,0,0s0,0,0,0c0,0,0,0,0,0,0,0,0,0,0,0,0,0,0,0,0,0Z"/>
      <g>
        <path class="st0" d="M5,11.2h0s0,0,0,0c0,0,0,0,0,0,0,0,0,0,0,0,0,0,0,0,0,0,0,0,0,0,0,0h0s0,0,0,0Z"/>
        <path class="st0" d="M5,11.2h0s0,0,0,0c0,0,0,0,0,0s0,0,0,0c0,0,0,0,0,0h0Z"/>
      </g>
      <polygon class="st1" points="4.9 11 4.9 11.1 4.9 11.1 4.9 11 4.9 11 4.9 11 4.9 11 4.9 11 4.9 11 4.9 11 4.9 11 4.9 11 4.9 11 4.9 11 4.9 11 4.9 11 4.9 11 4.9 11 4.9 11"/>
      <path class="st0" d="M5,11.2s0,0,0,0c0,0,0,0,0,0,0,0,0,0,0,0,0,0,0,0,0,0h0s0,0,0,0h0s0,0,0,0h0s0,0,0,0Z"/>
      <path class="st0" d="M4.9,11.2s0,0,0,0c0,0,0,0,0,0s0,0,0,0c0,0,0,0,0,0h0s0,0,0,0h0s0,0,0,0h0s0,0,0,0h0s0,0,0,0Z"/>
      <path class="st1" d="M5.1,11.1h0s0,0,0,0c0,0,0,0,0,.1,0,0,0,0,0,0h0s0,0,0,0h0s0,0,0,0c0,0,0,0,0,0,0,0,0,0,0,0,0,0,0,0,0,0,0,0,0,0,0,0h0s0,0,0,0c0,0,0,0,0,0,0,0,0,0,0,0,0,0,0,0,0,0,0,0,0,0,0,0,0,0,0,0,0,0,0,0,0,0,0,0,0,0,0,0,0,0,0,0,0,0,0,0,0,0,0,0,0,0,0,0,0,0,0,0,0,0,0,0,0,0,0,0,0,0,0,0,0,0,0,0,0,0h0s0,0,0,0c0,0,0,0,0,0,0,0,0,0,0,0,0,0,0,0,0,0,0,0,0,0,0,0s0,0,0,0c0,0,0,0,0,0,0,0,0,0,0,0,0,0,0,0,0,0,0,0,0,0,0,0,0,0,0,0,0,0,0,0,0,0,0,0,0,0,0,0,0,0,0,0,0,0,0,0,0,0,0,0,0,0,0,0,0,0,0,0,0,0,0,0,0,0s0,0,0,0c0,0,0,0,0,0,0,0,0,0,0,0h0s0,0,0,0h0s0,0,0,0c0,0,0-.1,0-.1,0,0,0,0,0,0,0,0,0,0,0,0Z"/>
      <path class="st1" d="M5,11.2s0,0,0,0c0,0,0,0,0,0,0,0,0,0,0,0h0s0,0,0,0c0,0,0,0,0,0h0s0,0,0,0c0,0,0,0,0,.1,0,0,0,0,0,0Z"/>
      <path class="st0" d="M5.1,11.3s0,0,0,0c0,0-.1,0-.2,0h0c0,0-.2,0-.2,0,0,0,0,0,0,0,0,0,0,0,0,0,0,0,0,0,0,0,0,0,0,0,0,0h0s0,0,0,0c0,0,0,0,0,0,0,0,.1,0,.2,0h0c0,0,.1,0,.2,0,0,0,0,0,0,0,0,0,0,0,0,0,0,0,0,0,0,0h0s0,0,0,0c0,0,0,0,0,0,0,0,0,0,0,0,0,0,0,0,0,0ZM4.8,11.3s0,0,0,0,0,0,0,0,0,0,0,0,0,0,0,0ZM4.8,11.3h0s0,0,0,0h0s0,0,0,0h0s0,0,0,0c0,0,0,0,0,0,0,0,0,0,0,0ZM4.9,11.3s0,0,0,0,0,0,0,0,0,0,0,0,0,0,0,0ZM4.9,11.3s0,0,0,0h0s0,0,0,0c0,0,0,0,0,0,0,0,0,0,0,0,0,0,0,0,0,0s0,0,0,0c0,0,0,0,0,0h0s0,0,0,0c0,0,0,0,0,0,0,0,0,0,0,0,0,0,0,0,0,0,0,0,0,0,0,0ZM5,11.3s0,0,0,0,0,0,0,0,0,0,0,0,0,0,0,0ZM5,11.3s0,0,0,0h0s0,0,0,0h0s0,0,0,0h0s0,0,0,0h0ZM5.1,11.3s0,0,0,0,0,0,0,0,0,0,0,0,0,0,0,0Z"/>
      <polygon class="st4" points="4.8 11.3 4.8 11.3 4.8 11.3 4.8 11.3 4.8 11.3 4.8 11.3 4.8 11.3 4.8 11.3 4.8 11.3"/>
    </g>
    <g>
      <path class="st1" d="M6.5,12.4v-.4h0v-.2h0s0,0,0,0h0c0-.1,0-.1,0-.1h0s0,0,0,0h0s0,0,0,0h0s0,0,0,0h0s0,0,0,0h0c0,.1,0,.1,0,.1h0c0,0,0,0,0,0v-.2h0c0-.1,0-.1,0-.1h0s0,0,0,0h0s0,0,0,0h0s0,0,0,0h0s0,0,0,0h0c0,.1,0,.1,0,.1v.2h0c0,0,0,0,0,0h0c0-.1,0-.1,0-.1h0s0,0,0,0h0s0,0,0,0h0s0,0,0,0h0s0,0,0,0h0c0,.1,0,.1,0,.1,0,0,0,0,0,0h0v.2h0v.4h0v.2h.3c0-.2,0-.2,0-.2s0,0,0,0h0c0,.1.3.1.3.1v-.2h0ZM6.2,12.3h-.1c0-.2,0-.2,0-.2s0,0,0,0h0ZM6.4,12.3h-.1c0-.2,0-.2,0-.2s0,0,0,0h0Z"/>
      <path class="st5" d="M6.2,12.1h0c0,.1-.1.1-.1.1h0c0-.2,0-.2,0-.2s0,0,0,0Z"/>
    </g>
    <g>
      <path class="st7" d="M6.9,12.3c-.2,0-.4.2-.4.5s0,0,0,0c0,.1,0,.3.1.3,0,0,0,0,.1.1,0,0,0,0,.2,0s0,0,0,0c0,0,0,0,0,0,0,0,0,0,0,0,0,0,0,0,0,0,0,0,0,0,0,0,0,0,0,0,0,0,0,0,0,0,0,0,0,0,0,0,0,0,0,0,0,0,0,0,0,0,0,0,0,0,0,0,0,0,0,0,0,0,0,0,0,0,0,0,0,0,0,0,0,0,0,0,0,0,0,0,0,0,0,0,0,0,0,0,0,0,0,0,0,0,0,0,0,0,0,0,0,0,0,0,0,0,0,0,0,0,0,0,0,0,0,0,0,0,0,0,0,0,0,0,0,0,0,0,0,0,0,0,0,0,0,0,0,0,0,0,0,0,0,0,0,0,0,0,0,0,0,0,0,0,0,0,0,0,0,0,0,0,0,0,0,0,0,0,0,0,0,0,0,0,0,0,0,0,0,0,0,0,0,0,0,0,0,0,0,0,0,0,0,0,0,0,0,0,0,0,0,0,0,0,0,0,0,0,0,0,0,0,0,0,0,0,0,0,0,0,0,0,0,0,0,0,0,0,0,0,0,0,0,0h0s0,0,0,0c0,0,0,0,0,0,0,0,0,0,0,0,0,0,0,0,0,0,0,0,0,0,0,0,0,0,0,0,0,0,0,0,0,0,0,0,0,0,0,0,0,0,0,0,0,0,0,0,0-.3-.2-.5-.4-.5ZM7.1,13.1s0,0,0,0c0,0,0,0,0,0,0,0,0,0,0,0,0,0,0,0,0,0,0,0,0,0,0,0,0,0,0,0,0,0,0,0,0,0,0,0,0,0,0,0,0,0,0,0,0,0,0,0,0,0,0,0,0,0,0,0-.1,0-.2,0,0,0-.1-.1-.1-.2,0,0,0,0,0-.1,0,0,0,0,0,0,0-.2.1-.4.3-.4s.3.2.3.4,0,0,0,0c0,0,0,0,0,0,0,0,0,0,0,0,0,0,0,0,0,0,0,0,0,0,0,0,0,0,0,0,0,0,0,0,0,0,0,0,0,0,0,0,0,0,0,0,0,0,0,0,0,0,0,0,0,0,0,0,0,0,0,0,0,0,0,0,0,0,0,0,0,0,0,0Z"/>
      <path class="st5" d="M7.2,12.8c0,.2-.1.4-.3.4s-.1,0-.2,0c0,0-.1-.1-.1-.2,0,0,0,0,0-.1,0,0,0,0,0,0,0-.2.1-.4.3-.4s.3.2.3.4Z"/>
      <g>
        <g>
          <rect class="st1" x="6.9" y="13" width=".1" height="0"/>
          <path class="st1" d="M7,13h0c0,0,0,0,0,0s0,0,0,0h0s0,0,0,0,0,0,0,0h0c0,0,0,0,0,0s0,0,0,0c0,0,0,0,0,0s0,0,0,0c0,0,0,0,0,0,0,0,0,0,0,0,0,0,0,0,0,0,0,0,0,0,0,0,0,0,0,0,0,0s0,0,0,0Z"/>
          <path class="st1" d="M7,13.1h0s0,0,0,0h0s0,0,0,0c0,0,0,0,0,0h0s0,0,0,0Z"/>
        </g>
        <g>
          <rect class="st1" x="6.7" y="12.8" width=".1" height="0"/>
          <path class="st1" d="M6.9,12.7h0c0,0,0,0,0,0s0,0,0,0h0s0,0,0,0,0,0,0,0h0c0,0,0,0,0,0s0,0,0,0c0,0,0,0,0,0s0,0,0,0c0,0,0,0,0,0,0,0,0,0,0,0,0,0,0,0,0,0,0,0,0,0,0,0,0,0,0,0,0,0s0,0,0,0Z"/>
          <path class="st1" d="M6.8,12.9h0s0,0,0,0h0s0,0,0,0c0,0,0,0,0,0h0s0,0,0,0Z"/>
        </g>
        <g>
          <rect class="st1" x="7" y="12.8" width=".1" height="0"/>
          <path class="st1" d="M6.9,12.7h0c0,0,0,0,0,0s0,0,0,0h0s0,0,0,0,0,0,0,0h0c0,0,0,0,0,0s0,0,0,0c0,0,0,0,0,0s0,0,0,0c0,0,0,0,0,0,0,0,0,0,0,0,0,0,0,0,0,0,0,0,0,0,0,0,0,0,0,0,0,0s0,0,0,0Z"/>
          <path class="st1" d="M7,12.9h0s0,0,0,0h0s0,0,0,0c0,0,0,0,0,0h0s0,0,0,0Z"/>
        </g>
      </g>
    </g>
  </g>
</svg>