<svg width="27" height="25" viewBox="0 0 27 25" fill="none" xmlns="http://www.w3.org/2000/svg">
<path d="M9.23532 16.2659C10.0177 14.9196 10.7277 13.532 11.5872 12.2488C14.8181 7.42488 19.1102 3.82213 24.1177 1.07727C24.7568 0.727148 25.4221 0.424322 26.0906 0.137627C26.2339 0.0756682 26.4459 0.179054 26.6279 0.206184C26.5803 0.389493 26.5921 0.646124 26.475 0.74841C25.7807 1.3537 25.051 1.91682 24.3431 2.50817C20.5994 5.62992 17.6035 9.41048 15.0732 13.5921C13.1932 16.6864 11.6023 19.9552 10.3219 23.3552C10.194 23.6957 9.83537 24.0847 9.51009 24.176C9.02324 24.3124 8.78178 23.8142 8.60338 23.4112C7.58526 21.1129 6.43208 18.8956 4.94466 16.8719C3.86994 15.4094 2.63114 14.1362 1.08425 13.1841C0.846022 13.0374 0.610658 12.6437 0.628929 12.383C0.6429 12.1828 1.03517 11.9064 1.29884 11.8456C3.31036 11.3932 5.07936 12.0237 6.59436 13.3406C7.45414 14.0874 8.16095 15.0168 8.9326 15.8681C9.05476 16.0034 9.1565 16.1614 9.23532 16.2659Z" fill="#606D52"/>
</svg>
