<?xml version="1.0" encoding="UTF-8"?>
<svg id="Layer_1" xmlns="http://www.w3.org/2000/svg" version="1.1" xmlns:xlink="http://www.w3.org/1999/xlink" viewBox="0 0 24 24">
  <!-- Generator: Adobe Illustrator 29.3.1, SVG Export Plug-In . SVG Version: 2.1.0 Build 151)  -->
  <defs>
    <style>
      .st0 {
        fill: none;
      }

      .st1 {
        fill: #41479b;
      }

      .st2 {
        fill: #f5f5f5;
      }

      .st3 {
        fill: #ff4b55;
      }

      .st4 {
        clip-path: url(#clippath);
      }
    </style>
    <clipPath id="clippath">
      <path class="st0" d="M17.1,3H6.9c-2.2,0-3.9,1.8-3.9,3.9v10.1c0,2.2,1.8,3.9,3.9,3.9h10.1c2.2,0,3.9-1.8,3.9-3.9V6.9c0-2.2-1.8-3.9-3.9-3.9h.1Z"/>
    </clipPath>
  </defs>
  <path class="st2" d="M17.1,3H6.9c-2.2,0-3.9,1.8-3.9,3.9v10.1c0,2.2,1.8,3.9,3.9,3.9h10.1c2.2,0,3.9-1.8,3.9-3.9V6.9c0-2.2-1.8-3.9-3.9-3.9h.1Z"/>
  <g class="st4">
    <g>
      <polygon class="st3" points="21 10.2 21 13.8 13.8 13.8 13.8 21 10.2 21 10.2 13.8 3 13.8 3 10.2 10.2 10.2 10.2 3 13.8 3 13.8 10.2 21 10.2"/>
      <path class="st1" d="M9,15.6v5.4h-4.3c-.3,0-.5,0-.7-.2-.4-.2-.7-.5-.8-.9,0-.2-.1-.4-.1-.7v-.8l6-3Z"/>
      <polygon class="st3" points="8.6 15 3 17.9 3 16.5 6 15 8.6 15"/>
      <path class="st1" d="M21,18.5v.8c0,.2,0,.5-.1.7-.3.6-.9,1-1.6,1h-4.3v-5.4l6,3Z"/>
      <polygon class="st3" points="21 15.2 21 16.5 18 15 20.7 15 21 15.2"/>
      <path class="st1" d="M9,3v5.4l-6-3v-.8c0-.2,0-.5.1-.7,0,0,0,0,0,0h0c.1-.3.3-.5.6-.7,0,0,.1,0,.2-.1.2-.1.5-.2.7-.2h4.3Z"/>
      <polygon class="st3" points="6 9 3.3 9 3 8.8 3 7.5 6 9"/>
      <path class="st1" d="M21,4.7v.8l-6,3V3h4.3c.7,0,1.3.4,1.6,1,0,.2.1.4.1.7Z"/>
      <polygon class="st3" points="21 6.1 21 7.5 18 9 15.3 9 21 6.1"/>
    </g>
  </g>
</svg>