<?xml version="1.0" encoding="UTF-8"?>
<svg id="Layer_1" xmlns="http://www.w3.org/2000/svg" version="1.1" xmlns:xlink="http://www.w3.org/1999/xlink" viewBox="0 0 24 24">
  <!-- Generator: Adobe Illustrator 29.3.1, SVG Export Plug-In . SVG Version: 2.1.0 Build 151)  -->
  <defs>
    <style>
      .st0 {
        fill: #fefefe;
      }

      .st0, .st1, .st2 {
        fill-rule: evenodd;
      }

      .st3 {
        clip-path: url(#clippath-1);
      }

      .st4 {
        clip-rule: evenodd;
        fill: none;
      }

      .st5 {
        fill: #41479b;
      }

      .st6, .st1 {
        fill: #f5f5f5;
      }

      .st7 {
        clip-path: url(#clippath);
      }

      .st2 {
        fill: #c8414b;
      }
    </style>
    <clipPath id="clippath">
      <path id="Path1" data-name="Path" class="st4" d="M17.2,3H6.9c-2.2,0-3.9,1.8-3.9,3.9v10.2c0,2.2,1.8,3.9,3.9,3.9h10.2c2.2,0,3.9-1.8,3.9-3.9V6.9c0-2.2-1.8-3.9-3.9-3.9h.1Z"/>
    </clipPath>
    <clipPath id="clippath-1">
      <path id="Path2" data-name="Path" class="st4" d="M17.2,3H6.9c-2.2,0-3.9,1.8-3.9,3.9v10.2c0,2.2,1.8,3.9,3.9,3.9h10.2c2.2,0,3.9-1.8,3.9-3.9V6.9c0-2.2-1.8-3.9-3.9-3.9h.1Z"/>
    </clipPath>
  </defs>
  <path id="Path" class="st2" d="M17.2,3H6.9c-2.2,0-3.9,1.8-3.9,3.9v10.2c0,2.2,1.8,3.9,3.9,3.9h10.2c2.2,0,3.9-1.8,3.9-3.9V6.9c0-2.2-1.8-3.9-3.9-3.9h.1Z"/>
  <g class="st7">
    <g>
      <path class="st1" d="M2.9,19.6h18.1c0,0,0-.1,0-.2v-1.2H2.9v1.2c0,0,0,.1,0,.2h0Z"/>
      <rect class="st6" x="2.9" y="15.5" width="18.1" height="1.4"/>
      <rect class="st6" x="2.9" y="12.7" width="18.1" height="1.4"/>
      <rect class="st6" x="2.9" y="9.9" width="18.1" height="1.4"/>
      <rect class="st6" x="2.9" y="7.2" width="18.1" height="1.4"/>
      <path class="st1" d="M2.9,5.8h18.1v-1.2c0,0,0-.1,0-.2H2.9c0,0,0,.1,0,.2v1.2Z"/>
    </g>
  </g>
  <g class="st3">
    <rect class="st5" x="3" y="3" width="11.6" height="9.7"/>
    <g>
      <polygon class="st0" points="5.4 5 5.5 5.4 5.9 5.4 5.6 5.6 5.7 5.9 5.4 5.7 5.1 5.9 5.2 5.6 4.9 5.4 5.3 5.4 5.4 5"/>
      <polygon class="st0" points="5.4 6.6 5.5 7 5.9 7 5.6 7.2 5.7 7.6 5.4 7.3 5.1 7.6 5.2 7.2 4.9 7 5.3 7 5.4 6.6"/>
      <polygon class="st0" points="5.4 8.2 5.5 8.6 5.9 8.6 5.6 8.8 5.7 9.2 5.4 9 5.1 9.2 5.2 8.8 4.9 8.6 5.3 8.6 5.4 8.2"/>
      <polygon class="st0" points="5.4 9.8 5.5 10.2 5.9 10.2 5.6 10.4 5.7 10.8 5.4 10.6 5.1 10.8 5.2 10.4 4.9 10.2 5.3 10.2 5.4 9.8"/>
      <polygon class="st0" points="6.5 4.1 6.7 4.5 7 4.5 6.7 4.7 6.8 5.1 6.5 4.9 6.2 5.1 6.3 4.7 6 4.5 6.4 4.5 6.5 4.1"/>
      <polygon class="st0" points="6.5 5.8 6.7 6.1 7 6.1 6.7 6.3 6.8 6.7 6.5 6.5 6.2 6.7 6.3 6.3 6 6.1 6.4 6.1 6.5 5.8"/>
      <polygon class="st0" points="6.5 7.4 6.7 7.7 7 7.7 6.7 8 6.8 8.3 6.5 8.1 6.2 8.3 6.3 8 6 7.7 6.4 7.7 6.5 7.4"/>
      <polygon class="st0" points="6.5 9 6.7 9.4 7 9.4 6.7 9.6 6.8 9.9 6.5 9.7 6.2 9.9 6.3 9.6 6 9.4 6.4 9.4 6.5 9"/>
      <polygon class="st0" points="6.5 10.6 6.7 11 7 11 6.7 11.2 6.8 11.6 6.5 11.3 6.2 11.6 6.3 11.2 6 11 6.4 11 6.5 10.6"/>
      <polygon class="st0" points="4.3 4.1 4.4 4.5 4.8 4.5 4.5 4.7 4.6 5.1 4.3 4.9 4 5.1 4.1 4.7 3.8 4.5 4.1 4.5 4.3 4.1"/>
      <polygon class="st0" points="4.3 5.8 4.4 6.1 4.8 6.1 4.5 6.3 4.6 6.7 4.3 6.5 4 6.7 4.1 6.3 3.8 6.1 4.1 6.1 4.3 5.8"/>
      <polygon class="st0" points="4.3 7.4 4.4 7.7 4.8 7.7 4.5 8 4.6 8.3 4.3 8.1 4 8.3 4.1 8 3.8 7.7 4.1 7.7 4.3 7.4"/>
      <polygon class="st0" points="4.3 9 4.4 9.4 4.8 9.4 4.5 9.6 4.6 9.9 4.3 9.7 4 9.9 4.1 9.6 3.8 9.4 4.1 9.4 4.3 9"/>
      <polygon class="st0" points="4.3 10.6 4.4 11 4.8 11 4.5 11.2 4.6 11.6 4.3 11.3 4 11.6 4.1 11.2 3.8 11 4.1 11 4.3 10.6"/>
      <polygon class="st0" points="7.7 5 7.8 5.4 8.2 5.4 7.9 5.6 8 5.9 7.7 5.7 7.3 5.9 7.5 5.6 7.2 5.4 7.5 5.4 7.7 5"/>
      <polygon class="st0" points="7.7 6.6 7.8 7 8.2 7 7.9 7.2 8 7.6 7.7 7.3 7.3 7.6 7.5 7.2 7.2 7 7.5 7 7.7 6.6"/>
      <polygon class="st0" points="7.7 8.2 7.8 8.6 8.2 8.6 7.9 8.8 8 9.2 7.7 9 7.3 9.2 7.5 8.8 7.2 8.6 7.5 8.6 7.7 8.2"/>
      <polygon class="st0" points="7.7 9.8 7.8 10.2 8.2 10.2 7.9 10.4 8 10.8 7.7 10.6 7.3 10.8 7.5 10.4 7.2 10.2 7.5 10.2 7.7 9.8"/>
      <polygon class="st0" points="8.8 4.1 8.9 4.5 9.3 4.5 9 4.7 9.1 5.1 8.8 4.9 8.5 5.1 8.6 4.7 8.3 4.5 8.7 4.5 8.8 4.1"/>
      <polygon class="st0" points="8.8 5.8 8.9 6.1 9.3 6.1 9 6.3 9.1 6.7 8.8 6.5 8.5 6.7 8.6 6.3 8.3 6.1 8.7 6.1 8.8 5.8"/>
      <polygon class="st0" points="8.8 7.4 8.9 7.7 9.3 7.7 9 8 9.1 8.3 8.8 8.1 8.5 8.3 8.6 8 8.3 7.7 8.7 7.7 8.8 7.4"/>
      <polygon class="st0" points="8.8 9 8.9 9.4 9.3 9.4 9 9.6 9.1 9.9 8.8 9.7 8.5 9.9 8.6 9.6 8.3 9.4 8.7 9.4 8.8 9"/>
      <polygon class="st0" points="8.8 10.6 8.9 11 9.3 11 9 11.2 9.1 11.6 8.8 11.3 8.5 11.6 8.6 11.2 8.3 11 8.7 11 8.8 10.6"/>
      <polygon class="st0" points="9.9 5 10 5.4 10.4 5.4 10.1 5.6 10.2 5.9 9.9 5.7 9.6 5.9 9.7 5.6 9.4 5.4 9.8 5.4 9.9 5"/>
      <polygon class="st0" points="9.9 6.6 10 7 10.4 7 10.1 7.2 10.2 7.6 9.9 7.3 9.6 7.6 9.7 7.2 9.4 7 9.8 7 9.9 6.6"/>
      <polygon class="st0" points="9.9 8.2 10 8.6 10.4 8.6 10.1 8.8 10.2 9.2 9.9 9 9.6 9.2 9.7 8.8 9.4 8.6 9.8 8.6 9.9 8.2"/>
      <polygon class="st0" points="9.9 9.8 10 10.2 10.4 10.2 10.1 10.4 10.2 10.8 9.9 10.6 9.6 10.8 9.7 10.4 9.4 10.2 9.8 10.2 9.9 9.8"/>
      <polygon class="st0" points="11.1 4.1 11.2 4.5 11.6 4.5 11.3 4.7 11.4 5.1 11.1 4.9 10.8 5.1 10.9 4.7 10.6 4.5 11 4.5 11.1 4.1"/>
      <polygon class="st0" points="11.1 5.8 11.2 6.1 11.6 6.1 11.3 6.3 11.4 6.7 11.1 6.5 10.8 6.7 10.9 6.3 10.6 6.1 11 6.1 11.1 5.8"/>
      <polygon class="st0" points="11.1 7.4 11.2 7.7 11.6 7.7 11.3 8 11.4 8.3 11.1 8.1 10.8 8.3 10.9 8 10.6 7.7 11 7.7 11.1 7.4"/>
      <polygon class="st0" points="11.1 9 11.2 9.4 11.6 9.4 11.3 9.6 11.4 9.9 11.1 9.7 10.8 9.9 10.9 9.6 10.6 9.4 11 9.4 11.1 9"/>
      <polygon class="st0" points="11.1 10.6 11.2 11 11.6 11 11.3 11.2 11.4 11.6 11.1 11.3 10.8 11.6 10.9 11.2 10.6 11 11 11 11.1 10.6"/>
      <polygon class="st0" points="12.2 5 12.3 5.4 12.7 5.4 12.4 5.6 12.5 5.9 12.2 5.7 11.9 5.9 12 5.6 11.7 5.4 12.1 5.4 12.2 5"/>
      <polygon class="st0" points="12.2 6.6 12.3 7 12.7 7 12.4 7.2 12.5 7.6 12.2 7.3 11.9 7.6 12 7.2 11.7 7 12.1 7 12.2 6.6"/>
      <polygon class="st0" points="12.2 8.2 12.3 8.6 12.7 8.6 12.4 8.8 12.5 9.2 12.2 9 11.9 9.2 12 8.8 11.7 8.6 12.1 8.6 12.2 8.2"/>
      <polygon class="st0" points="12.2 9.8 12.3 10.2 12.7 10.2 12.4 10.4 12.5 10.8 12.2 10.6 11.9 10.8 12 10.4 11.7 10.2 12.1 10.2 12.2 9.8"/>
      <polygon class="st0" points="13.3 4.1 13.5 4.5 13.8 4.5 13.5 4.7 13.7 5.1 13.3 4.9 13 5.1 13.1 4.7 12.8 4.5 13.2 4.5 13.3 4.1"/>
      <polygon class="st0" points="13.3 5.8 13.5 6.1 13.8 6.1 13.5 6.3 13.7 6.7 13.3 6.5 13 6.7 13.1 6.3 12.8 6.1 13.2 6.1 13.3 5.8"/>
      <polygon class="st0" points="13.3 7.4 13.5 7.7 13.8 7.7 13.5 8 13.7 8.3 13.3 8.1 13 8.3 13.1 8 12.8 7.7 13.2 7.7 13.3 7.4"/>
      <polygon class="st0" points="13.3 9 13.5 9.4 13.8 9.4 13.5 9.6 13.7 9.9 13.3 9.7 13 9.9 13.1 9.6 12.8 9.4 13.2 9.4 13.3 9"/>
      <polygon class="st0" points="13.3 10.6 13.5 11 13.8 11 13.5 11.2 13.7 11.6 13.3 11.3 13 11.6 13.1 11.2 12.8 11 13.2 11 13.3 10.6"/>
    </g>
  </g>
</svg>