<?xml version="1.0" encoding="UTF-8"?>
<svg width="24px" height="24px" viewBox="0 0 24 24" version="1.1" xmlns="http://www.w3.org/2000/svg" xmlns:xlink="http://www.w3.org/1999/xlink">
    <title>03 Icon/04 Flag/Vietnam</title>
    <g id="03-Icon/04-Flag/Vietnam" stroke="none" stroke-width="1" fill="none" fill-rule="evenodd">
        <g id="flag-vietnam" transform="translate(3.000000, 3.000000)">
            <path d="M14.0625,0 L3.9375,0 C1.762875,0 0,1.762875 0,3.9375 L0,14.0625 C0,16.237125 1.762875,18 3.9375,18 L14.0625,18 C16.237125,18 18,16.237125 18,14.0625 L18,3.9375 C18,1.762875 16.237125,0 14.0625,0 Z" id="Path" fill="#FF4B55"></path>
            <path d="M9.16048828,5.15496094 L10.0803164,7.91293359 L12.9875625,7.93546875 C13.150125,7.93673438 13.2175195,8.14419141 13.0867734,8.24076563 L10.7480039,9.96781641 L11.6249414,12.7397109 C11.6739844,12.8947148 11.4975,13.0229297 11.3652422,12.9283945 L9,11.2378359 L6.63475781,12.9284297 C6.5025,13.0229648 6.32601563,12.89475 6.37505859,12.7397461 L7.25199609,9.96785156 L4.91322656,8.24080078 C4.78244531,8.14422656 4.849875,7.93676953 5.0124375,7.93550391 L7.91968359,7.91296875 L8.83951172,5.15499609 C8.89094531,5.00073047 9.10905469,5.00073047 9.16048828,5.15496094 Z" id="Path" fill="#FFE15A"></path>
        </g>
    </g>
</svg>