<svg width="624" height="24" viewBox="0 0 624 24" fill="none" xmlns="http://www.w3.org/2000/svg">
<path fill-rule="evenodd" clip-rule="evenodd" d="M25 0H24V1C24 0.447716 24.4477 0 25 0ZM47 0C47.5523 0 48 0.447715 48 1V2C48 0.89543 48.8954 0 50 0H47ZM70 0C71.1046 0 72 0.895431 72 2V3C72 1.34315 73.3431 0 75 0H70ZM93 0C94.6569 0 96 1.34315 96 3V4C96 1.79086 97.7909 0 100 0H93ZM116 0C118.209 0 120 1.79086 120 4V5C120 2.23858 122.239 0 125 0H116ZM139 0C141.761 0 144 2.23858 144 5V6C144 2.68629 146.686 0 150 0H139ZM162 0C165.314 0 168 2.68629 168 6V7C168 3.13401 171.134 0 175 0H162ZM185 0C188.866 0 192 3.13401 192 7V8C192 3.58172 195.582 0 200 0H185ZM208 0C212.418 0 216 3.58172 216 8V9C216 4.02944 220.029 0 225 0H208ZM231 0C235.971 0 240 4.02944 240 9V10C240 4.47715 244.477 0 250 0H231ZM254 0C259.523 0 264 4.47715 264 10V11C264 4.92487 268.925 0 275 0H254ZM277 0C283.075 0 288 4.92487 288 11V12V13C288 19.0751 283.075 24 277 24H300H324H348H372H396H420H444H468H492H516H540H564H588H612H624V12V0H612H588H564H540H516H492H468H444H420H396H372H348H324H300H277ZM312 12C312 18.6274 306.627 24 300 24C293.373 24 288 18.6274 288 12C288 5.37258 293.373 0 300 0C306.627 0 312 5.37258 312 12ZM336 12C336 18.6274 330.627 24 324 24C317.373 24 312 18.6274 312 12C312 5.37258 317.373 0 324 0C330.627 0 336 5.37258 336 12ZM360 12C360 18.6274 354.627 24 348 24C341.373 24 336 18.6274 336 12C336 5.37258 341.373 0 348 0C354.627 0 360 5.37258 360 12ZM384 12C384 18.6274 378.627 24 372 24C365.373 24 360 18.6274 360 12C360 5.37258 365.373 0 372 0C378.627 0 384 5.37258 384 12ZM408 12C408 18.6274 402.627 24 396 24C389.373 24 384 18.6274 384 12C384 5.37258 389.373 0 396 0C402.627 0 408 5.37258 408 12ZM432 12C432 18.6274 426.627 24 420 24C413.373 24 408 18.6274 408 12C408 5.37258 413.373 0 420 0C426.627 0 432 5.37258 432 12ZM456 12C456 18.6274 450.627 24 444 24C437.373 24 432 18.6274 432 12C432 5.37258 437.373 0 444 0C450.627 0 456 5.37258 456 12ZM480 12C480 18.6274 474.627 24 468 24C461.373 24 456 18.6274 456 12C456 5.37258 461.373 0 468 0C474.627 0 480 5.37258 480 12ZM504 12C504 18.6274 498.627 24 492 24C485.373 24 480 18.6274 480 12C480 5.37258 485.373 0 492 0C498.627 0 504 5.37258 504 12ZM528 12C528 18.6274 522.627 24 516 24C509.373 24 504 18.6274 504 12C504 5.37258 509.373 0 516 0C522.627 0 528 5.37258 528 12ZM552 12C552 18.6274 546.627 24 540 24C533.373 24 528 18.6274 528 12C528 5.37258 533.373 0 540 0C546.627 0 552 5.37258 552 12ZM576 12C576 18.6274 570.627 24 564 24C557.373 24 552 18.6274 552 12C552 5.37258 557.373 0 564 0C570.627 0 576 5.37258 576 12ZM600 12C600 18.6274 594.627 24 588 24C581.373 24 576 18.6274 576 12C576 5.37258 581.373 0 588 0C594.627 0 600 5.37258 600 12ZM600 12C600 5.37258 605.373 0 612 0C618.627 0 624 5.37258 624 12C624 18.6274 618.627 24 612 24C605.373 24 600 18.6274 600 12ZM275 24C268.925 24 264 19.0751 264 13V14C264 19.5228 259.523 24 254 24H275ZM250 24C244.477 24 240 19.5228 240 14V15C240 19.9706 235.971 24 231 24H250ZM225 24C220.029 24 216 19.9706 216 15V16C216 20.4183 212.418 24 208 24H225ZM200 24C195.582 24 192 20.4183 192 16V17C192 20.866 188.866 24 185 24H200ZM175 24C171.134 24 168 20.866 168 17V18C168 21.3137 165.314 24 162 24H175ZM150 24C146.686 24 144 21.3137 144 18V19C144 21.7614 141.761 24 139 24H150ZM125 24C122.239 24 120 21.7614 120 19V20C120 22.2091 118.209 24 116 24H125ZM100 24C97.7909 24 96 22.2091 96 20V21C96 22.6569 94.6569 24 93 24H100ZM75 24C73.3431 24 72 22.6569 72 21V22C72 23.1046 71.1046 24 70 24H75ZM50 24C48.8954 24 48 23.1046 48 22V23C48 23.5523 47.5523 24 47 24H50ZM25 24C24.4477 24 24 23.5523 24 23V24H25Z" fill="black"/>
<path d="M24 0H23C23.5523 0 24 0.447715 24 1V23C24 23.5523 23.5523 24 23 24H24V0Z" fill="black"/>
</svg>
